<svg width="22" height="24" viewBox="0 0 22 24" fill="none" xmlns="http://www.w3.org/2000/svg">
<path d="M20.1053 9.95297L19.5901 8.63578L18.6766 6.3C17.8924 4.29516 16.022 3 13.9104 3H8.08958C5.9785 3 4.10758 4.29516 3.32338 6.3L2.40992 8.63578L1.89475 9.95297C0.78925 10.3828 0 11.4684 0 12.75V15C0 15.7556 0.282333 16.4377 0.733333 16.9655V19.5C0.733333 20.3283 1.39013 21 2.2 21H3.66667C4.47654 21 5.13333 20.3283 5.13333 19.5V18H16.8667V19.5C16.8667 20.3283 17.5235 21 18.3333 21H19.8C20.6099 21 21.2667 20.3283 21.2667 19.5V16.9655C21.7177 16.4381 22 15.7561 22 15V12.75C22 11.4684 21.2108 10.3828 20.1053 9.95297ZM6.04679 7.41422C6.38092 6.56016 7.18988 6 8.08958 6H13.9104C14.8101 6 15.6191 6.56016 15.9532 7.41422L16.8667 9.75H5.13333L6.04679 7.41422ZM3.66667 14.9906C2.78667 14.9906 2.2 14.3925 2.2 13.4953C2.2 12.5981 2.78667 12 3.66667 12C4.54667 12 5.86667 13.3458 5.86667 14.243C5.86667 15.1402 4.54667 14.9906 3.66667 14.9906ZM18.3333 14.9906C17.4533 14.9906 16.1333 15.1402 16.1333 14.243C16.1333 13.3458 17.4533 12 18.3333 12C19.2133 12 19.8 12.5981 19.8 13.4953C19.8 14.3925 19.2133 14.9906 18.3333 14.9906Z" fill="white"/>
</svg>
