<svg width="20" height="22" viewBox="0 0 20 22" fill="none" xmlns="http://www.w3.org/2000/svg">
<path d="M17.6698 10.4803V7.15997C17.6698 5.91419 16.6656 4.90997 15.4198 4.90997H1.57999C1.16577 4.90997 0.829987 4.57419 0.829987 4.15997C0.829987 3.74576 1.16577 3.40997 1.57999 3.40997H15.4198C17.494 3.40997 19.1698 5.08576 19.1698 7.15997V10.4803C19.1697 10.8944 18.8339 11.2303 18.4198 11.2303C18.0058 11.2302 17.67 10.8943 17.6698 10.4803Z" fill="#292D32"/>
<path d="M4.20987 0.469725C4.50277 0.176907 4.97755 0.176855 5.27042 0.469725C5.56321 0.762599 5.56321 1.2374 5.27042 1.53027L2.64053 4.16015L5.27042 6.79004L5.32217 6.84668C5.56226 7.14126 5.54494 7.57606 5.27042 7.85058C4.99573 8.12519 4.56107 8.14185 4.26651 7.90137L4.20987 7.85058L1.04971 4.69043C0.909106 4.54982 0.830035 4.35882 0.829987 4.15997C0.829988 3.96111 0.909119 3.77052 1.04971 3.62988L4.20987 0.469725Z" fill="#292D32"/>
<path d="M0.829987 14.8403V11.52C0.829987 11.1058 1.16577 10.77 1.57999 10.77C1.9942 10.77 2.32999 11.1058 2.32999 11.52V14.8403C2.33015 16.086 3.3343 17.0903 4.57999 17.0903H18.4198L18.497 17.0942C18.875 17.1328 19.1698 17.4521 19.1698 17.8403C19.1697 18.2284 18.875 18.5479 18.497 18.5864L18.4198 18.5903H4.57999C2.50587 18.5903 0.830151 16.9144 0.829987 14.8403Z" fill="#292D32"/>
<path d="M14.7297 14.1497C15.0043 13.8751 15.4391 13.8577 15.7336 14.098L15.7903 14.1497L18.9504 17.3099L19.0442 17.4241C19.1257 17.5464 19.1698 17.6912 19.1698 17.8403C19.1698 17.9894 19.1257 18.1339 19.0442 18.2562L18.9504 18.3704L15.7903 21.5306C15.4974 21.8233 15.0226 21.8233 14.7297 21.5306C14.4369 21.2377 14.437 20.7629 14.7297 20.47L17.3596 17.8401L14.7297 15.2103L14.678 15.1536C14.4377 14.859 14.4551 14.4243 14.7297 14.1497Z" fill="#292D32"/>
</svg>
