<svg width="292" height="292" viewBox="0 0 292 292" fill="none" xmlns="http://www.w3.org/2000/svg">
<circle cx="146" cy="146" r="146" fill="url(#paint0_linear_219_3140)"/>
<g clip-path="url(#clip0_219_3140)">
<path d="M56.811 172.723L40.8398 218.936L109.074 242.744L125.045 196.532L56.811 172.723Z" fill="#EBEBEB"/>
<path d="M125.042 196.526C124.773 196.683 124.49 196.815 124.196 196.917L121.718 197.928L112.554 201.548L82.1571 213.237L81.9089 213.331L81.7627 213.104L81.417 212.551L63.8987 184.472L58.6561 175.922C58.0652 174.948 57.5984 174.168 57.2557 173.58C57.0836 173.313 56.9353 173.031 56.8125 172.738C57.0209 172.973 57.2078 173.227 57.3709 173.495L58.8865 175.766L64.3064 184.227L81.9843 212.204L82.3344 212.756L81.94 212.623L112.39 201.103L121.63 197.697L124.147 196.806C124.435 196.683 124.735 196.589 125.042 196.526Z" fill="#E0E0E0"/>
<path d="M40.8328 218.915C40.7442 218.759 48.0608 214.212 57.1812 208.767C66.3015 203.321 73.7733 199.024 73.8663 199.184C73.9594 199.344 66.6428 203.882 57.518 209.332C48.3932 214.782 40.9259 219.088 40.8328 218.915Z" fill="#E0E0E0"/>
<path d="M96.7542 206.535C96.9226 206.478 99.8209 214.551 103.224 224.53C106.628 234.508 109.243 242.679 109.074 242.737C108.906 242.795 106.003 234.744 102.604 224.743C99.2049 214.742 96.5813 206.593 96.7542 206.535Z" fill="#E0E0E0"/>
<path d="M258.168 160.702L190.648 172.201L198.362 217.93L265.882 206.431L258.168 160.702Z" fill="#E0E0E0"/>
<path d="M258.162 160.72C258.01 160.975 257.835 161.215 257.639 161.437C257.231 161.931 256.699 162.59 256.035 163.409L250.056 170.605L230.114 194.25L229.95 194.446L229.728 194.321L229.188 194.023L201.88 178.714L193.606 174.012L191.39 172.707C191.122 172.57 190.869 172.404 190.637 172.213C190.919 172.318 191.191 172.446 191.452 172.596L193.734 173.798L202.07 178.326L229.467 193.466L230.007 193.765L229.618 193.836L249.715 170.311L255.853 163.253L257.541 161.352C257.729 161.123 257.937 160.912 258.162 160.72Z" fill="#EBEBEB"/>
<path d="M198.36 217.943C198.209 217.854 202.233 210.721 207.338 202.011C212.443 193.301 216.702 186.31 216.853 186.399C217.004 186.488 212.98 193.617 207.874 202.332C202.769 211.046 198.506 218.024 198.36 217.943Z" fill="#EBEBEB"/>
<path d="M239.197 182.004C239.312 181.879 245.379 187.245 252.745 193.996C260.11 200.746 265.991 206.317 265.875 206.464C265.76 206.611 259.698 201.223 252.328 194.472C244.958 187.722 239.082 182.133 239.197 182.004Z" fill="#EBEBEB"/>
<path d="M191.491 88.1299L179.195 119.185L225.05 137.515L237.347 106.461L191.491 88.1299Z" fill="#EBEBEB"/>
<path d="M236.549 106.56C236.362 106.663 236.165 106.745 235.96 106.805L234.24 107.428L227.894 109.628L206.84 116.752L206.667 116.81L206.574 116.65C206.507 116.53 206.432 116.396 206.352 116.267C202 108.612 198.06 101.688 195.175 96.6253L191.834 90.6718L190.948 89.0375C190.835 88.8495 190.74 88.6512 190.664 88.4453C190.801 88.6129 190.921 88.7933 191.023 88.9841L191.985 90.5782C192.831 92.0076 194.006 94.0114 195.45 96.4605L206.742 116.053L206.964 116.441L206.698 116.338L227.792 109.338L234.187 107.272L235.933 106.702C236.135 106.639 236.341 106.591 236.549 106.56Z" fill="#E0E0E0"/>
<path d="M178.5 119.509C178.443 119.402 183.561 116.503 189.93 113.039C196.298 109.574 201.514 106.858 201.585 106.965C201.656 107.072 196.524 109.971 190.151 113.435C183.779 116.899 178.563 119.616 178.5 119.509Z" fill="#E0E0E0"/>
<path d="M216.979 112.602C217.099 112.566 218.854 118.146 220.897 125.07C222.94 131.994 224.504 137.618 224.389 137.654C224.274 137.689 222.514 132.114 220.467 125.186C218.419 118.257 216.859 112.637 216.979 112.602Z" fill="#E0E0E0"/>
<path d="M273 270.643C273 270.705 216.137 270.759 146.007 270.759C75.8758 270.759 19 270.705 19 270.643C19 270.581 75.8536 270.527 146.007 270.527C216.16 270.527 273 270.567 273 270.643Z" fill="#2B3085"/>
<path d="M31.5316 149.249L37.8777 146.992L35.1523 143.336C35.0147 142.529 34.9494 141.71 34.9573 140.891C34.9566 140.469 35.0285 140.051 35.17 139.653C35.3247 139.152 35.5501 138.675 35.8392 138.237C35.9097 138.163 35.9547 138.068 35.9679 137.965C35.981 137.863 35.9615 137.76 35.9121 137.67C35.8628 137.579 35.7862 137.507 35.6935 137.464C35.6007 137.42 35.4965 137.407 35.396 137.427C34.975 137.538 34.1197 138.554 33.743 140.059C33.3663 141.564 32.3382 139.346 31.9482 138.549C31.5582 137.752 30.2464 135.33 29.9052 135.254C29.4089 135.143 29.2006 135.659 29.6038 136.447C30.0071 137.236 31.0619 139.693 30.632 139.881C30.2021 140.068 28.2876 135.962 28.2876 135.962C28.2876 135.962 28.0173 135.018 27.5165 135.218C26.6036 135.575 28.9657 139.783 29.2006 140.174C29.3645 140.45 28.9036 140.669 28.7574 140.366C28.6112 140.063 26.936 136.229 26.0054 136.585C25.2919 136.857 27.9154 140.063 27.8223 141.038C27.7293 142.013 26.0763 138.407 25.4071 138.692C25.1589 138.798 24.9861 138.914 26.2314 140.856C26.8521 141.764 27.5192 142.639 28.23 143.478L31.5405 149.24" fill="#FFBE9D"/>
<path d="M88.5767 157.019C88.5767 157.019 85.448 149.681 83.2898 146.114C81.2556 142.756 78.5612 142.213 77.1253 142.106C76.5299 141.923 75.9186 141.796 75.2995 141.728L63.5556 141.63C60.9938 141.654 58.5188 142.566 56.5492 144.213C56.0085 144.658 51.9491 149.382 46.5691 156.12L37.1696 145.909L31.5547 149.249C31.5547 149.249 37.6526 170.404 45.2928 168.953C49.8264 168.089 53.3717 164.918 53.3717 164.918L59.3278 160.092L59.4696 160.893C59.5893 161.868 59.9128 163.445 60.1167 164.397C60.839 167.421 61.2379 171.402 59.6735 174.038C59.6735 174.038 57.5507 175.672 59.2303 177.467H81.3177C81.3177 177.467 84.4509 175.334 81.5924 172.965L79.8198 168.458L80.9764 162.968L81.4196 160.768L83.3607 164.112C83.3607 164.112 87.2118 168.979 91.2135 168.383C96.0219 167.661 98.8094 158.858 94.4664 147.218L89.237 148.817L88.5767 157.019Z" fill="#E8505B"/>
<g opacity="0.4">
<path opacity="0.4" d="M31.5312 149.249L32.0852 151.012L38.3205 147.187L37.1462 145.909L31.5312 149.249Z" fill="#2B3085"/>
</g>
<g opacity="0.2">
<path opacity="0.2" d="M59.6812 174.038C60.6096 173.898 61.5002 173.571 62.2998 173.077C63.0994 172.582 63.7914 171.931 64.3345 171.161C65.4788 169.593 65.9569 167.633 65.664 165.711C65.639 165.373 65.5441 165.044 65.3854 164.745C65.2267 164.446 65.0076 164.184 64.7422 163.974C64.042 163.529 63.0936 163.761 62.3668 163.373C61.7774 163.057 61.4805 162.407 61.0373 161.873C60.5942 161.338 60.0535 160.51 59.4375 160.777C59.4375 160.777 60.182 164.696 60.5055 166.441C60.829 168.187 60.9487 170.694 60.3238 172.524C60.1631 173.05 59.9477 173.557 59.6812 174.038Z" fill="#2B3085"/>
</g>
<path d="M45.6797 159.749C45.6834 159.122 45.7944 158.5 46.008 157.91C46.1436 157.301 46.3307 156.706 46.567 156.129C46.566 156.757 46.4549 157.379 46.2387 157.968C46.1031 158.577 45.916 159.172 45.6797 159.749Z" fill="#2B3085"/>
<path d="M47.0757 158.774C46.8764 158.367 46.7474 157.929 46.6942 157.478C46.5669 157.045 46.5173 156.593 46.5478 156.143C46.8796 156.984 47.0584 157.878 47.0757 158.783V158.774Z" fill="#2B3085"/>
<path d="M89.2004 132.854L81.1836 145.909L87.4943 147.673L94.4963 136.825L89.2004 132.854Z" fill="#2B3085"/>
<path d="M88.6993 143.977L88.9741 145.887L90.0953 147.334L90.2061 148.519L94.23 147.29L92.6036 141.501C92.734 140.721 92.786 139.931 92.7587 139.141L91.6774 140.633L91.3716 138.228L89.1026 136.398C89.0442 136.355 88.9779 136.323 88.9074 136.306C88.837 136.289 88.7638 136.285 88.6921 136.297C88.6204 136.308 88.5517 136.333 88.4898 136.371C88.4279 136.409 88.3741 136.459 88.3315 136.518C88.2534 136.624 88.2162 136.756 88.2268 136.887C88.2374 137.019 88.295 137.143 88.3891 137.235L90.2105 138.847L90.3257 140.837L88.9962 139.608C88.8735 139.489 88.7201 139.405 88.5531 139.368L86.7228 138.998C86.6559 138.986 86.587 138.987 86.5207 139.003C86.4545 139.02 86.3925 139.05 86.3388 139.092C86.2851 139.134 86.2409 139.187 86.2093 139.248C86.1777 139.309 86.1594 139.375 86.1556 139.444C86.1435 139.554 86.1701 139.665 86.2308 139.758C86.2914 139.85 86.3824 139.919 86.4879 139.951L88.1498 140.463L89.8338 142.173L88.1897 141.541L85.9739 141.857C85.869 141.874 85.7737 141.929 85.7054 142.01C85.6371 142.092 85.6002 142.196 85.6016 142.302C85.6016 142.42 85.6483 142.534 85.7314 142.617C85.8145 142.701 85.9272 142.748 86.0448 142.748L87.4673 142.668L88.3049 142.93L86.3594 143.398C86.2732 143.42 86.1975 143.472 86.145 143.544C86.0925 143.617 86.0665 143.705 86.0714 143.794C86.0747 143.846 86.0883 143.897 86.1113 143.944C86.1343 143.991 86.1663 144.032 86.2054 144.067C86.2446 144.101 86.29 144.127 86.3393 144.144C86.3885 144.161 86.4405 144.167 86.4924 144.164L88.6993 143.977Z" fill="#FFBE9D"/>
<g opacity="0.4">
<path opacity="0.4" d="M89.227 148.817L89.0586 150.955L95.1565 149.267L94.4563 147.219L89.227 148.817Z" fill="#2B3085"/>
</g>
<path d="M81.1864 145.91C81.1864 145.91 80.6458 145.175 80.6901 145.05C80.7344 144.926 88.3214 132.373 88.3214 132.373L89.2077 132.854L81.1864 145.91Z" fill="#2B3085"/>
<path d="M91.2343 136.135C91.2695 136.109 91.3102 136.09 91.3534 136.082C91.3967 136.073 91.4413 136.074 91.4839 136.086C91.5266 136.097 91.5662 136.117 91.5998 136.146C91.6333 136.175 91.6601 136.211 91.6779 136.251C91.6873 136.297 91.6857 136.345 91.6732 136.39C91.6608 136.435 91.6378 136.477 91.6063 136.512C91.5747 136.546 91.5354 136.573 91.4916 136.59C91.4477 136.606 91.4006 136.612 91.354 136.607C91.3104 136.594 91.2706 136.57 91.2378 136.538C91.2049 136.506 91.18 136.467 91.1649 136.424C91.1498 136.38 91.145 136.334 91.1509 136.289C91.1568 136.243 91.1732 136.2 91.1988 136.162" fill="#2B3085"/>
<path d="M86.1888 152.246C86.1322 152.365 86.0541 152.472 85.9584 152.562C85.682 152.822 85.3402 153.001 84.9701 153.079C84.3852 153.199 83.7823 153.199 83.1974 153.079C82.4528 152.901 81.6815 152.867 80.924 152.977C80.0357 153.237 79.2165 153.693 78.5265 154.312C77.7332 154.922 76.8956 155.679 75.77 156.036C75.1941 156.2 74.5915 156.247 73.9973 156.174C73.389 156.08 72.7939 155.914 72.2247 155.679C71.0636 155.234 69.9468 154.575 68.7281 154.13C67.5494 153.668 66.2586 153.578 65.0277 153.872C63.8267 154.121 62.7011 154.539 61.5799 154.762C59.57 155.199 57.4709 154.908 55.6547 153.938C54.4277 153.303 53.3654 152.388 52.5526 151.267C52.2545 150.863 52.006 150.425 51.8125 149.962C51.8435 149.962 52.0562 150.443 52.6279 151.213C53.4584 152.29 54.5184 153.167 55.7301 153.778C57.5164 154.717 59.5743 154.996 61.5444 154.566C62.6479 154.326 63.7602 153.903 64.9922 153.644C66.2653 153.338 67.6013 153.429 68.8212 153.907C70.0709 154.352 71.1877 155.011 72.3266 155.466C72.879 155.694 73.4561 155.857 74.0461 155.951C74.6087 156.02 75.1793 155.978 75.7257 155.826C76.7937 155.497 77.6224 154.767 78.4245 154.157C79.1421 153.528 79.9921 153.071 80.9107 152.821C81.689 152.714 82.4806 152.759 83.2418 152.954C83.8064 153.083 84.3908 153.098 84.9612 152.999C85.3181 152.939 85.6529 152.785 85.9318 152.553C86.109 152.358 86.1799 152.242 86.1888 152.246Z" fill="#FAFAFA"/>
<path d="M88.6967 160.729C88.5604 160.081 88.5008 159.419 88.5192 158.756C88.4581 158.095 88.4774 157.428 88.5769 156.771C88.7156 157.42 88.7766 158.084 88.7588 158.748C88.8174 159.408 88.7965 160.073 88.6967 160.729Z" fill="#2B3085"/>
<path d="M74.875 242.604C75.07 243.379 79.5903 268.845 79.5903 268.845L86.5125 268.342L85.2495 242.337L74.875 242.604Z" fill="#FFBE9D"/>
<path d="M86.7264 268.724V267.994L79.3477 268.15L79.392 270.563H79.8351C81.8648 270.63 90.1565 270.768 91.5037 270.359C93.0104 269.922 86.7264 268.724 86.7264 268.724Z" fill="#E8505B"/>
<g opacity="0.3">
<path opacity="0.3" d="M82.0314 270.456C81.9 269.869 81.5516 269.353 81.0565 269.014C80.5532 268.658 79.9411 268.492 79.3281 268.546L79.3724 270.465L82.0314 270.456Z" fill="#2B3085"/>
</g>
<g opacity="0.3">
<path opacity="0.3" d="M89.7904 269.41C89.7904 269.41 92.0063 269.962 91.7271 270.301C91.4479 270.639 83.072 270.799 79.3672 270.563V270.408L89.1523 270.31C89.1523 270.31 89.3606 269.437 89.7904 269.41Z" fill="#2B3085"/>
</g>
<path d="M79.2695 270.408H79.3936H79.757L81.0865 270.439C82.2122 270.439 83.7721 270.461 85.5182 270.439C87.2642 270.417 88.7976 270.35 89.9232 270.292L91.2527 270.216L91.6161 270.189H91.7446H91.6161H91.2527L89.9232 270.238C88.7932 270.279 87.2376 270.327 85.4916 270.359C83.7455 270.39 82.2122 270.394 81.0865 270.394H79.3848L79.2695 270.408Z" fill="#2B3085"/>
<path d="M89.1604 270.417C89.2127 270.207 89.2917 270.005 89.3956 269.815C89.5248 269.637 89.6737 269.475 89.8392 269.33C89.6174 269.409 89.4325 269.568 89.3202 269.775C89.1869 269.961 89.1298 270.19 89.1604 270.417Z" fill="#2B3085"/>
<path d="M86.9732 269.428C86.9732 269.428 87.093 269.321 87.1951 269.16C87.2971 269 87.3681 268.862 87.3459 268.849C87.3237 268.835 87.2261 268.956 87.1196 269.116C87.0132 269.276 86.951 269.414 86.9732 269.428Z" fill="#2B3085"/>
<path d="M86.3594 269.143C86.3594 269.143 86.488 269.086 86.6123 268.979C86.7365 268.872 86.8252 268.769 86.8075 268.752C86.7897 268.734 86.6788 268.81 86.5546 268.916C86.4304 269.023 86.3594 269.126 86.3594 269.143Z" fill="#2B3085"/>
<path d="M85.9805 268.501C86.1036 268.541 86.2334 268.554 86.362 268.542C86.4924 268.554 86.624 268.539 86.748 268.497C86.6234 268.458 86.4921 268.444 86.362 268.457C86.2332 268.446 86.1035 268.461 85.9805 268.501Z" fill="#2B3085"/>
<path d="M85.8359 268.048C85.973 268.115 86.1225 268.154 86.275 268.162C86.4276 268.17 86.5801 268.146 86.7233 268.092C86.5756 268.081 86.4273 268.081 86.2796 268.092C86.1333 268.064 85.9849 268.049 85.8359 268.048Z" fill="#2B3085"/>
<path d="M87.207 268.822C87.3626 268.847 87.5212 268.847 87.6768 268.822C87.8469 268.799 88.0145 268.76 88.1776 268.706C88.2768 268.681 88.3722 268.642 88.4612 268.591C88.4888 268.577 88.5132 268.557 88.533 268.533C88.5528 268.51 88.5676 268.482 88.5764 268.453C88.5825 268.419 88.5786 268.385 88.5652 268.354C88.5518 268.323 88.5294 268.297 88.5011 268.279C88.3211 268.196 88.1185 268.175 87.9257 268.221C87.7329 268.267 87.561 268.377 87.4375 268.533C87.3671 268.62 87.3158 268.722 87.2868 268.831C87.279 268.871 87.279 268.912 87.2868 268.951C87.3344 268.814 87.4048 268.686 87.4951 268.573C87.6015 268.452 87.7398 268.364 87.8939 268.319C88.0782 268.256 88.2792 268.266 88.4568 268.346C88.5321 268.395 88.5055 268.479 88.4213 268.524C88.3383 268.57 88.2506 268.607 88.1598 268.635C88.0023 268.69 87.8408 268.733 87.6768 268.764C87.3843 268.786 87.207 268.809 87.207 268.822Z" fill="#2B3085"/>
<path d="M87.328 268.845C87.3562 268.8 87.375 268.749 87.3833 268.696C87.3917 268.644 87.3895 268.59 87.3768 268.538C87.3603 268.421 87.3128 268.31 87.2393 268.217C87.1969 268.151 87.1386 268.096 87.0696 268.058C87.0006 268.019 86.9232 267.999 86.8444 267.999C86.8215 268.003 86.7996 268.011 86.78 268.023C86.7604 268.036 86.7434 268.052 86.7302 268.071C86.717 268.09 86.7077 268.112 86.7029 268.135C86.6981 268.158 86.698 268.181 86.7025 268.204C86.7143 268.275 86.7432 268.342 86.7868 268.4C86.851 268.498 86.9286 268.586 87.0175 268.662C87.0923 268.742 87.1852 268.801 87.2881 268.836C87.2881 268.836 87.1949 268.76 87.0618 268.622C86.9831 268.544 86.9146 268.455 86.8577 268.36C86.7912 268.271 86.7424 268.101 86.8577 268.079C86.9201 268.086 86.9804 268.105 87.0347 268.137C87.089 268.168 87.1361 268.211 87.1727 268.262C87.2405 268.344 87.2877 268.442 87.3103 268.547C87.3278 268.645 87.3338 268.745 87.328 268.845Z" fill="#2B3085"/>
<path d="M79.3672 268.529C79.5473 268.519 79.7278 268.519 79.9078 268.529C80.3383 268.571 80.7505 268.724 81.1044 268.974C81.4433 269.216 81.7074 269.55 81.8666 269.936C81.9863 270.23 81.9996 270.426 82.0173 270.426C82.024 270.38 82.024 270.333 82.0173 270.288C82.002 270.161 81.9723 270.037 81.9287 269.918C81.7813 269.511 81.5139 269.158 81.162 268.907C80.7988 268.643 80.3684 268.489 79.9211 268.462C79.7855 268.449 79.649 268.449 79.5134 268.462C79.4159 268.506 79.3672 268.52 79.3672 268.529Z" fill="#2B3085"/>
<path d="M82.9414 269.771C83.2941 269.843 83.6544 269.87 84.0139 269.851C84.374 269.862 84.7341 269.829 85.0863 269.753C85.0863 269.726 84.6077 269.753 84.0139 269.753C83.42 269.753 82.9414 269.749 82.9414 269.771Z" fill="#2B3085"/>
<path d="M81.4844 269.798C81.4844 269.798 81.5245 269.891 81.5779 269.994C81.6313 270.096 81.658 270.185 81.6848 270.185C81.7115 270.185 81.7204 270.074 81.658 269.958C81.5957 269.842 81.5111 269.78 81.4844 269.798Z" fill="#2B3085"/>
<path d="M80.9414 269.173C80.9414 269.173 80.9725 269.263 81.0523 269.334C81.1322 269.405 81.2076 269.45 81.2254 269.432C81.2431 269.414 81.1899 269.343 81.1144 269.271C81.039 269.2 80.9592 269.16 80.9414 269.173Z" fill="#2B3085"/>
<path d="M80.1562 268.902C80.1562 268.924 80.2583 268.902 80.3648 268.956C80.4712 269.009 80.5555 269.04 80.5733 269.027C80.591 269.014 80.5289 268.916 80.3914 268.876C80.2539 268.835 80.1562 268.88 80.1562 268.902Z" fill="#2B3085"/>
<path d="M79.6016 268.787C79.6016 268.787 79.6372 268.84 79.6995 268.863C79.7619 268.885 79.8198 268.863 79.8242 268.863C79.8287 268.863 79.793 268.805 79.7307 268.782C79.6684 268.76 79.6105 268.756 79.6016 268.787Z" fill="#2B3085"/>
<path d="M57.2598 240.479C57.2243 241.272 54.3438 266.075 54.3438 266.075L61.1242 267.584L67.3772 242.319L57.2598 240.479Z" fill="#FFBE9D"/>
<path d="M61.4297 268.243L61.5848 267.53L54.3789 265.914L53.8516 268.27L54.2947 268.394C56.2491 268.946 64.2704 271.066 65.6752 270.99C67.2396 270.906 61.4297 268.243 61.4297 268.243Z" fill="#E8505B"/>
<g opacity="0.3">
<path opacity="0.3" d="M56.4587 268.787C56.4713 268.185 56.2558 267.601 55.8559 267.152C55.4508 266.687 54.8954 266.379 54.2871 266.284L53.875 268.159L56.4587 268.787Z" fill="#2B3085"/>
</g>
<g opacity="0.3">
<path opacity="0.3" d="M64.2482 269.646C64.2482 269.646 66.2557 270.706 65.9145 270.982C65.5733 271.258 57.3925 269.392 53.8516 268.279L53.8959 268.132L63.4239 270.358C63.4239 270.358 63.8272 269.566 64.2482 269.646Z" fill="#2B3085"/>
</g>
<path d="M53.7852 268.092C53.7852 268.092 53.825 268.092 53.9048 268.132L54.2549 268.234L55.5445 268.582C56.6347 268.867 58.1503 269.245 59.8299 269.628C61.5095 270.011 63.0384 270.327 64.1464 270.541L65.4758 270.786L65.8348 270.844H65.9589C65.9207 270.828 65.8804 270.817 65.8392 270.813L65.4847 270.737L64.1552 270.465C63.0517 270.234 61.5272 269.909 59.8477 269.53C58.1681 269.152 56.6702 268.786 55.5578 268.524L54.2593 268.203L53.9092 268.119L53.7852 268.092Z" fill="#2B3085"/>
<path d="M63.3945 270.47C63.4969 270.279 63.622 270.101 63.7672 269.94C63.936 269.8 64.1189 269.678 64.3129 269.575C64.0786 269.6 63.8611 269.709 63.7007 269.882C63.527 270.032 63.4174 270.242 63.3945 270.47Z" fill="#2B3085"/>
<path d="M61.506 268.983C61.506 268.983 61.648 268.907 61.7899 268.778C61.9319 268.649 62.0251 268.528 62.0073 268.515C61.9896 268.502 61.8609 268.586 61.7234 268.72C61.5858 268.853 61.4882 268.969 61.506 268.983Z" fill="#2B3085"/>
<path d="M60.9855 268.564C60.9855 268.586 61.1274 268.542 61.2738 268.466C61.4202 268.39 61.5312 268.31 61.5179 268.292C61.5045 268.274 61.3759 268.315 61.2295 268.39C61.0831 268.466 60.9721 268.546 60.9855 268.564Z" fill="#2B3085"/>
<path d="M60.7578 267.852C60.8685 267.92 60.9926 267.964 61.1216 267.981C61.244 268.024 61.374 268.04 61.5032 268.03C61.3928 267.961 61.2686 267.916 61.1394 267.901C61.017 267.858 60.887 267.841 60.7578 267.852Z" fill="#2B3085"/>
<path d="M60.7344 267.375C60.8411 267.482 60.9769 267.555 61.1248 267.584C61.2657 267.64 61.4193 267.656 61.5685 267.629C61.4335 267.575 61.2939 267.533 61.1514 267.504C61.0161 267.45 60.8766 267.407 60.7344 267.375Z" fill="#2B3085"/>
<path d="M61.875 268.457C62.0167 268.513 62.1663 268.546 62.3182 268.555C62.4891 268.572 62.6613 268.572 62.8322 268.555C62.9339 268.551 63.0348 268.536 63.1336 268.511C63.1934 268.494 63.2453 268.456 63.2798 268.404C63.2931 268.372 63.2968 268.337 63.2905 268.303C63.2842 268.269 63.2682 268.238 63.2444 268.213C63.0883 268.089 62.8955 268.022 62.6971 268.022C62.4986 268.022 62.3059 268.089 62.1498 268.213C62.0616 268.281 61.9891 268.367 61.937 268.466C61.9016 268.533 61.8927 268.578 61.9016 268.578C61.9767 268.455 62.0744 268.347 62.1896 268.262C62.3202 268.17 62.4738 268.117 62.6328 268.11C62.8268 268.093 63.0201 268.15 63.1735 268.27C63.2355 268.337 63.1735 268.408 63.0981 268.435C63.0057 268.462 62.9105 268.476 62.8145 268.48C62.6493 268.493 62.4834 268.493 62.3182 268.48C62.0523 268.48 61.875 268.444 61.875 268.457Z" fill="#2B3085"/>
<path d="M61.986 268.502C61.986 268.502 62.0836 268.417 62.1014 268.217C62.1147 268.1 62.0963 267.981 62.0481 267.874C62.0214 267.799 61.9766 267.732 61.9178 267.678C61.859 267.624 61.7879 267.586 61.7109 267.567C61.6876 267.565 61.6643 267.569 61.6423 267.577C61.6203 267.585 61.6001 267.597 61.5828 267.612C61.5655 267.628 61.5514 267.647 61.5414 267.668C61.5315 267.69 61.5257 267.712 61.5246 267.736C61.5194 267.807 61.5316 267.879 61.5601 267.945C61.6014 268.053 61.655 268.156 61.7198 268.252C61.7776 268.346 61.8548 268.427 61.9461 268.488C61.9461 268.488 61.8706 268.39 61.7775 268.226C61.7204 268.13 61.6743 268.029 61.6399 267.923C61.5956 267.816 61.5911 267.642 61.7109 267.651C61.8307 267.66 61.9195 267.798 61.9727 267.901C62.02 267.997 62.0428 268.105 62.0392 268.212C62.0307 268.31 62.0129 268.407 61.986 268.502Z" fill="#2B3085"/>
<path d="M54.332 266.294C54.332 266.294 54.5403 266.32 54.855 266.432C55.2633 266.569 55.6286 266.811 55.9141 267.135C56.1838 267.453 56.3603 267.84 56.4238 268.253C56.4725 268.569 56.4238 268.761 56.4548 268.765C56.4715 268.722 56.482 268.677 56.4858 268.631C56.5016 268.504 56.5016 268.376 56.4858 268.248C56.4394 267.818 56.2631 267.413 55.9806 267.086C55.6854 266.749 55.3014 266.502 54.8727 266.374C54.7441 266.334 54.612 266.308 54.4783 266.294C54.4299 266.285 54.3804 266.285 54.332 266.294Z" fill="#2B3085"/>
<path d="M57.5078 268.342C57.8334 268.497 58.1774 268.609 58.5315 268.676C58.8783 268.772 59.2355 268.826 59.5951 268.836C59.5951 268.814 59.1254 268.734 58.5492 268.596C57.9731 268.458 57.5167 268.342 57.5078 268.342Z" fill="#2B3085"/>
<path d="M56.1016 268.035C56.1016 268.035 56.1016 268.137 56.1461 268.248C56.1906 268.36 56.1773 268.453 56.204 268.458C56.2307 268.462 56.2619 268.36 56.2307 268.235C56.1995 268.11 56.1194 268.021 56.1016 268.035Z" fill="#2B3085"/>
<path d="M55.707 267.3C55.707 267.3 55.707 267.393 55.7783 267.478C55.8495 267.562 55.8985 267.625 55.9208 267.616C55.943 267.607 55.9208 267.522 55.8495 267.438C55.7783 267.353 55.7293 267.286 55.707 267.3Z" fill="#2B3085"/>
<path d="M55.0117 266.845C55.0117 266.867 55.1093 266.889 55.2069 266.947C55.3045 267.005 55.3666 267.076 55.3888 267.068C55.411 267.059 55.3888 266.947 55.2513 266.876C55.1138 266.805 55.0117 266.823 55.0117 266.845Z" fill="#2B3085"/>
<path d="M54.5039 266.591C54.5039 266.591 54.5039 266.653 54.5796 266.689C54.6553 266.725 54.6909 266.738 54.7043 266.716C54.7176 266.693 54.7043 266.653 54.6286 266.618C54.5529 266.582 54.5173 266.56 54.5039 266.591Z" fill="#2B3085"/>
<path d="M82.6978 130.039C82.5116 129.509 82.0685 129.113 81.8513 128.596C81.5278 127.822 81.7627 126.944 81.8513 126.112C81.9399 125.279 81.7671 124.264 81.0049 123.921C80.6746 123.834 80.3504 123.726 80.0343 123.596C79.4405 123.222 79.4715 122.376 79.4183 121.677C79.3831 121.214 79.2645 120.761 79.0682 120.341L79.1923 120.301C79.642 120.191 80.1156 120.244 80.5304 120.45C80.9452 120.656 81.2747 121.002 81.4613 121.427C81.5425 121.605 81.5777 121.801 81.5637 121.996C81.5498 122.192 81.4871 122.38 81.3816 122.545C81.2903 122.682 81.1559 122.784 81 122.835C80.8441 122.886 80.6757 122.882 80.5218 122.826C80.4021 122.764 80.3063 122.664 80.2493 122.541C80.1924 122.419 80.1775 122.281 80.2072 122.149C80.2443 122.054 80.3124 121.975 80.4003 121.925C80.4881 121.875 80.5904 121.856 80.6902 121.873C80.7578 121.879 80.8234 121.899 80.8828 121.932C80.9423 121.965 80.9944 122.01 81.0359 122.064C81.0846 122.144 81.0891 122.202 81.1024 122.198C81.1157 122.193 81.1245 122.14 81.1024 122.042C81.0659 121.97 81.0131 121.909 80.9485 121.861C80.8838 121.814 80.809 121.783 80.7301 121.77C80.6145 121.749 80.4954 121.758 80.3844 121.797C80.3161 121.822 80.2544 121.862 80.2037 121.915C80.1531 121.967 80.1149 122.03 80.092 122.1C80.0403 122.268 80.0483 122.448 80.1146 122.611C80.1809 122.773 80.3014 122.907 80.4553 122.99C80.6494 123.076 80.8669 123.091 81.0711 123.035C81.2753 122.978 81.4538 122.852 81.5765 122.679C81.7096 122.486 81.7916 122.262 81.8149 122.028C81.8382 121.794 81.8019 121.558 81.7095 121.343C81.5198 120.895 81.1892 120.521 80.7681 120.28C80.3471 120.039 79.8589 119.943 79.3785 120.007C79.4827 119.83 79.5488 119.633 79.5725 119.429C79.5962 119.225 79.5769 119.018 79.5158 118.822C79.4343 118.584 79.2998 118.366 79.1225 118.187C78.9451 118.008 78.7296 117.872 78.4921 117.789C78.0761 117.636 77.6238 117.611 77.1936 117.718C76.8297 117.807 76.4835 117.958 76.1699 118.163C75.8819 118.35 75.6603 118.555 75.4431 118.693C75.2663 118.82 75.0605 118.899 74.8449 118.925C74.6592 118.94 74.4731 118.901 74.3086 118.814C74.3086 118.814 74.446 119.027 74.8537 119.027C75.0904 119.021 75.3206 118.949 75.5185 118.818C75.7578 118.684 75.9882 118.484 76.2674 118.319C76.5753 118.105 76.9281 117.965 77.2986 117.91C77.6691 117.855 78.0472 117.887 78.4035 118.003C78.6048 118.077 78.7871 118.195 78.9367 118.349C79.0863 118.504 79.1994 118.69 79.2677 118.894C79.3333 119.101 79.3394 119.322 79.2853 119.532C79.2312 119.743 79.1191 119.933 78.9619 120.083C78.7373 119.672 78.4066 119.331 78.0046 119.094C77.1183 118.591 75.7888 118.836 75.3457 119.753L68.0733 117.242C67.6174 116.857 67.0723 116.593 66.4883 116.476C65.9043 116.358 65.3002 116.39 64.7319 116.569L64.5812 116.543C64.1612 116.5 63.7375 116.571 63.3536 116.747C62.8677 117.018 62.4435 117.388 62.1083 117.834C61.9096 118.066 61.6728 118.262 61.4081 118.413C61.3644 118.437 61.3183 118.456 61.2707 118.471C60.9486 118.507 60.6241 118.519 60.3002 118.506C59.6886 118.364 59.0549 118.012 58.3015 117.936C57.8789 117.88 57.4492 117.91 57.0385 118.025C56.6051 118.151 56.2163 118.398 55.9173 118.738C55.5963 119.102 55.4224 119.574 55.4298 120.06C55.4334 120.403 55.4872 120.744 55.5894 121.071C55.4259 121.512 55.3535 121.982 55.3766 122.452C55.4077 123.07 55.5849 123.716 55.5894 124.326C55.4133 124.467 55.2116 124.571 54.9955 124.633C54.6144 124.754 54.2023 124.812 53.8123 124.963C53.4469 125.112 53.1175 125.337 52.8461 125.624C52.5748 125.912 52.3678 126.254 52.239 126.628C52.119 126.928 52.0743 127.252 52.1091 127.573C52.1439 127.894 52.257 128.201 52.4385 128.467C52.3431 128.874 52.3394 129.297 52.4276 129.705C52.5158 130.114 52.6936 130.497 52.9481 130.827C53.353 131.212 53.7348 131.621 54.0915 132.052C54.5656 132.796 54.4992 133.753 54.6188 134.63C54.7385 135.507 55.2481 136.5 56.13 136.558C56.8391 136.607 57.4595 136.006 58.1863 136.068C59.179 136.149 59.5867 137.346 60.1628 138.166C60.5344 138.68 61.0361 139.085 61.6158 139.338C62.1956 139.592 62.8323 139.685 63.46 139.608C64.3463 139.484 65.2636 139.007 66.1455 139.23C67.2579 139.515 67.9182 140.824 69.0616 141.011C69.908 141.131 70.6924 140.566 71.3173 139.987C71.9421 139.408 72.5847 138.74 73.4267 138.589C74.4372 138.406 75.4121 139.034 76.4314 139.159C77.0924 139.239 77.7622 139.121 78.3572 138.821C78.9522 138.521 79.4461 138.051 79.7773 137.471C80.3401 136.451 80.3357 135.2 80.8586 134.163C81.2621 133.502 81.7062 132.867 82.1881 132.261C82.6446 131.593 82.9548 130.774 82.6978 130.039ZM53.5375 126.74C53.4557 126.722 53.3711 126.722 53.2893 126.74C53.2893 126.74 53.3602 126.74 53.4843 126.789L53.3514 126.891C52.9364 127.238 52.6366 127.704 52.4916 128.227C52.3808 127.99 52.3196 127.734 52.312 127.472C52.3044 127.211 52.3504 126.951 52.4473 126.708C52.5681 126.367 52.7598 126.056 53.0096 125.795C53.2595 125.534 53.5618 125.329 53.8965 125.194C54.2554 125.061 54.6587 125.003 55.0709 124.878C55.2488 124.826 55.4187 124.75 55.5761 124.651C55.553 124.893 55.4822 125.128 55.3678 125.341C54.9867 126.018 54.1801 126.294 53.5375 126.74ZM58.501 118.546C57.9143 118.662 57.3629 118.915 56.8911 119.283C56.4192 119.652 56.0402 120.127 55.7844 120.67C55.7317 120.471 55.7005 120.266 55.6913 120.06C55.6892 119.644 55.839 119.242 56.1123 118.929C56.3855 118.64 56.7248 118.421 57.1009 118.293C57.477 118.165 57.8784 118.131 58.2705 118.195C58.6802 118.248 59.0819 118.352 59.4671 118.502C59.144 118.496 58.821 118.516 58.501 118.56V118.546ZM62.1482 118.239C62.0583 118.276 61.9666 118.309 61.8734 118.337C62.0052 118.22 62.1295 118.095 62.2457 117.963C62.5573 117.53 62.9521 117.163 63.4068 116.885C63.7402 116.721 64.1081 116.64 64.4792 116.649C64.2895 116.724 64.107 116.817 63.9342 116.925C63.3182 117.34 62.8174 117.941 62.1482 118.252V118.239Z" fill="#2B3085"/>
<path d="M77.9116 133.548C78.2572 131.357 78.1465 127.759 77.9648 124.816C77.9258 124.188 77.7608 123.575 77.4799 123.014C77.1989 122.452 76.8077 121.954 76.3299 121.548C75.8521 121.142 75.2975 120.838 74.6996 120.654C74.1016 120.469 73.4727 120.408 72.8506 120.474L65.2326 121.285C64.8484 121.326 64.4934 121.51 64.2375 121.801C63.9816 122.092 63.8434 122.468 63.85 122.856L64.6477 141.661H62.875V145.063C62.875 146.934 63.6146 148.728 64.931 150.05C66.2475 151.373 68.033 152.116 69.8947 152.116C71.7565 152.116 73.542 151.373 74.8584 150.05C76.1749 148.728 76.9145 146.934 76.9145 145.063V142.12C76.9145 142.12 75.0886 141.518 73.9807 141.581H73.7059C73.7059 139.857 73.8478 138.508 73.8478 138.508C73.8478 138.508 77.2158 137.961 77.9116 133.548Z" fill="#FFBE9D"/>
<path d="M76.8204 127.675C76.8228 127.822 76.7675 127.965 76.6663 128.071C76.5652 128.178 76.4263 128.24 76.2798 128.245C76.208 128.25 76.1359 128.241 76.0677 128.219C75.9995 128.196 75.9365 128.159 75.8824 128.112C75.8283 128.064 75.7843 128.006 75.7528 127.941C75.7214 127.876 75.7031 127.805 75.6992 127.733C75.7036 127.59 75.7618 127.454 75.8622 127.352C75.9625 127.25 76.0975 127.191 76.2399 127.185C76.3812 127.174 76.5213 127.219 76.6299 127.311C76.7385 127.402 76.8069 127.533 76.8204 127.675Z" fill="#2B3085"/>
<path d="M77.1893 126.69C77.1184 126.762 76.6929 126.446 76.0858 126.446C75.4787 126.446 75.0355 126.753 74.969 126.677C74.9026 126.601 75.0089 126.512 75.2039 126.37C75.465 126.19 75.7739 126.094 76.0902 126.094C76.4083 126.092 76.7186 126.192 76.9766 126.379C77.1583 126.521 77.2203 126.655 77.1893 126.69Z" fill="#2B3085"/>
<path d="M70.8991 127.675C70.8992 127.822 70.8425 127.964 70.7408 128.07C70.6392 128.177 70.5006 128.239 70.354 128.245C70.2822 128.25 70.2101 128.241 70.1419 128.219C70.0737 128.196 70.0107 128.159 69.9566 128.112C69.9025 128.064 69.8585 128.006 69.827 127.941C69.7956 127.876 69.7774 127.805 69.7734 127.733C69.7789 127.589 69.8381 127.453 69.9392 127.352C70.0402 127.25 70.1757 127.191 70.3185 127.185C70.4599 127.174 70.6 127.219 70.7086 127.311C70.8171 127.402 70.8856 127.533 70.8991 127.675Z" fill="#2B3085"/>
<path d="M71.2323 126.802C71.1614 126.878 70.7315 126.562 70.1288 126.562C69.5261 126.562 69.0785 126.869 69.012 126.794C68.9455 126.718 69.0519 126.629 69.2469 126.486C69.5061 126.303 69.8162 126.206 70.1332 126.21C70.4519 126.204 70.7635 126.305 71.0195 126.495C71.2012 126.638 71.2633 126.771 71.2323 126.802Z" fill="#2B3085"/>
<path d="M73.43 131.317C73.7492 131.217 74.0797 131.157 74.4138 131.139C74.5689 131.139 74.7151 131.094 74.7417 130.987C74.7494 130.832 74.7125 130.677 74.6354 130.542C74.4936 130.168 74.3385 129.772 74.1922 129.358C73.7677 128.348 73.4239 127.305 73.1641 126.241C73.235 126.214 73.8022 127.576 74.4404 129.246L74.8835 130.44C74.9789 130.628 75.007 130.843 74.9633 131.05C74.9402 131.105 74.9051 131.153 74.8606 131.193C74.8161 131.232 74.7633 131.261 74.7063 131.277C74.6207 131.298 74.533 131.31 74.4448 131.312C74.1081 131.358 73.767 131.359 73.43 131.317Z" fill="#2B3085"/>
<path d="M73.8456 138.523C71.778 138.554 69.7421 138.008 67.9648 136.946C67.9648 136.946 69.3918 139.979 73.788 139.565L73.8456 138.523Z" fill="#EB996E"/>
<path d="M73.173 132.787C73.0577 132.64 72.9073 132.526 72.736 132.455C72.5647 132.383 72.378 132.356 72.1936 132.377C72.06 132.39 71.9302 132.429 71.8122 132.494C71.6942 132.558 71.5903 132.645 71.5067 132.751C71.4256 132.852 71.3773 132.975 71.3686 133.104C71.3599 133.233 71.3911 133.362 71.458 133.472C71.5551 133.582 71.6824 133.659 71.8236 133.696C71.9648 133.732 72.1137 133.726 72.2512 133.677C72.5353 133.579 72.7985 133.428 73.0268 133.232C73.0952 133.182 73.1539 133.121 73.1996 133.049C73.2213 133.015 73.2329 132.976 73.2329 132.936C73.2329 132.895 73.2213 132.856 73.1996 132.822" fill="#EB996E"/>
<path d="M71.6426 131.74C71.7445 131.74 71.7445 132.395 72.3073 132.862C72.8702 133.33 73.5704 133.259 73.5748 133.352C73.5792 133.446 73.4197 133.481 73.1316 133.49C72.7458 133.494 72.3709 133.362 72.0725 133.116C71.7863 132.882 71.6019 132.545 71.5584 132.177C71.5274 131.901 71.5983 131.736 71.6426 131.74Z" fill="#2B3085"/>
<path d="M71.5035 125.739C71.4458 125.903 70.8387 125.823 70.1296 125.912C69.4206 126.001 68.8445 126.193 68.747 126.041C68.7071 125.97 68.8046 125.819 69.0395 125.658C69.3444 125.455 69.6946 125.332 70.0587 125.298C70.4225 125.251 70.792 125.294 71.1356 125.422C71.3971 125.529 71.53 125.658 71.5035 125.739Z" fill="#2B3085"/>
<path d="M76.9615 125.444C76.8551 125.582 76.4385 125.444 75.9377 125.444C75.437 125.444 75.0115 125.538 74.914 125.391C74.8697 125.319 74.914 125.181 75.1223 125.052C75.3718 124.895 75.662 124.816 75.9562 124.825C76.2504 124.834 76.5355 124.93 76.7753 125.101C76.9526 125.235 77.0102 125.377 76.9615 125.444Z" fill="#2B3085"/>
<path d="M79.5965 120.879C79.2951 119.704 78.4088 118.617 77.2211 118.395C76.4456 118.252 75.6523 118.479 74.8635 118.43C74.2164 118.39 73.9771 117.869 73.3656 117.664C72.333 117.326 71.5442 116.177 69.3239 116.418C68.7345 116.484 67.9678 117.17 67.4271 117.958C66.5763 117.589 65.4551 117.985 64.8435 118.257C63.5716 118.813 62.7783 120.252 62.5257 121.712C62.2731 123.173 62.4814 124.673 62.6853 126.165L62.9645 128.178C63.0021 128.624 63.1224 129.058 63.319 129.46L62.3086 138.9C62.8138 139.063 63.3466 139.12 63.8746 139.069C64.4026 139.018 64.9147 138.859 65.3796 138.602C65.8445 138.345 66.2525 137.996 66.5786 137.576C66.9047 137.156 67.1422 136.673 67.2765 136.157C67.6709 134.3 66.6427 132.412 66.8067 130.52C66.8998 129.393 67.5335 128.347 67.5291 127.216C67.5255 126.844 67.4733 126.474 67.374 126.116C69.1466 124.66 69.6164 123.489 69.541 122.108C70.0881 122.493 70.7351 122.708 71.4023 122.727C72.3418 122.727 73.3168 122.371 74.1987 122.727C74.8324 122.968 75.28 123.524 75.7631 124.001C76.2461 124.477 76.871 124.923 77.5357 124.829C77.8547 124.753 78.1651 124.644 78.462 124.504C78.6094 124.434 78.7706 124.397 78.9339 124.397C79.0972 124.397 79.2584 124.434 79.4059 124.504C79.769 123.331 79.8345 122.085 79.5965 120.879Z" fill="#2B3085"/>
<path d="M53.3442 130.547C53.7979 130.879 54.2869 131.16 54.8022 131.384C55.406 131.64 56.0528 131.777 56.7078 131.789C57.5734 131.812 58.4234 131.555 59.132 131.055C59.56 130.759 59.9214 130.377 60.1924 129.932C60.4635 129.487 60.6382 128.989 60.7052 128.472C60.7697 127.898 60.6535 127.319 60.3728 126.815C60.2256 126.558 60.0167 126.342 59.7652 126.186C59.5137 126.031 59.2274 125.941 58.9325 125.925C58.6302 125.918 58.3348 126.016 58.095 126.201C57.8553 126.404 57.6785 126.671 57.5853 126.971C57.4807 127.281 57.4568 127.613 57.5157 127.935C57.5747 128.257 57.7146 128.558 57.9221 128.81C58.3729 129.339 58.9826 129.706 59.6593 129.857C60.3576 130.023 61.0837 130.034 61.7865 129.888C62.4921 129.746 63.1551 129.441 63.7231 128.997C64.2607 128.576 64.6724 128.014 64.9132 127.373C65.1539 126.732 65.2144 126.037 65.0881 125.364C65.024 125.052 64.9134 124.752 64.7602 124.473C64.6168 124.196 64.4121 123.955 64.1619 123.77C63.9295 123.586 63.6463 123.478 63.3509 123.462C63.2138 123.458 63.0781 123.491 62.9585 123.558C62.8389 123.626 62.7401 123.725 62.6728 123.845C62.5423 124.09 62.5106 124.375 62.5842 124.642C62.6682 124.908 62.8212 125.146 63.0274 125.333C63.4189 125.675 63.8776 125.931 64.3737 126.085C64.8699 126.238 65.3925 126.285 65.9079 126.223C66.7697 126.142 67.575 125.757 68.1814 125.137C68.638 124.664 68.9727 124.086 69.1563 123.453C69.3057 122.912 69.3523 122.347 69.2937 121.788C69.3347 121.933 69.3585 122.083 69.3646 122.233C69.3942 122.657 69.3538 123.083 69.245 123.494C69.0729 124.149 68.7408 124.75 68.2789 125.244C67.6569 125.9 66.8226 126.312 65.9257 126.406C65.3858 126.479 64.8366 126.438 64.3136 126.285C63.7906 126.131 63.3056 125.869 62.89 125.515C62.6604 125.304 62.4919 125.035 62.4025 124.736C62.31 124.416 62.3466 124.072 62.5044 123.779C62.5896 123.627 62.7141 123.5 62.8646 123.413C63.0151 123.326 63.1861 123.282 63.3598 123.284C63.704 123.299 64.0353 123.42 64.3081 123.632C64.5837 123.835 64.8095 124.098 64.9684 124.402C65.14 124.705 65.2599 125.034 65.323 125.377C65.4625 126.079 65.4073 126.806 65.1634 127.479C64.9152 128.181 64.4743 128.799 63.8916 129.26C63.2927 129.723 62.5948 130.04 61.853 130.186C61.1201 130.333 60.3643 130.319 59.6372 130.146C58.8902 129.977 58.2211 129.561 57.736 128.966C57.5037 128.68 57.3508 128.338 57.2928 127.973C57.236 127.617 57.2649 127.252 57.377 126.909C57.4826 126.56 57.6875 126.251 57.9664 126.018C58.2462 125.801 58.5923 125.688 58.9458 125.698C59.2789 125.716 59.602 125.818 59.8849 125.996C60.1678 126.173 60.4012 126.42 60.5634 126.713C60.8659 127.254 60.9871 127.879 60.909 128.494C60.8349 129.037 60.6474 129.558 60.3587 130.023C60.07 130.488 59.6867 130.887 59.2339 131.193C58.4923 131.707 57.6036 131.963 56.7034 131.923C56.0337 131.903 55.3742 131.752 54.7624 131.478C54.3764 131.31 54.0119 131.096 53.6766 130.841C53.5614 130.756 53.4816 130.68 53.424 130.636C53.3664 130.591 53.3398 130.551 53.3442 130.547Z" fill="#2B3085"/>
<path d="M79.8522 122.875C79.7929 122.937 79.7221 122.987 79.6439 123.022C79.4251 123.143 79.1889 123.23 78.9437 123.28C78.5563 123.359 78.1568 123.359 77.7694 123.28C77.2543 123.16 76.7775 122.912 76.3823 122.559C75.8988 122.126 75.5224 121.587 75.2832 120.982C75.2036 120.811 75.1594 120.625 75.1533 120.436C75.1472 120.247 75.1793 120.059 75.2478 119.882C75.3289 119.69 75.4748 119.532 75.6599 119.437C75.758 119.387 75.8666 119.36 75.9768 119.36C76.0869 119.36 76.1955 119.387 76.2936 119.437C76.4832 119.549 76.6299 119.722 76.7103 119.928C76.7906 120.134 76.7999 120.361 76.7368 120.573C76.6599 120.78 76.5416 120.969 76.3892 121.128C76.2367 121.287 76.0534 121.414 75.8505 121.499C75.4462 121.674 75.0114 121.768 74.571 121.774C74.1307 121.78 73.6935 121.699 73.2845 121.534C72.8708 121.388 72.474 121.197 72.1013 120.964C71.7273 120.749 71.3881 120.477 71.0953 120.159C70.9379 119.991 70.8421 119.774 70.8235 119.544C70.805 119.314 70.8649 119.085 70.9934 118.894C71.0684 118.802 71.1671 118.732 71.2788 118.692C71.3905 118.652 71.5109 118.643 71.6271 118.667C71.842 118.713 72.0335 118.835 72.1678 119.01C72.2361 119.094 72.287 119.19 72.3175 119.294C72.3479 119.398 72.3573 119.508 72.345 119.615C72.3153 119.818 72.2293 120.008 72.0969 120.163C71.8489 120.449 71.4985 120.625 71.1219 120.653C70.7857 120.677 70.4482 120.633 70.1292 120.524C69.8405 120.432 69.5578 120.321 69.2828 120.194C68.7946 119.991 68.3682 119.662 68.0463 119.241C67.8107 118.91 67.6978 118.507 67.7273 118.101C67.7405 117.847 67.8302 117.604 67.9843 117.402C68.0373 117.332 68.1036 117.273 68.1793 117.229C67.9538 117.47 67.8259 117.788 67.8203 118.119C67.8201 118.502 67.9516 118.873 68.1926 119.17C68.5089 119.567 68.9229 119.874 69.3936 120.061C69.9428 120.34 70.5506 120.483 71.1662 120.479C71.4915 120.447 71.7908 120.287 71.9994 120.034C72.1148 119.918 72.1843 119.763 72.1949 119.599C72.2055 119.436 72.1565 119.273 72.057 119.143C71.862 118.881 71.4365 118.765 71.2327 119.036C71.1332 119.175 71.0918 119.348 71.1175 119.517C71.1434 119.698 71.2203 119.868 71.339 120.007C71.6191 120.299 71.9383 120.551 72.2874 120.755C72.6447 120.978 73.0251 121.162 73.4219 121.303C73.7997 121.461 74.2048 121.542 74.614 121.542C75.0232 121.542 75.4284 121.461 75.8061 121.303C75.9776 121.231 76.1328 121.125 76.2623 120.991C76.3918 120.857 76.4929 120.698 76.5595 120.524C76.613 120.358 76.6083 120.18 76.5462 120.018C76.484 119.855 76.3683 119.72 76.2183 119.633C76.1478 119.601 76.0713 119.584 75.9939 119.584C75.9165 119.583 75.8398 119.599 75.7688 119.63C75.6978 119.661 75.6341 119.707 75.5818 119.764C75.5294 119.821 75.4896 119.889 75.4649 119.963C75.4074 120.113 75.3805 120.273 75.3858 120.433C75.3911 120.594 75.4286 120.752 75.4959 120.898C75.717 121.467 76.064 121.979 76.5108 122.394C76.8899 122.738 77.3459 122.986 77.8403 123.115C78.2094 123.21 78.5936 123.229 78.9703 123.173C79.2761 123.113 79.5726 123.013 79.8522 122.875Z" fill="#2B3085"/>
<path d="M67.0552 133.232C66.9999 133.292 66.9356 133.344 66.8646 133.384C66.6704 133.513 66.4517 133.601 66.222 133.642C65.8559 133.717 65.4764 133.693 65.123 133.571C64.8836 133.498 64.6623 133.375 64.4737 133.21C64.285 133.045 64.1333 132.841 64.0283 132.613C63.9555 132.467 63.9326 132.3 63.963 132.139C63.9934 131.979 64.0755 131.832 64.1967 131.723C64.3332 131.617 64.5008 131.56 64.6731 131.56C64.8455 131.56 65.0131 131.617 65.1496 131.723C65.4223 131.949 65.6295 132.245 65.7495 132.58C65.8696 132.914 65.8981 133.275 65.832 133.624C65.7868 134.012 65.6453 134.381 65.4208 134.7C65.1962 135.018 64.8957 135.274 64.5468 135.445C64.1644 135.607 63.7493 135.675 63.3356 135.644C62.9219 135.613 62.5215 135.484 62.1671 135.267C61.8001 135.06 61.4872 134.769 61.2541 134.417C61.1357 134.24 61.0552 134.041 61.0178 133.832C60.9804 133.623 60.9869 133.408 61.037 133.201C61.0902 132.994 61.1991 132.806 61.3516 132.658C61.4289 132.582 61.5204 132.523 61.6209 132.483C61.7213 132.443 61.8287 132.424 61.9366 132.426C62.1354 132.447 62.3256 132.519 62.4892 132.634C62.6529 132.749 62.7845 132.905 62.8717 133.085C63.0366 133.408 63.1246 133.765 63.1287 134.127C63.1455 134.461 63.1141 134.796 63.0357 135.12C62.8963 135.711 62.5882 136.248 62.1493 136.665C61.8357 136.97 61.4396 137.174 61.0108 137.254C60.5819 137.333 60.1394 137.283 59.7385 137.111C59.5241 137.017 59.3288 136.884 59.1624 136.719C59.1023 136.665 59.0514 136.602 59.0117 136.532C59.2379 136.735 59.4953 136.901 59.774 137.022C60.1044 137.147 60.46 137.191 60.811 137.151C61.2848 137.094 61.7255 136.878 62.0607 136.536C62.4612 136.135 62.7381 135.627 62.8584 135.071C62.93 134.764 62.9568 134.447 62.9382 134.132C62.9286 133.804 62.8453 133.483 62.6944 133.192C62.6226 133.047 62.5148 132.923 62.3813 132.831C62.2477 132.74 62.0931 132.685 61.9322 132.671C61.7689 132.681 61.6137 132.746 61.4922 132.856C61.3706 132.966 61.2898 133.115 61.263 133.277C61.2222 133.451 61.2181 133.633 61.2509 133.809C61.2837 133.985 61.3527 134.153 61.4536 134.301C61.6694 134.619 61.9543 134.884 62.2867 135.076C62.6088 135.272 62.9723 135.39 63.348 135.419C63.7236 135.448 64.1009 135.389 64.4493 135.245C64.7639 135.09 65.0349 134.859 65.2377 134.572C65.4404 134.285 65.5686 133.951 65.6104 133.602C65.6736 133.293 65.6539 132.973 65.5535 132.674C65.4531 132.375 65.2754 132.108 65.0388 131.901C64.9347 131.82 64.8069 131.776 64.6754 131.776C64.5438 131.776 64.416 131.82 64.312 131.901C64.2239 131.985 64.1644 132.095 64.1421 132.215C64.1198 132.335 64.1359 132.459 64.1879 132.569C64.281 132.778 64.4166 132.965 64.5861 133.119C64.7555 133.272 64.955 133.388 65.1717 133.459C65.5013 133.583 65.8566 133.619 66.2043 133.566C66.5042 133.503 66.7917 133.39 67.0552 133.232Z" fill="#2B3085"/>
<path d="M48.75 241.477C48.75 241.477 51.7103 247.266 59.4436 244.451C59.4436 244.451 67.0128 248.584 74.2497 243.957C74.2497 243.957 83.6271 245.217 88.7279 242.737L82.1646 185.9L81.3359 177.173H60.6578C60.6578 177.173 54.5111 179.983 53.5273 193.702C52.5435 207.421 50.3986 226.266 50.3986 226.266L48.75 241.477Z" fill="#2B3085"/>
<path d="M73.8102 244.131C73.799 244.074 73.7916 244.016 73.7881 243.958C73.7881 243.833 73.7615 243.668 73.7438 243.455C73.7083 243.009 73.6596 242.346 73.5931 241.513C73.4646 239.83 73.305 237.39 73.1499 234.388C72.791 228.355 72.4098 220.015 72.206 210.788C72.0021 201.562 72.0331 193.213 72.1306 187.166C72.175 184.147 72.2326 181.702 72.2858 180.014C72.3168 179.177 72.3389 178.527 72.3522 178.068C72.3522 177.855 72.3522 177.685 72.3522 177.561C72.3475 177.505 72.3475 177.448 72.3522 177.392C72.3561 177.448 72.3561 177.504 72.3522 177.561V178.068C72.3522 178.514 72.3522 179.182 72.3522 180.014C72.3301 181.715 72.3035 184.16 72.268 187.17C72.2104 193.213 72.2148 201.562 72.4143 210.77C72.6137 219.979 72.9682 228.328 73.3006 234.371C73.4646 237.381 73.5975 239.817 73.6906 241.518C73.7393 242.35 73.7748 243.005 73.7969 243.459C73.7969 243.673 73.7969 243.842 73.8191 243.967C73.8215 244.022 73.8185 244.077 73.8102 244.131Z" fill="#2B3085"/>
<path d="M75.6251 227.874C75.6251 227.874 75.6694 227.812 75.7891 227.78C75.9582 227.743 76.1349 227.765 76.2899 227.843C76.4093 227.901 76.5143 227.985 76.5971 228.089C76.68 228.193 76.7385 228.314 76.7685 228.444C76.7845 228.61 76.7523 228.777 76.6758 228.925C76.5993 229.073 76.4818 229.196 76.3374 229.278C76.1931 229.361 76.0281 229.399 75.8624 229.389C75.6967 229.38 75.5373 229.322 75.4035 229.223C75.3063 229.133 75.2313 229.021 75.1844 228.897C75.1375 228.772 75.12 228.639 75.1332 228.506C75.1449 228.331 75.217 228.166 75.337 228.039C75.4213 227.954 75.4877 227.936 75.4966 227.945C75.376 228.111 75.3067 228.31 75.2972 228.515C75.2954 228.619 75.3163 228.722 75.3584 228.816C75.4006 228.911 75.4628 228.995 75.5409 229.063C75.6418 229.131 75.7606 229.167 75.8821 229.167C76.0037 229.167 76.1225 229.131 76.2234 229.063C76.3329 229.008 76.4234 228.922 76.4827 228.814C76.5421 228.707 76.5676 228.584 76.5557 228.462C76.5379 228.36 76.4981 228.263 76.4391 228.179C76.3802 228.094 76.3035 228.024 76.2145 227.972C76.0325 227.88 75.8269 227.846 75.6251 227.874Z" fill="#2B3085"/>
<path d="M75.1661 210.983C75.1661 210.983 75.2104 210.926 75.3256 210.89C75.4967 210.855 75.6746 210.878 75.8308 210.957C75.9494 211.015 76.0536 211.099 76.1356 211.203C76.2177 211.307 76.2755 211.429 76.305 211.558C76.3277 211.726 76.2971 211.897 76.2175 212.046C76.1379 212.196 76.0135 212.316 75.8618 212.391C75.7196 212.48 75.5533 212.523 75.3859 212.513C75.2184 212.504 75.058 212.442 74.9268 212.337C74.8298 212.247 74.755 212.135 74.7081 212.01C74.6612 211.886 74.6435 211.753 74.6564 211.62C74.667 211.445 74.7392 211.279 74.8603 211.153C74.9489 211.064 75.0154 211.05 75.0198 211.059C74.901 211.225 74.8318 211.421 74.8204 211.625C74.8204 211.728 74.8421 211.83 74.8841 211.925C74.9261 212.019 74.9875 212.103 75.0641 212.172C75.1646 212.242 75.2835 212.279 75.4054 212.279C75.5272 212.279 75.6462 212.242 75.7466 212.172C75.8562 212.118 75.9469 212.031 76.0069 211.924C76.0669 211.817 76.0936 211.694 76.0834 211.571C76.0648 211.469 76.0242 211.373 75.9645 211.288C75.9048 211.203 75.8274 211.133 75.7378 211.081C75.5595 210.998 75.3619 210.964 75.1661 210.983Z" fill="#2B3085"/>
<path d="M74.8965 196.058C74.8965 196.058 74.9409 196 75.0561 195.969C75.2265 195.929 75.4055 195.951 75.5613 196.031C75.6836 196.089 75.7904 196.175 75.8728 196.283C75.9553 196.39 76.0111 196.516 76.0355 196.65C76.0581 196.818 76.0275 196.989 75.948 197.138C75.8684 197.288 75.7439 197.408 75.5923 197.483C75.4501 197.572 75.2838 197.615 75.1163 197.605C74.9489 197.596 74.7885 197.534 74.6572 197.429C74.5603 197.339 74.4855 197.227 74.4386 197.102C74.3917 196.978 74.374 196.845 74.3869 196.712C74.4025 196.545 74.4744 196.388 74.5908 196.267C74.6794 196.178 74.7459 196.165 74.7503 196.173C74.6325 196.34 74.5634 196.535 74.5509 196.739C74.5503 196.842 74.5717 196.945 74.6138 197.039C74.6558 197.134 74.7175 197.218 74.7946 197.287C74.8959 197.353 75.0132 197.389 75.1338 197.393C75.2545 197.397 75.3738 197.367 75.4789 197.308C75.5839 197.248 75.6707 197.16 75.7298 197.055C75.7888 196.949 75.8179 196.829 75.8139 196.708C75.7947 196.605 75.7539 196.508 75.6943 196.423C75.6347 196.338 75.5576 196.266 75.4682 196.214C75.2957 196.109 75.0978 196.055 74.8965 196.058Z" fill="#2B3085"/>
<path d="M74.3708 180.09C74.3708 180.09 74.4107 180.027 74.5304 179.996C74.6995 179.959 74.8762 179.981 75.0311 180.059C75.1506 180.116 75.2556 180.2 75.3384 180.304C75.4213 180.409 75.4798 180.53 75.5098 180.66C75.5267 180.826 75.4952 180.994 75.4191 181.143C75.343 181.291 75.2256 181.415 75.081 181.498C74.9365 181.581 74.7711 181.62 74.6049 181.61C74.4387 181.601 74.2789 181.543 74.1448 181.443C74.0489 181.351 73.9747 181.239 73.9279 181.114C73.8812 180.989 73.8629 180.855 73.8745 180.722C73.8921 180.555 73.9637 180.399 74.0783 180.277C74.1625 180.192 74.2334 180.174 74.2379 180.183C74.1173 180.35 74.048 180.548 74.0385 180.753C74.0367 180.857 74.0576 180.96 74.0997 181.054C74.1418 181.149 74.2041 181.233 74.2822 181.301C74.3841 181.366 74.5015 181.401 74.6219 181.404C74.7424 181.407 74.8613 181.376 74.966 181.316C75.0707 181.257 75.1572 181.169 75.2163 181.064C75.2753 180.958 75.3048 180.839 75.3015 180.718C75.282 180.616 75.241 180.52 75.1814 180.435C75.1218 180.351 75.0449 180.28 74.9558 180.228C74.7796 180.122 74.5753 180.074 74.3708 180.09Z" fill="#2B3085"/>
<path d="M101.344 162.803L205.873 162.042L208.789 233.448L100.551 232.442L101.344 162.803Z" fill="#E8505B"/>
<path d="M101.344 162.808L150.814 122.581C151.831 121.755 153.101 121.307 154.409 121.312C155.716 121.316 156.982 121.774 157.994 122.607L205.855 162.042" fill="#E8505B"/>
<g opacity="0.3">
<path opacity="0.3" d="M101.344 162.808L150.814 122.581C151.831 121.755 153.101 121.307 154.409 121.312C155.716 121.316 156.982 121.774 157.994 122.607L205.855 162.042" fill="#2B3085"/>
</g>
<path d="M100.541 232.443C100.412 232.318 108.779 223.136 119.229 211.937C129.679 200.738 138.263 191.757 138.391 191.899C138.52 192.042 130.157 201.201 119.703 212.382C109.249 223.564 100.682 232.563 100.541 232.443Z" fill="#2B3085"/>
<path d="M208.788 233.448C208.655 233.569 200.505 224.574 190.587 213.361C180.669 202.149 172.737 192.958 172.861 192.838C172.985 192.718 181.139 201.713 191.062 212.929C200.984 224.146 208.921 233.328 208.788 233.448Z" fill="#2B3085"/>
<g opacity="0.5">
<path opacity="0.5" d="M205.873 162.042L153.385 204.175L101.344 162.803" fill="#2B3085"/>
</g>
<path d="M106.609 166.704L106.445 133.904L197.977 132.813L199.009 167.332L153.381 203.623L106.609 166.704Z" fill="#FAFAFA"/>
<path d="M106.608 166.704C106.608 166.704 106.905 166.927 107.468 167.368L109.95 169.309L119.394 176.732L153.438 203.547H153.322L198.924 167.261L198.88 167.354C198.68 160.768 198.476 153.862 198.264 146.835C198.122 142.102 197.984 137.426 197.847 132.84L197.962 132.951L106.431 133.998L106.506 133.922C106.542 144.244 106.568 152.442 106.591 158.061C106.591 160.871 106.591 163.035 106.591 164.5V166.161C106.591 166.535 106.591 166.726 106.591 166.726C106.591 166.726 106.591 166.539 106.591 166.17C106.591 165.8 106.591 165.244 106.591 164.518C106.591 163.053 106.564 160.893 106.542 158.088C106.506 152.459 106.453 144.257 106.387 133.926V133.851H106.462L197.989 132.72H198.104V132.836C198.242 137.418 198.379 142.093 198.521 146.826C198.729 153.858 198.937 160.764 199.132 167.35V167.408L199.088 167.443L153.442 203.721L153.384 203.765L153.327 203.721L119.305 176.79C115.241 173.57 112.064 171.055 109.901 169.336L107.441 167.381C106.887 166.936 106.608 166.704 106.608 166.704Z" fill="#2B3085"/>
<path d="M183.511 149.329C183.511 149.396 169.511 149.534 152.25 149.636C134.988 149.738 120.984 149.778 120.984 149.712C120.984 149.645 134.98 149.511 152.245 149.404C169.511 149.298 183.511 149.266 183.511 149.329Z" fill="#2B3085"/>
<path d="M183.511 158.595C183.511 158.662 169.511 158.8 152.25 158.903C134.988 159.005 120.984 159.041 120.984 158.978C120.984 158.916 134.98 158.778 152.245 158.671C169.511 158.564 183.511 158.533 183.511 158.595Z" fill="#2B3085"/>
<path d="M183.511 169.278C183.511 169.34 169.511 169.478 152.25 169.585C134.988 169.692 120.984 169.723 120.984 169.656C120.984 169.59 134.98 169.456 152.245 169.354C169.511 169.251 183.511 169.211 183.511 169.278Z" fill="#2B3085"/>
<path d="M183.514 179.956C183.514 180.018 170.157 180.152 153.689 180.254C137.221 180.357 123.859 180.384 123.859 180.321C123.859 180.259 137.212 180.121 153.689 180.023C170.166 179.925 183.514 179.894 183.514 179.956Z" fill="#2B3085"/>
<path d="M171.802 189.329C171.681 189.35 171.558 189.359 171.434 189.356L170.384 189.383L166.52 189.45L153.761 189.632C148.775 189.717 144.264 189.743 140.998 189.748H137.129H136.079C135.956 189.757 135.833 189.757 135.711 189.748C135.832 189.728 135.956 189.719 136.079 189.721L137.129 189.694L140.998 189.628L153.757 189.445C158.738 189.361 163.249 189.334 166.515 189.329H170.384H171.434C171.557 189.319 171.68 189.319 171.802 189.329Z" fill="#2B3085"/>
<path d="M160.018 198.342C160.018 198.405 157.035 198.458 153.37 198.458C149.705 198.458 146.723 198.405 146.723 198.342C146.723 198.28 149.705 198.227 153.37 198.227C157.035 198.227 160.018 198.276 160.018 198.342Z" fill="#2B3085"/>
<path d="M190.826 191.067C196.933 191.067 201.883 186.092 201.883 179.957C201.883 173.821 196.933 168.847 190.826 168.847C184.72 168.847 179.77 173.821 179.77 179.957C179.77 186.092 184.72 191.067 190.826 191.067Z" fill="#2B3085"/>
<path d="M187.952 191.067C194.058 191.067 199.008 186.092 199.008 179.957C199.008 173.821 194.058 168.847 187.952 168.847C181.845 168.847 176.895 173.821 176.895 179.957C176.895 186.092 181.845 191.067 187.952 191.067Z" fill="#2B3085"/>
<path d="M189.359 174.786V184.021H187.653V176.22H185.707V174.786H189.359Z" fill="#EBEBEB"/>
<path d="M107.328 118.921H117.437L116.054 117.34V113.56C116.053 112.578 115.664 111.637 114.973 110.943C114.281 110.249 113.344 109.859 112.367 109.859C111.39 109.859 110.453 110.249 109.763 110.943C109.072 111.637 108.684 112.578 108.684 113.56V117.158L107.328 118.921Z" fill="#E8505B"/>
<path d="M110.969 118.422C110.98 118.643 111.038 118.86 111.138 119.057C111.239 119.254 111.38 119.427 111.552 119.566C111.724 119.704 111.923 119.805 112.137 119.86C112.35 119.915 112.573 119.925 112.79 119.887C113.007 119.85 113.214 119.767 113.397 119.643C113.58 119.519 113.735 119.358 113.851 119.17C113.968 118.982 114.043 118.771 114.073 118.552C114.102 118.332 114.085 118.109 114.022 117.896" fill="#E8505B"/>
<path d="M112.946 108.318H111.953V110.438H112.946V108.318Z" fill="#E8505B"/>
<path d="M127.131 111.97C127.104 111.882 127.082 111.793 127.065 111.703C127.02 111.511 126.963 111.258 126.887 110.919C126.795 110.493 126.675 110.074 126.528 109.663C126.44 109.423 126.378 109.151 126.254 108.88C126.129 108.608 126.01 108.319 125.881 108.016C125.206 106.558 124.309 105.215 123.222 104.035C121.66 102.353 119.727 101.062 117.578 100.268C115.429 99.4737 113.124 99.1976 110.849 99.4619C110.177 99.5329 109.511 99.6489 108.855 99.8092C108.518 99.8804 108.195 100.01 107.862 100.112C107.524 100.206 107.194 100.327 106.874 100.473C105.515 101.024 104.25 101.786 103.125 102.73C100.63 104.792 98.8715 107.616 98.117 110.772C97.7142 112.464 97.6166 114.215 97.8289 115.942C98.0119 117.726 98.526 119.46 99.3446 121.054L99.6016 121.535L99.637 121.602V121.668C98.8172 124.34 98.0151 127.012 97.2395 129.563L97.0312 129.372L103.36 126.054L103.439 126.014L103.51 126.068C105.454 127.573 107.737 128.573 110.158 128.98C112.229 129.306 114.345 129.186 116.366 128.629C118.388 128.072 120.268 127.089 121.884 125.747C123.207 124.639 124.334 123.314 125.217 121.829C125.923 120.588 126.467 119.26 126.834 117.879C127.085 116.833 127.234 115.765 127.277 114.691C127.277 114.245 127.277 113.862 127.277 113.52C127.277 113.177 127.224 112.905 127.202 112.669C127.18 112.433 127.171 112.277 127.162 112.148C127.153 112.019 127.162 111.97 127.162 111.97C127.181 112.026 127.191 112.085 127.193 112.144C127.211 112.274 127.233 112.448 127.26 112.665C127.286 112.901 127.322 113.181 127.361 113.515C127.401 113.849 127.361 114.254 127.361 114.695C127.337 115.781 127.203 116.861 126.963 117.919C126.607 119.319 126.07 120.666 125.367 121.927C124.486 123.445 123.353 124.8 122.017 125.934C120.384 127.31 118.478 128.319 116.426 128.895C114.374 129.471 112.224 129.6 110.118 129.274C107.632 128.866 105.286 127.842 103.293 126.295H103.444L97.1199 129.621L96.8008 129.79L96.9071 129.43L99.2958 121.535V121.664L99.0299 121.17C98.1932 119.541 97.6671 117.769 97.4788 115.946C97.2779 114.196 97.3859 112.423 97.7979 110.71C98.5731 107.491 100.37 104.614 102.916 102.512C104.067 101.551 105.358 100.774 106.745 100.21C107.072 100.063 107.41 99.9405 107.756 99.8448C108.093 99.7468 108.425 99.6177 108.766 99.5465C109.432 99.3818 110.109 99.2657 110.792 99.1991C112.088 99.0555 113.397 99.0825 114.687 99.2793C115.883 99.4776 117.05 99.8184 118.166 100.295C120.117 101.121 121.872 102.354 123.315 103.91C124.411 105.11 125.308 106.478 125.974 107.962C126.107 108.274 126.227 108.564 126.342 108.853C126.457 109.142 126.519 109.405 126.604 109.65C126.745 110.063 126.856 110.486 126.936 110.915L127.082 111.712C127.109 111.795 127.126 111.882 127.131 111.97Z" fill="#2B3085"/>
<path d="M249.395 217.712C250.84 222.632 249.741 228.96 247.991 233.778C246.209 238.634 242.933 242.794 238.64 245.654C238.161 245.97 237.545 246.277 237.035 246.006C236.847 245.862 236.692 245.68 236.58 245.471C236.469 245.262 236.403 245.031 236.388 244.794C235.35 239.474 236.056 233.959 238.401 229.076C240.746 224.193 244.604 220.205 249.395 217.712Z" fill="#E8505B"/>
<g opacity="0.2">
<path opacity="0.2" d="M249.395 217.712C250.84 222.632 249.741 228.96 247.991 233.778C246.209 238.634 242.933 242.794 238.64 245.654C238.161 245.97 237.545 246.277 237.035 246.006C236.847 245.862 236.692 245.68 236.58 245.471C236.469 245.262 236.403 245.031 236.388 244.794C235.35 239.474 236.056 233.959 238.401 229.076C240.746 224.193 244.604 220.205 249.395 217.712Z" fill="#2B3085"/>
</g>
<path d="M227.623 194.357C230.676 194.272 232.688 197.678 232.994 200.733C233.3 203.788 232.622 206.967 233.517 209.884C234.647 213.611 238.113 216.283 239.163 220.036C240.404 224.458 237.989 229.044 237.873 233.64C237.816 235.866 238.317 238.133 237.896 240.319C237.545 242.189 236.56 243.88 235.108 245.102C233.656 246.324 231.827 247.002 229.933 247.021C228.039 247.04 226.197 246.398 224.721 245.205C223.246 244.012 222.227 242.342 221.84 240.479C221.126 237.042 222.633 233.386 221.729 229.988C221.06 227.482 219.123 225.349 218.963 222.757C218.777 219.671 221.153 217.004 221.596 213.945C222.039 210.886 220.497 207.898 220.266 204.812C219.859 199.281 222.137 194.94 227.623 194.348" fill="#E8505B"/>
<path d="M234.313 257.343C234.354 257.244 234.383 257.141 234.401 257.036C234.454 256.8 234.521 256.506 234.605 256.145C234.769 255.375 235.026 254.257 235.358 252.881C237.09 245.713 239.56 238.745 242.728 232.091C243.335 230.813 243.841 229.788 244.2 229.08L244.603 228.266C244.654 228.172 244.696 228.074 244.727 227.972C244.657 228.051 244.599 228.139 244.554 228.234L244.111 229.027C243.721 229.717 243.185 230.732 242.555 232.002C240.916 235.31 239.474 238.713 238.239 242.194C237.009 245.677 235.984 249.229 235.168 252.832C234.858 254.217 234.636 255.344 234.503 256.123C234.441 256.488 234.392 256.786 234.352 257.013C234.325 257.121 234.312 257.232 234.313 257.343Z" fill="#2B3085"/>
<path d="M227.754 209.443C227.755 209.607 227.769 209.771 227.794 209.933C227.838 210.276 227.896 210.744 227.967 211.331C228.131 212.574 228.361 214.324 228.64 216.474C229.216 220.816 230.005 226.81 230.834 233.44C231.663 240.07 232.376 246.077 232.886 250.428C233.143 252.578 233.351 254.333 233.497 255.575C233.573 256.163 233.635 256.631 233.679 256.973C233.692 257.137 233.718 257.3 233.759 257.459C233.762 257.295 233.755 257.132 233.737 256.969C233.706 256.622 233.661 256.154 233.613 255.562C233.484 254.315 233.307 252.561 233.09 250.401C232.646 246.046 231.946 240.035 231.118 233.404C230.289 226.774 229.469 220.78 228.844 216.443C228.525 214.301 228.264 212.556 228.077 211.318C227.984 210.73 227.909 210.267 227.851 209.924C227.832 209.762 227.799 209.601 227.754 209.443Z" fill="#2B3085"/>
<path d="M244.957 251.327H221.797V254.043H244.957V251.327Z" fill="#2B3085"/>
<path d="M223.941 254.043L226.662 270.528H241.025L242.909 254.043H223.941Z" fill="#2B3085"/>
<path d="M242.985 253.931C242.985 253.998 238.708 254.1 233.43 254.167C228.152 254.234 223.876 254.234 223.871 254.167C223.867 254.1 228.148 253.998 233.426 253.931C238.704 253.864 242.985 253.869 242.985 253.931Z" fill="#2B3085"/>
<path d="M242.195 262.183H242.062H241.681C241.187 262.201 240.692 262.181 240.201 262.125C239.412 262.047 238.657 261.761 238.012 261.297C237.608 261.002 237.282 260.614 237.059 260.166C236.802 259.652 236.753 259.058 236.922 258.509C237.019 258.202 237.211 257.933 237.471 257.744C237.732 257.555 238.045 257.455 238.366 257.458C238.708 257.486 239.025 257.646 239.253 257.904C239.478 258.172 239.631 258.494 239.696 258.839C239.98 260.246 238.996 261.813 237.48 262.303C235.964 262.793 234.125 261.947 233.368 260.411C233.174 260.022 233.061 259.598 233.035 259.164C233.003 258.711 233.122 258.26 233.372 257.881C233.503 257.689 233.674 257.528 233.873 257.408C234.072 257.288 234.294 257.212 234.524 257.187C234.761 257.173 234.998 257.222 235.211 257.328C235.424 257.435 235.605 257.594 235.738 257.792C236.008 258.173 236.148 258.63 236.137 259.097C236.127 259.546 236.013 259.986 235.805 260.384C235.396 261.155 234.749 261.772 233.961 262.143C233.215 262.496 232.415 262.723 231.595 262.815C230.808 262.929 230.006 262.859 229.251 262.61C228.52 262.363 227.894 261.873 227.478 261.221C227.286 260.91 227.167 260.56 227.128 260.196C227.088 259.832 227.131 259.464 227.252 259.119C227.354 258.79 227.543 258.495 227.799 258.265C228.055 258.035 228.368 257.879 228.705 257.815C229.019 257.766 229.339 257.799 229.636 257.909C229.933 258.02 230.197 258.205 230.403 258.447C230.572 258.681 230.675 258.957 230.702 259.245C230.728 259.534 230.677 259.824 230.553 260.085C230.345 260.545 230.006 260.932 229.578 261.199C229.218 261.43 228.831 261.619 228.426 261.76C228.063 261.898 227.722 262.009 227.411 262.103C226.938 262.239 226.457 262.349 225.971 262.432L225.59 262.486C225.546 262.494 225.501 262.494 225.457 262.486L225.586 262.454L225.962 262.379C226.29 262.307 226.778 262.196 227.385 262.005C227.691 261.911 228.027 261.791 228.386 261.648C228.78 261.503 229.156 261.314 229.508 261.083C229.909 260.826 230.225 260.456 230.416 260.019C230.528 259.783 230.574 259.52 230.549 259.26C230.524 258.999 230.429 258.751 230.274 258.54C230.086 258.324 229.846 258.159 229.577 258.061C229.308 257.963 229.019 257.935 228.736 257.979C228.432 258.042 228.151 258.186 227.922 258.396C227.692 258.606 227.524 258.874 227.434 259.173C227.323 259.491 227.285 259.83 227.323 260.165C227.362 260.499 227.475 260.821 227.655 261.105C228.045 261.714 228.63 262.171 229.313 262.401C230.039 262.634 230.809 262.698 231.564 262.588C232.358 262.495 233.131 262.274 233.855 261.933C234.599 261.584 235.211 261.001 235.597 260.273C235.805 259.914 235.91 259.505 235.902 259.09C235.893 258.675 235.771 258.271 235.548 257.921C235.439 257.754 235.288 257.619 235.111 257.529C234.934 257.439 234.736 257.398 234.537 257.409C234.341 257.433 234.151 257.498 233.981 257.601C233.812 257.704 233.666 257.842 233.554 258.006C233.333 258.343 233.23 258.744 233.261 259.146C233.283 259.549 233.387 259.943 233.567 260.304C234.272 261.742 236.004 262.57 237.409 262.085C238.814 261.599 239.745 260.157 239.488 258.865C239.427 258.553 239.29 258.26 239.089 258.015C238.993 257.901 238.876 257.808 238.745 257.74C238.613 257.672 238.47 257.631 238.322 257.619C238.04 257.616 237.763 257.704 237.534 257.87C237.304 258.035 237.133 258.27 237.046 258.54C236.884 259.049 236.925 259.602 237.161 260.081C237.364 260.512 237.668 260.886 238.047 261.172C238.672 261.63 239.403 261.92 240.17 262.014C240.657 262.077 241.146 262.11 241.637 262.112H242.018L242.195 262.183Z" fill="#2B3085"/>
</g>
<defs>
<linearGradient id="paint0_linear_219_3140" x1="146" y1="0" x2="146" y2="254.755" gradientUnits="userSpaceOnUse">
<stop stop-color="#2D2D2D" stop-opacity="0.1"/>
<stop offset="1" stop-color="#2D2D2D" stop-opacity="0"/>
</linearGradient>
<clipPath id="clip0_219_3140">
<rect width="254" height="183" fill="white" transform="translate(19 88)"/>
</clipPath>
</defs>
</svg>
