<svg width="12" height="12" viewBox="0 0 12 12" fill="none" xmlns="http://www.w3.org/2000/svg">
<path d="M9.58767 9.11909C9.8375 9.11909 10.0405 9.32506 10.0408 9.57808C10.0408 9.8318 9.83766 10.038 9.58767 10.038H7.02615C6.77616 10.038 6.57205 9.8318 6.57205 9.57808C6.57231 9.32506 6.77632 9.11909 7.02615 9.11909H9.58767ZM6.11111 2.39058C6.52058 1.86485 7.23517 1.81624 7.8113 2.27437L8.47341 2.80073C8.74465 3.01294 8.92521 3.29274 8.98709 3.58687C9.05843 3.91044 8.98253 4.228 8.76834 4.50288L4.82595 9.60152C4.64502 9.83304 4.37824 9.9629 4.09255 9.96773L2.52127 9.98726C2.43559 9.98726 2.36456 9.92956 2.34548 9.84761L1.98806 8.29878C1.92634 8.01444 1.98806 7.72065 2.16873 7.49409L4.96365 3.87593C5.01116 3.81817 5.09694 3.8089 5.15408 3.85152L6.33084 4.78804C6.40696 4.85052 6.51159 4.88447 6.62087 4.87007C6.85419 4.84113 7.01187 4.62803 6.98806 4.40132C6.9737 4.28573 6.91572 4.18941 6.83962 4.11714C6.80958 4.09285 5.70974 3.2113 5.69705 3.20112C5.62562 3.14324 5.61159 3.03667 5.66873 2.9648L6.11111 2.39058Z" fill="white"/>
</svg>
