<svg width="22" height="22" viewBox="0 0 22 22" fill="none" xmlns="http://www.w3.org/2000/svg">
<path d="M8.58642 2.0625H8.61667C8.799 2.0625 8.97387 2.13493 9.1028 2.26386C9.23173 2.3928 9.30417 2.56766 9.30417 2.75C9.30417 2.93234 9.23173 3.1072 9.1028 3.23614C8.97387 3.36507 8.799 3.4375 8.61667 3.4375C7.579 3.4375 6.84108 3.4375 6.2645 3.48517C5.69617 3.531 5.34325 3.61992 5.06367 3.762C4.50325 4.0476 4.0476 4.50325 3.762 5.06367C3.61992 5.34325 3.53192 5.69617 3.48517 6.2645C3.43842 6.842 3.4375 7.579 3.4375 8.61667C3.4375 8.799 3.36507 8.97387 3.23614 9.1028C3.1072 9.23173 2.93234 9.30417 2.75 9.30417C2.56766 9.30417 2.3928 9.23173 2.26386 9.1028C2.13493 8.97387 2.0625 8.799 2.0625 8.61667V8.58642C2.0625 7.58542 2.0625 6.79158 2.11475 6.15267C2.16792 5.49817 2.27975 4.94542 2.53642 4.44033C2.95412 3.62082 3.62062 2.95464 4.44033 2.53733C4.9445 2.27975 5.49817 2.16792 6.15267 2.11475C6.79158 2.0625 7.58542 2.0625 8.58642 2.0625ZM15.7364 3.48517C15.1589 3.43842 14.421 3.4375 13.3833 3.4375C13.201 3.4375 13.0261 3.36507 12.8972 3.23614C12.7683 3.1072 12.6958 2.93234 12.6958 2.75C12.6958 2.56766 12.7683 2.3928 12.8972 2.26386C13.0261 2.13493 13.201 2.0625 13.3833 2.0625H13.4136C14.4146 2.0625 15.2084 2.0625 15.8473 2.11475C16.5018 2.16792 17.0546 2.27975 17.5606 2.53642C18.3798 2.95427 19.0456 3.62076 19.4627 4.44033C19.7203 4.9445 19.8321 5.49817 19.8853 6.15267C19.9375 6.79158 19.9375 7.58542 19.9375 8.58642V8.61667C19.9375 8.799 19.8651 8.97387 19.7361 9.1028C19.6072 9.23173 19.4323 9.30417 19.25 9.30417C19.0677 9.30417 18.8928 9.23173 18.7639 9.1028C18.6349 8.97387 18.5625 8.799 18.5625 8.61667C18.5625 7.579 18.5625 6.84108 18.5148 6.2645C18.469 5.69617 18.3801 5.34325 18.238 5.06367C17.9524 4.50325 17.4968 4.0476 16.9363 3.762C16.6567 3.61992 16.3048 3.53192 15.7364 3.48517ZM7.33333 6.64583C7.51567 6.64583 7.69054 6.71827 7.81947 6.8472C7.9484 6.97613 8.02083 7.151 8.02083 7.33333V8.70833C8.02083 8.89067 7.9484 9.06554 7.81947 9.19447C7.69054 9.3234 7.51567 9.39583 7.33333 9.39583C7.151 9.39583 6.97613 9.3234 6.8472 9.19447C6.71827 9.06554 6.64583 8.89067 6.64583 8.70833V7.33333C6.64583 7.151 6.71827 6.97613 6.8472 6.8472C6.97613 6.71827 7.151 6.64583 7.33333 6.64583ZM14.6667 6.64583C14.849 6.64583 15.0239 6.71827 15.1528 6.8472C15.2817 6.97613 15.3542 7.151 15.3542 7.33333V8.70833C15.3542 8.89067 15.2817 9.06554 15.1528 9.19447C15.0239 9.3234 14.849 9.39583 14.6667 9.39583C14.4843 9.39583 14.3095 9.3234 14.1805 9.19447C14.0516 9.06554 13.9792 8.89067 13.9792 8.70833V7.33333C13.9792 7.151 14.0516 6.97613 14.1805 6.8472C14.3095 6.71827 14.4843 6.64583 14.6667 6.64583ZM11 8.25C11.1823 8.25 11.3572 8.32243 11.4861 8.45136C11.6151 8.5803 11.6875 8.75516 11.6875 8.9375V12.6042C11.6875 12.7865 11.6151 12.9614 11.4861 13.0903C11.3572 13.2192 11.1823 13.2917 11 13.2917H10.0833C9.901 13.2917 9.72613 13.2192 9.5972 13.0903C9.46827 12.9614 9.39583 12.7865 9.39583 12.6042C9.39583 12.4218 9.46827 12.247 9.5972 12.118C9.72613 11.9891 9.901 11.9167 10.0833 11.9167H10.3125V8.9375C10.3125 8.75516 10.3849 8.5803 10.5139 8.45136C10.6428 8.32243 10.8177 8.25 11 8.25ZM2.75 12.6958C2.93234 12.6958 3.1072 12.7683 3.23614 12.8972C3.36507 13.0261 3.4375 13.201 3.4375 13.3833C3.4375 14.4219 3.4375 15.1589 3.48517 15.7355C3.531 16.3038 3.61992 16.6567 3.762 16.9363C4.0476 17.4968 4.50325 17.9524 5.06367 18.238C5.34325 18.3801 5.69617 18.4681 6.2645 18.5148C6.842 18.5616 7.579 18.5625 8.61667 18.5625C8.799 18.5625 8.97387 18.6349 9.1028 18.7639C9.23173 18.8928 9.30417 19.0677 9.30417 19.25C9.30417 19.4323 9.23173 19.6072 9.1028 19.7361C8.97387 19.8651 8.799 19.9375 8.61667 19.9375H8.58642C7.58542 19.9375 6.79158 19.9375 6.15267 19.8853C5.49817 19.8321 4.94542 19.7203 4.44033 19.4636C3.62096 19.0461 2.9548 18.38 2.53733 17.5606C2.27975 17.0546 2.16792 16.5018 2.11475 15.8473C2.0625 15.2084 2.0625 14.4146 2.0625 13.4136V13.3833C2.0625 13.201 2.13493 13.0261 2.26386 12.8972C2.3928 12.7683 2.56766 12.6958 2.75 12.6958ZM19.25 12.6958C19.4323 12.6958 19.6072 12.7683 19.7361 12.8972C19.8651 13.0261 19.9375 13.201 19.9375 13.3833V13.4136C19.9375 14.4146 19.9375 15.2084 19.8853 15.8473C19.8321 16.5018 19.7203 17.0546 19.4636 17.5606C19.046 18.3796 18.3798 19.0454 17.5606 19.4627C17.0546 19.7203 16.5018 19.8321 15.8473 19.8853C15.2084 19.9375 14.4146 19.9375 13.4136 19.9375H13.3833C13.201 19.9375 13.0261 19.8651 12.8972 19.7361C12.7683 19.6072 12.6958 19.4323 12.6958 19.25C12.6958 19.0677 12.7683 18.8928 12.8972 18.7639C13.0261 18.6349 13.201 18.5625 13.3833 18.5625C14.4219 18.5625 15.1589 18.5625 15.7355 18.5148C16.3038 18.469 16.6567 18.3801 16.9363 18.238C17.4968 17.9524 17.9524 17.4968 18.238 16.9363C18.3801 16.6567 18.4681 16.3038 18.5148 15.7355C18.5616 15.158 18.5625 14.421 18.5625 13.3833C18.5625 13.201 18.6349 13.0261 18.7639 12.8972C18.8928 12.7683 19.0677 12.6958 19.25 12.6958ZM7.76417 14.6392C7.89307 14.5104 8.06781 14.4381 8.25 14.4381C8.43219 14.4381 8.60693 14.5104 8.73583 14.6392C9.26567 15.1681 10.1053 15.4688 11 15.4688C11.8947 15.4688 12.7343 15.1681 13.2642 14.6392C13.3271 14.5716 13.403 14.5174 13.4873 14.4799C13.5717 14.4423 13.6627 14.4221 13.755 14.4205C13.8473 14.4188 13.939 14.4358 14.0246 14.4704C14.1102 14.505 14.188 14.5564 14.2533 14.6217C14.3186 14.687 14.37 14.7648 14.4046 14.8504C14.4392 14.936 14.4562 15.0277 14.4545 15.12C14.4529 15.2123 14.4327 15.3033 14.3951 15.3877C14.3576 15.472 14.3034 15.5479 14.2358 15.6108C13.3907 16.4569 12.1678 16.8438 11 16.8438C9.83217 16.8438 8.60933 16.4569 7.76417 15.6108C7.63542 15.4819 7.56311 15.3072 7.56311 15.125C7.56311 14.9428 7.63542 14.7681 7.76417 14.6392Z" fill="white"/>
</svg>
