<svg width="19" height="18" viewBox="0 0 19 18" fill="none" xmlns="http://www.w3.org/2000/svg">
<g clip-path="url(#clip0_176_2422)">
<path d="M8.015 17.91C3.74 17.145 0.5 13.455 0.5 9C0.5 4.05 4.55 0 9.5 0C14.45 0 18.5 4.05 18.5 9C18.5 13.455 15.26 17.145 10.985 17.91L10.49 17.505H8.51L8.015 17.91Z" fill="url(#paint0_linear_176_2422)"/>
<path d="M13.0086 11.5198L13.4136 8.99977H11.0286V7.24477C11.0286 6.52477 11.2986 5.98477 12.3786 5.98477H13.5486V3.68977C12.9186 3.59977 12.1986 3.50977 11.5686 3.50977C9.49859 3.50977 8.05859 4.76977 8.05859 7.01977V8.99977H5.80859V11.5198H8.05859V17.8648C8.55359 17.9548 9.04859 17.9998 9.54359 17.9998C10.0386 17.9998 10.5336 17.9548 11.0286 17.8648V11.5198H13.0086Z" fill="white"/>
</g>
<defs>
<linearGradient id="paint0_linear_176_2422" x1="9.50045" y1="17.374" x2="9.50045" y2="-0.0033155" gradientUnits="userSpaceOnUse">
<stop stop-color="#0062E0"/>
<stop offset="1" stop-color="#19AFFF"/>
</linearGradient>
<clipPath id="clip0_176_2422">
<rect width="18" height="18" fill="white" transform="translate(0.5)"/>
</clipPath>
</defs>
</svg>
