<svg width="22" height="22" viewBox="0 0 22 22" fill="none" xmlns="http://www.w3.org/2000/svg">
<g clip-path="url(#clip0_296_3146)">
<path d="M11 20.625C8.44729 20.625 5.99913 19.6109 4.1941 17.8059C2.38906 16.0009 1.375 13.5527 1.375 11C1.375 8.44729 2.38906 5.99913 4.1941 4.1941C5.99913 2.38906 8.44729 1.375 11 1.375C13.5527 1.375 16.0009 2.38906 17.8059 4.1941C19.6109 5.99913 20.625 8.44729 20.625 11C20.625 13.5527 19.6109 16.0009 17.8059 17.8059C16.0009 19.6109 13.5527 20.625 11 20.625ZM11 22C13.9174 22 16.7153 20.8411 18.7782 18.7782C20.8411 16.7153 22 13.9174 22 11C22 8.08262 20.8411 5.28473 18.7782 3.22183C16.7153 1.15893 13.9174 0 11 0C8.08262 0 5.28473 1.15893 3.22183 3.22183C1.15893 5.28473 0 8.08262 0 11C0 13.9174 1.15893 16.7153 3.22183 18.7782C5.28473 20.8411 8.08262 22 11 22Z" fill="#2B3085"/>
<path d="M7.22685 7.95575C7.22497 8.00015 7.23219 8.04447 7.24807 8.08598C7.26395 8.1275 7.28816 8.16532 7.31919 8.19713C7.35023 8.22894 7.38745 8.25407 7.42856 8.27096C7.46966 8.28786 7.51379 8.29616 7.55823 8.29537H8.6926C8.88235 8.29537 9.0336 8.14 9.05835 7.95162C9.1821 7.04962 9.80085 6.39238 10.9036 6.39238C11.8469 6.39238 12.7104 6.864 12.7104 7.99837C12.7104 8.8715 12.1961 9.273 11.3835 9.8835C10.4581 10.5559 9.72523 11.341 9.77748 12.6156L9.7816 12.914C9.78305 13.0042 9.8199 13.0902 9.88421 13.1535C9.94852 13.2168 10.0351 13.2523 10.1254 13.2522H11.2405C11.3316 13.2522 11.4191 13.216 11.4835 13.1516C11.548 13.0871 11.5842 12.9997 11.5842 12.9085V12.7641C11.5842 11.7769 11.9596 11.4895 12.973 10.7209C13.8104 10.0842 14.6835 9.3775 14.6835 7.89388C14.6835 5.81625 12.929 4.8125 11.0081 4.8125C9.26598 4.8125 7.35748 5.62375 7.22685 7.95575ZM9.36773 15.8799C9.36773 16.6128 9.9521 17.1545 10.7565 17.1545C11.5939 17.1545 12.17 16.6128 12.17 15.8799C12.17 15.1209 11.5925 14.5874 10.7551 14.5874C9.9521 14.5874 9.36773 15.1209 9.36773 15.8799Z" fill="#2B3085"/>
</g>
<defs>
<clipPath id="clip0_296_3146">
<rect width="22" height="22" fill="white"/>
</clipPath>
</defs>
</svg>
