<svg width="497" height="461" viewBox="0 0 497 461" fill="none" xmlns="http://www.w3.org/2000/svg">
<path d="M285.416 436.731C279.499 436.292 273.719 434.73 268.386 432.129L94.1328 347.467C77.7558 339.514 66.7112 322.852 63.8267 301.755C60.1079 274.582 70.21 246.719 90.1907 229.047L256.987 81.4863C274.045 66.3966 295.085 62.0681 313.251 69.904C333.053 78.4459 345.368 98.953 346.198 124.759L353.655 356.976C354.569 385.445 340.752 413.18 318.46 427.641C307.906 434.481 296.458 437.551 285.416 436.731ZM257.521 82.0944L258.06 82.6976L91.26 230.242C71.6771 247.567 61.7803 274.881 65.4266 301.528C68.2349 322.078 78.9569 338.291 94.8364 346.005L269.095 430.668C284.252 438.031 301.923 436.427 317.582 426.301C339.438 412.131 352.937 384.946 352.031 357.026L344.584 124.814C343.798 99.6438 331.825 79.6721 312.609 71.3863C295.031 63.8012 274.641 68.0345 258.06 82.6976L257.521 82.0944Z" fill="white" fill-opacity="0.3"/>
<path d="M305.802 443.493C300.734 443.111 295.744 442.025 290.976 440.267L89.6563 366.684C70.2152 359.571 56.1859 342.47 51.176 319.732C45.0675 292.047 53.5686 262.568 73.3601 242.793L242.947 73.3987C260.627 55.7361 283.817 49.4955 304.973 56.6929C327.102 64.2283 342.382 84.52 345.835 110.977L377.566 353.987C381.342 382.955 370.031 411.864 348.053 429.468C335.191 439.769 320.373 444.576 305.802 443.493ZM243.526 73.9676L244.095 74.5411L74.5008 243.957C55.1207 263.342 46.7575 292.252 52.7517 319.403C57.6463 341.547 71.2963 358.249 90.2102 365.163L291.528 438.767C309.997 445.521 330.226 441.674 347.03 428.218C368.584 410.965 379.669 382.602 375.961 354.203L344.263 111.19C340.87 85.3533 326.016 65.5554 304.477 58.2232C283.906 51.2233 261.327 57.3234 244.095 74.5411L243.526 73.9676Z" fill="white" fill-opacity="0.3"/>
<path d="M328.328 448.784C324.43 448.492 320.566 447.849 316.783 446.864L86.637 387.241C63.6676 381.285 46.2015 363.822 38.7198 339.318C30.1905 311.394 36.8456 280.519 56.1435 258.737L226.636 66.1359L227.239 66.6694L226.636 66.1359C244.643 45.7935 269.939 37.2976 294.314 43.422C319.071 49.6385 337.672 69.4863 344.071 96.5503L403.745 348.781C410.541 377.511 401.819 408.031 380.988 428.429C366.002 443.078 347.305 450.194 328.328 448.784ZM283.227 43.2837C262.913 41.7746 242.798 50.3102 227.819 67.2331L57.3263 259.834C38.4442 281.169 31.8912 311.457 40.2614 338.874C47.5767 362.83 64.6262 379.895 87.0381 385.704L317.179 445.326C339.413 451.09 362.246 444.515 379.834 427.297C400.264 407.294 408.818 377.388 402.148 349.178L342.482 96.921C336.223 70.4677 318.062 51.0564 293.902 44.9692C290.4 44.0935 286.829 43.5208 283.229 43.2573L283.227 43.2837Z" fill="white" fill-opacity="0.3"/>
<path d="M352.487 452.285C350.318 452.124 348.145 451.865 345.968 451.508L85.3587 409.077C58.7627 404.742 36.7833 386.604 26.5691 360.552C15.47 332.252 19.9929 300.974 38.7026 276.954L207.821 59.9416L208.459 60.4405L207.821 59.9416C225.802 36.8668 253.087 25.7826 280.811 30.3018C308.536 34.821 330.88 53.9801 340.619 81.5684L432.125 341.019C442.248 369.731 436.641 400.806 417.115 424.149C400.633 443.855 376.859 454.09 352.487 452.285ZM274.062 31.1232C249.204 29.2766 225.289 40.133 209.076 60.9326L39.9571 277.945C30.9643 289.371 25.1309 302.959 23.0411 317.348C20.9513 331.737 22.6783 346.423 28.0493 359.935C38.0793 385.462 59.6019 403.243 85.6207 407.481L346.224 449.918C372.254 454.152 398.296 444.138 415.88 423.111C425.266 412 431.567 398.616 434.151 384.302C436.735 369.988 435.511 355.247 430.603 341.554L339.092 82.1031C329.555 55.0822 307.671 36.308 280.56 31.8929C278.387 31.5402 276.221 31.2836 274.062 31.1232Z" fill="white" fill-opacity="0.3"/>
<path d="M378.717 453.829L86.1461 432.095C55.0647 429.786 28.4211 411.646 14.8774 383.574C1.33369 355.501 3.72681 323.358 21.2626 297.62L186.402 55.0883C203.913 29.3224 232.95 15.3191 264.031 17.628C295.113 19.9369 321.751 38.0762 335.294 66.1491L462.758 330.417C476.297 358.49 473.909 390.633 456.371 416.397C438.833 442.161 409.804 456.139 378.717 453.829ZM187.043 55.5397L187.71 55.993L22.5997 298.5C5.38451 323.784 3.04143 355.325 16.3318 382.874C29.6222 410.424 55.7659 428.213 86.2662 430.478L378.837 452.213C409.338 454.478 437.823 440.742 455.038 415.459C472.254 390.176 474.597 358.635 461.306 331.085L333.84 66.8485C320.555 39.2995 294.412 21.5052 263.911 19.2394C233.411 16.9736 204.92 30.7147 187.71 55.993L187.043 55.5397Z" fill="white" fill-opacity="0.3"/>
</svg>
