<svg width="308" height="176" viewBox="0 0 308 176" fill="none" xmlns="http://www.w3.org/2000/svg">
<g clip-path="url(#clip0_154_4187)">
<path d="M293.657 56.7252C294.206 57.33 294.628 58.0394 294.896 58.8108C295.165 59.5822 295.275 60.3998 295.22 61.2148C295.097 62.8532 294.599 64.4415 293.765 65.857C292.242 68.6315 289.38 70.8898 286.64 72.4836C285.072 69.3409 286.038 65.3766 286.64 63.3967C287.619 60.254 291.285 55.2122 293.639 56.7072" fill="#EBEBEB"/>
<path d="M287.512 78.474C287.686 77.5736 288.096 76.7354 288.7 76.0446C289.303 75.3539 290.079 74.8351 290.948 74.5411C291.82 74.2597 292.74 74.1545 293.653 74.2315C294.566 74.3086 295.455 74.5665 296.267 74.9901C297.022 75.3717 297.772 75.9419 297.952 76.7859C298.012 77.1768 297.967 77.5765 297.823 77.9447C297.679 78.3129 297.439 78.6364 297.13 78.8825C296.499 79.3688 295.75 79.6787 294.96 79.7804C292.265 80.2294 289.619 80.1935 287.512 78.4874" fill="#EBEBEB"/>
<path d="M280.707 86.1009C280.8 85.904 280.912 85.7161 281.039 85.5397L282.001 84.0446C282.827 82.8055 283.968 81.0142 285.792 79.5551C287.32 78.2994 289.154 77.472 291.107 77.1576C291.702 77.0693 292.305 77.0527 292.904 77.1083C293.115 77.1083 293.277 77.1621 293.384 77.1756C293.492 77.1891 293.551 77.2115 293.551 77.2205C292.747 77.1689 291.94 77.2005 291.143 77.3148C289.231 77.6742 287.441 78.5113 285.941 79.7481C284.144 81.1623 282.998 82.9178 282.14 84.1344C281.713 84.7495 281.367 85.2523 281.12 85.5891C280.998 85.7715 280.86 85.9428 280.707 86.1009Z" fill="#E0E0E0"/>
<path d="M291.209 60.8252C291.192 60.9185 291.166 61.0102 291.133 61.0991C291.061 61.2966 290.976 61.548 290.868 61.8668C290.634 62.5312 290.284 63.492 289.844 64.6728C288.945 67.0343 287.696 70.2802 286.218 73.8315C284.74 77.3827 283.325 80.5658 282.269 82.86C281.744 84.0048 281.308 84.9297 281.003 85.5537C280.854 85.8545 280.733 86.0925 280.643 86.281C280.605 86.3675 280.558 86.4502 280.504 86.528C280.526 86.4366 280.558 86.3478 280.598 86.2631C280.684 86.07 280.787 85.8141 280.922 85.5178C281.214 84.8444 281.622 83.9195 282.121 82.7837C283.136 80.476 284.525 77.2839 286.003 73.7327C287.481 70.1815 288.77 66.949 289.691 64.6054C290.14 63.4516 290.517 62.5088 290.782 61.8264C290.908 61.5166 291.007 61.2652 291.088 61.0721C291.118 60.9852 291.159 60.9022 291.209 60.8252Z" fill="#E0E0E0"/>
<path d="M282.573 78.5001C283.003 76.6143 282.978 74.653 282.498 72.779C282.018 70.9051 281.098 69.1725 279.814 67.7251C279.159 66.9978 278.193 66.3019 277.272 66.6341C276.351 66.9664 276.045 68.1247 276.027 69.1079C276.025 71.1593 276.631 73.1654 277.768 74.8735C278.905 76.5816 280.522 77.9153 282.415 78.7066" fill="#EBEBEB"/>
<path d="M279.052 70.6572C279.216 70.7923 279.366 70.9427 279.502 71.1062C279.663 71.2821 279.813 71.468 279.951 71.6629C280.151 71.911 280.337 72.1703 280.508 72.4396C280.722 72.7591 280.919 73.0904 281.096 73.4318C281.31 73.8219 281.502 74.2236 281.671 74.635C282.051 75.579 282.323 76.5623 282.484 77.5667C282.629 78.5763 282.656 79.5992 282.565 80.6151C282.524 81.0557 282.457 81.4935 282.363 81.926C282.289 82.3054 282.193 82.6802 282.076 83.0484C281.984 83.3532 281.876 83.6529 281.752 83.9463C281.67 84.1726 281.572 84.3931 281.46 84.6063C281.377 84.7942 281.278 84.9744 281.164 85.1451C281.114 85.1451 281.532 84.3504 281.918 83.0035C282.024 82.6374 282.11 82.2657 282.174 81.8901C282.26 81.4616 282.32 81.0283 282.354 80.5926C282.433 79.5955 282.401 78.5928 282.26 77.6026C282.1 76.6138 281.837 75.6447 281.474 74.7113C281.313 74.3058 281.131 73.9087 280.93 73.5216C280.76 73.1799 280.573 72.8473 280.369 72.5249C279.614 71.3307 279.016 70.6887 279.052 70.6572Z" fill="#E0E0E0"/>
<path d="M14.5036 28.7331C14.5036 28.7331 10.3707 30.08 14.3778 38.9199C18.385 47.7599 21.2466 52.2135 21.2466 52.2135C21.2466 52.2135 21.934 54.2563 20.2269 54.4897C18.5198 54.7232 14.8361 53.951 13.978 55.9848C13.0795 58.0949 14.5575 60.1915 17.6348 62.113C20.7121 64.0346 27.3023 68.4972 27.8953 68.9057C28.4883 69.3143 29.0364 70.2526 27.8953 70.6118C26.7543 70.9709 18.3446 71.4334 18.8118 75.4246C19.279 79.4158 28.7534 83.3397 29.7596 83.7931C30.7659 84.2466 31.013 84.6911 30.9007 85.2702C30.7884 85.8494 27.9447 85.7192 25.5593 85.9661C23.1739 86.213 20.4425 86.891 20.9007 89.1627C21.3589 91.4344 26.8396 96.4223 40.6132 98.4291L47.0552 98.9409L50.8243 93.6567C58.1962 81.8581 57.9312 74.4593 56.4936 72.6411C55.0561 70.8228 52.765 72.4525 51.0444 74.1226C49.3238 75.7927 47.5628 78.0285 47.0552 77.7457C46.5476 77.4629 46.3499 76.9959 46.6688 75.9229C46.9878 74.8499 50.083 65.0851 47.3472 62.1579C44.6114 59.2307 38.8117 65.3365 37.8054 65.9785C36.7992 66.6206 36.4353 65.5745 36.5072 64.8741C36.579 64.1737 37.4371 56.2497 37.9582 52.6625C38.4793 49.0753 37.8234 46.5971 35.6446 45.9281C33.5422 45.2592 31.7408 48.577 30.4605 49.7263C29.1801 50.8756 28.0615 49.0304 28.0615 49.0304C28.0615 49.0304 26.5296 43.9707 22.3607 35.1891C18.1918 26.4075 14.4228 28.7735 14.4228 28.7735" fill="#EBEBEB"/>
<path d="M47.3165 100.472C44.2842 94.0115 39.0865 82.4374 34.5582 72.5199C30.0299 62.6024 25.9419 53.6637 22.941 47.1628L19.3741 39.5081L18.4217 37.4115L18.1746 36.8683L18.0938 36.6797C18.0938 36.6797 18.1297 36.7381 18.1926 36.8593L18.4576 37.3935L19.4594 39.4632C20.3264 41.259 21.5663 43.872 23.0803 47.0955C26.1171 53.556 30.2366 62.5171 34.7604 72.4301C39.2842 82.3431 44.4638 93.9262 47.4647 100.405" fill="#E0E0E0"/>
<path d="M19.1016 57.2686C19.2564 57.3007 19.4072 57.3504 19.5508 57.4167C19.8293 57.52 20.2336 57.6861 20.7278 57.8926C21.7206 58.3056 23.0728 58.9162 24.5508 59.6166L28.3333 61.4124L29.4834 61.9512C29.6288 62.0072 29.7675 62.0795 29.8967 62.1667C29.7422 62.135 29.5916 62.0868 29.4474 62.023C29.1644 61.9153 28.7646 61.7536 28.2705 61.5381C27.2821 61.1116 25.9389 60.4876 24.4609 59.7872L20.6649 57.9914C20.2157 57.7759 19.8248 57.6008 19.5149 57.4571C19.371 57.4086 19.2325 57.3455 19.1016 57.2686Z" fill="#E0E0E0"/>
<path d="M30.3573 61.7899C30.3034 61.7899 31.44 58.9255 32.891 55.4416C34.342 51.9577 35.5864 49.1562 35.6134 49.1562C35.6403 49.1562 34.5307 52.0161 33.0752 55.5C31.6197 58.9839 30.4067 61.8079 30.3573 61.7899Z" fill="#E0E0E0"/>
<path d="M36.6055 77.3238C36.6851 77.185 36.78 77.0554 36.8885 76.9377L37.7016 75.9276C38.3844 75.0745 39.3278 73.8938 40.3206 72.5514C41.3134 71.209 42.1715 69.9654 42.7869 69.0585L43.5147 67.99C43.5925 67.8502 43.6893 67.7218 43.8022 67.6084C43.7423 67.7557 43.6686 67.897 43.5821 68.0304C43.4249 68.2953 43.1957 68.6769 42.9037 69.1393C42.3197 70.0642 41.4797 71.3258 40.4824 72.6726C39.4851 74.0195 38.5237 75.1868 37.787 76.0174C37.4276 76.4349 37.1356 76.7671 36.9244 76.9871C36.8305 77.1104 36.7235 77.2233 36.6055 77.3238Z" fill="#E0E0E0"/>
<path d="M25.5273 75.4746C25.6776 75.4647 25.8286 75.4737 25.9766 75.5015L27.1671 75.6541C28.1733 75.7888 29.557 75.9909 31.0799 76.2243C32.6028 76.4578 33.9909 76.6733 34.9882 76.8574L36.1652 77.0684C36.3184 77.088 36.4691 77.1241 36.6145 77.1761C36.4642 77.186 36.3133 77.1769 36.1652 77.1492L34.9748 76.9965C33.973 76.8618 32.5848 76.6598 31.0619 76.4264C29.539 76.1929 28.1554 75.9774 27.1536 75.7933L25.9766 75.5823C25.8234 75.5627 25.6728 75.5266 25.5273 75.4746Z" fill="#E0E0E0"/>
<path d="M29.3047 89.8906C29.4927 89.8858 29.6808 89.8994 29.8662 89.931L31.3936 90.1195C32.6784 90.2856 34.4529 90.5326 36.4161 90.8154C38.3792 91.0983 40.1447 91.3631 41.4295 91.5652L42.9435 91.8166C43.1308 91.8389 43.3157 91.8779 43.496 91.9333C43.3079 91.941 43.1195 91.9274 42.9345 91.8929L41.4071 91.7043C40.1223 91.5382 38.3433 91.2958 36.3846 91.013C34.426 90.7301 32.656 90.4652 31.3712 90.2587L29.8572 90.0118C29.6699 89.9877 29.485 89.9471 29.3047 89.8906Z" fill="#E0E0E0"/>
<path d="M43.1719 91.7889C43.2685 91.6117 43.3829 91.4447 43.5133 91.2906L44.4971 89.9752C45.3282 88.8618 46.4693 87.3218 47.6822 85.5844C48.8951 83.8469 49.9553 82.2486 50.7145 81.0948L51.613 79.7165C51.7162 79.5438 51.8318 79.3787 51.9589 79.2227C51.8846 79.4098 51.7913 79.5888 51.6804 79.7569C51.4872 80.0981 51.1997 80.5785 50.8313 81.1711C50.1036 82.3564 49.0658 83.9681 47.8484 85.7101C46.631 87.452 45.472 88.9785 44.6094 90.0694C44.1602 90.6172 43.8233 91.0527 43.5762 91.349C43.4544 91.5071 43.3192 91.6543 43.1719 91.7889Z" fill="#E0E0E0"/>
<path d="M148.112 81.8537C136.603 76.0667 132.272 62.8628 130.924 50.6243C130.7 48.5815 130.165 46.4714 130.875 44.5454C131.585 42.6194 133.665 41.0795 135.61 41.6721C137.223 42.1659 138.135 43.8271 139.204 45.156C140.615 46.9287 142.497 48.2684 144.635 49.0215C146.028 49.5064 147.69 49.686 148.867 48.7925C150.48 47.5759 150.336 45.1201 150.03 43.0998C149.443 39.3375 148.871 35.5738 148.314 31.8085C148.009 29.7882 147.703 27.723 148.054 25.7162C148.404 23.7093 149.536 21.7204 151.383 20.9033C153.229 20.0862 155.772 20.854 156.463 22.771C156.751 23.5701 156.711 24.4501 156.886 25.2807C157.061 26.1112 157.591 26.9867 158.422 27.1034C159.253 27.2202 159.99 26.5333 160.507 25.8553C162.304 23.5118 163.337 20.6789 164.285 17.8729C165.233 15.0669 166.127 12.2026 167.699 9.70188C169.271 7.20119 171.639 5.05966 174.509 4.48949C177.38 3.91931 180.731 5.24822 181.872 7.98237C183.013 10.7165 181.773 13.8592 180.3 16.4317C178.115 20.2443 175.392 23.7221 172.214 26.7577C171.643 27.301 171.019 27.8891 170.866 28.6748C170.623 30.089 172.092 31.2428 173.49 31.4897C175.071 31.7771 176.684 31.382 178.287 31.3416C179.891 31.3012 181.702 31.7456 182.515 33.1374C183.642 35.0814 182.227 37.5013 180.718 39.1624C177.72 42.4979 174.17 45.2924 170.224 47.4232C168.813 48.182 167.317 48.8868 166.266 50.117C165.215 51.3471 164.756 53.2597 165.686 54.5751C166.616 55.8905 168.548 56.0836 170.062 55.5718C171.576 55.06 172.852 54.0094 174.258 53.2327C176.886 51.7826 180.502 51.4369 182.631 53.6009C184.029 55.0106 184.451 57.1925 184.132 59.159C183.813 61.1254 182.847 62.9212 181.787 64.6003C178.09 70.4682 172.991 75.4965 166.863 78.6661C160.736 81.8358 154.851 83.2994 148.103 81.8807" fill="#F5F5F5"/>
<path d="M150.148 73.7682C151.218 66.8421 152.683 59.9828 154.537 53.224L155.962 47.8949C156.433 46.1484 156.9 44.4155 157.462 42.7498C158.547 39.5533 159.808 36.4193 161.24 33.3621C162.588 30.4305 163.967 27.7008 165.283 25.1597C166.599 22.6186 167.875 20.2706 169.124 18.1829C171.085 14.8702 173.305 11.7177 175.764 8.75482C176.631 7.71325 177.332 6.92308 177.812 6.39331L178.347 5.83661C178.407 5.76786 178.471 5.70335 178.54 5.64355C178.494 5.72331 178.438 5.79717 178.374 5.86354L177.848 6.4831C177.399 7.03083 176.707 7.82997 175.858 8.88951C173.462 11.8687 171.291 15.0216 169.362 18.3221C168.127 20.4097 166.873 22.7578 165.566 25.3034C164.259 27.849 162.898 30.5831 161.563 33.5103C160.144 36.5588 158.894 39.6839 157.821 42.871C157.233 44.5277 156.784 46.2427 156.307 47.9981L154.888 53.3228C153.041 60.067 151.574 66.9093 150.494 73.8176" fill="#E0E0E0"/>
<path d="M157.551 42.7226C157.419 42.4547 157.312 42.1752 157.232 41.8876C157.048 41.3443 156.783 40.5407 156.513 39.562C155.938 37.591 155.233 34.8389 154.469 31.804C153.705 28.769 152.96 26.0349 152.358 24.0774C152.057 23.0987 151.805 22.3086 151.625 21.7653C151.514 21.4875 151.432 21.1985 151.383 20.9033C151.54 21.1586 151.666 21.4313 151.76 21.7159C151.985 22.2457 152.277 23.0224 152.609 23.9966C153.283 25.9406 154.065 28.6748 154.833 31.7142C155.601 34.7536 156.248 37.4204 156.783 39.5081C157.025 40.4419 157.232 41.2321 157.389 41.8606C157.475 42.141 157.529 42.4301 157.551 42.7226Z" fill="#E0E0E0"/>
<path d="M182.861 34.1201C182.529 34.2405 182.188 34.3321 181.841 34.394C181.181 34.5466 180.224 34.7666 179.056 35.0764C176.711 35.678 173.499 36.6253 170.004 37.8195C166.509 39.0137 163.391 40.2439 161.163 41.1957C160.044 41.6446 159.15 42.0622 158.53 42.336C158.216 42.4986 157.889 42.6323 157.551 42.7356C157.833 42.5307 158.133 42.3532 158.449 42.2058C159.051 41.8871 159.932 41.4471 161.037 40.9488C163.247 39.9341 166.36 38.6636 169.864 37.4604C172.855 36.4263 175.895 35.5437 178.975 34.816C180.156 34.5376 181.122 34.367 181.792 34.2458C182.143 34.1676 182.501 34.1254 182.861 34.1201Z" fill="#E0E0E0"/>
<path d="M150.401 73.2434C150.316 73.1544 150.241 73.0566 150.177 72.9516L149.597 72.0537C149.094 71.2905 148.402 70.1681 147.558 68.7673C145.873 65.9703 143.667 62.033 141.291 57.6601C138.914 53.2873 136.745 49.332 135.118 46.5036C134.328 45.1298 133.672 43.9984 133.187 43.1589C132.976 42.7952 132.805 42.4944 132.666 42.2609C132.598 42.1571 132.544 42.0456 132.504 41.9287C132.504 41.9287 132.594 42.023 132.729 42.2205L133.308 43.1184C133.811 43.8817 134.507 45.0041 135.348 46.4003C137.037 49.1973 139.242 53.1347 141.637 57.512C144.031 61.8893 146.179 65.8401 147.805 68.6686L149.737 72.0133L150.262 72.9112C150.324 73.0148 150.371 73.1267 150.401 73.2434Z" fill="#E0E0E0"/>
<path d="M183.355 57.1162C183.355 57.1162 183.252 57.1925 183.037 57.3093L182.08 57.7896L178.553 59.5226C175.575 60.9862 171.482 63.0559 166.967 65.3591C162.453 67.6622 158.333 69.687 155.323 71.0877C153.818 71.7926 152.596 72.3448 151.729 72.713L150.746 73.1305C150.633 73.1872 150.514 73.228 150.391 73.2517C150.49 73.1741 150.599 73.1093 150.714 73.0587L151.671 72.5783L155.197 70.8453C158.176 69.3817 162.264 67.312 166.783 65.0089C171.302 62.7057 175.413 60.6809 178.423 59.2802C179.928 58.5753 181.15 58.0231 182.017 57.655L183.005 57.2374C183.116 57.1811 183.234 57.1403 183.355 57.1162Z" fill="#E0E0E0"/>
<path d="M240.54 26.6322C240.54 19.3097 232.84 14.6675 224.987 18.34C223.214 19.1702 221.764 20.56 220.859 22.2953C218.882 26.1204 219.754 30.4887 221.546 34.1118L227.656 49.5919C227.848 50.0855 228.185 50.5095 228.623 50.8085C229.061 51.1074 229.578 51.2674 230.108 51.2674C230.639 51.2674 231.156 51.1074 231.594 50.8085C232.032 50.5095 232.369 50.0855 232.561 49.5919L238.545 34.0131C240.629 29.2721 240.54 26.6322 240.54 26.6322ZM233.154 33.0074C227.876 36.0738 222.53 30.4034 225.423 24.8094C225.797 24.0625 226.379 23.439 227.099 23.0136C232.377 19.9472 237.727 25.6176 234.83 31.2116C234.455 31.9586 233.874 32.582 233.154 33.0074Z" fill="#F5F5F5"/>
<path d="M304.218 175.883C304.218 175.946 236.833 176 153.724 176C70.6157 176 3.23047 175.946 3.23047 175.883C3.23047 175.82 70.6157 175.767 153.724 175.767C236.833 175.767 304.218 175.816 304.218 175.883Z" fill="#2B3085"/>
<path d="M130.901 175.883L71.1892 175.605C67.7426 175.584 64.4449 174.198 62.0183 171.752C59.5916 169.306 58.2338 165.998 58.2422 162.554L58.8756 12.9435C58.8959 9.49667 60.2829 6.19851 62.7326 3.77216C65.1824 1.34582 68.4949 -0.0106928 71.9439 6.34835e-05L131.656 0.273927C135.104 0.295299 138.402 1.68138 140.829 4.1285C143.255 6.57563 144.613 9.88428 144.603 13.3296L143.97 162.94C143.95 166.387 142.562 169.685 140.113 172.111C137.663 174.538 134.35 175.894 130.901 175.883Z" fill="#2B3085"/>
<path d="M131.569 5.44117L119.992 5.3873C119.615 5.39372 119.242 5.47446 118.896 5.62488C118.55 5.77531 118.237 5.99247 117.975 6.26394C117.713 6.53541 117.507 6.85586 117.369 7.20695C117.231 7.55804 117.164 7.93287 117.171 8.31V10.4066C117.178 10.784 117.111 11.159 116.973 11.5104C116.835 11.8617 116.629 12.1825 116.367 12.4543C116.105 12.7261 115.792 12.9437 115.446 13.0946C115.1 13.2455 114.727 13.3268 114.35 13.3338L91.7847 13.2261C91.4069 13.2168 91.0347 13.133 90.6894 12.9796C90.3441 12.8262 90.0325 12.6062 89.7724 12.3321C89.5124 12.0581 89.3091 11.7354 89.1741 11.3826C89.0392 11.0299 88.9752 10.6539 88.986 10.2764V8.17981C89.0053 7.41801 88.7215 6.67966 88.1969 6.12669C87.6722 5.57373 86.9495 5.25131 86.1873 5.23016H82.1127L71.9825 5.18078C70.7857 5.17487 69.5994 5.40467 68.4916 5.85706C67.3837 6.30945 66.3758 6.97556 65.5256 7.81733C64.6754 8.6591 63.9994 9.66004 63.5364 10.763C63.0734 11.8659 62.8323 13.0492 62.827 14.2452L62.2071 160.277C62.1975 162.691 63.147 165.009 64.8469 166.723C66.5468 168.437 68.858 169.406 71.2727 169.418L130.868 169.692C132.065 169.697 133.25 169.467 134.358 169.014C135.465 168.562 136.472 167.896 137.322 167.054C138.172 166.212 138.847 165.211 139.31 164.109C139.773 163.006 140.014 161.823 140.019 160.628L140.639 14.5999C140.646 13.4031 140.417 12.2166 139.965 11.1084C139.513 10.0002 138.846 8.99187 138.004 8.14122C137.162 7.29058 136.16 6.61426 135.055 6.15096C133.951 5.68765 132.767 5.44646 131.569 5.44117Z" fill="#FAFAFA"/>
<path d="M62.75 31.7549H72.5164L81.2315 40.4646L72.175 49.5201L62.8533 40.2087L62.75 31.7549Z" fill="#EBEBEB"/>
<path d="M83.2242 36.644L78.332 31.7549H89.3428L83.2242 36.644Z" fill="#EBEBEB"/>
<path d="M87.5039 40.6354L96.0798 32.0693H126.044C126.044 32.0693 130.63 52.5418 112.567 65.6827L87.5039 40.6354Z" fill="#EBEBEB"/>
<path d="M83.8335 43.3691L74.6602 52.5413L100.046 77.9119L109.22 68.4344L83.8335 43.3691Z" fill="#EBEBEB"/>
<path d="M62.6445 57.7362L68.3902 51.7741L62.7523 46.1396L62.6445 57.7362Z" fill="#EBEBEB"/>
<path d="M71.832 55.2891L63 64.1156V76.3811L81.2345 95.0262L96.6837 80.6596L71.832 55.2891Z" fill="#EBEBEB"/>
<path d="M115.996 68.2406C115.996 68.2406 134.918 54.3768 128.799 32.0547H140.565L140.421 95.0658L115.996 68.2406Z" fill="#EBEBEB"/>
<path d="M112.448 71.8916L103.297 81.4409L131.352 109.474L139.932 100.387L112.448 71.8916Z" fill="#EBEBEB"/>
<path d="M99.4771 84.0537L85.1016 98.3216L113.857 126.862L128.21 112.993L99.4771 84.0537Z" fill="#EBEBEB"/>
<path d="M91.9414 155.541L113.922 132.766L134.834 154.069L91.9414 155.541Z" fill="#EBEBEB"/>
<path d="M117.352 129.83L140.263 107.162C140.263 108.168 140.065 154.177 140.065 154.177L117.352 129.83Z" fill="#EBEBEB"/>
<path d="M97.7513 117.093L110.739 130.072L85.1008 156.52L73.25 142.315L97.7513 117.093Z" fill="#EBEBEB"/>
<path d="M62.6602 144.16C63.8866 144.034 95.2926 114.646 95.2926 114.646L62.6602 80.8525V144.16Z" fill="#EBEBEB"/>
<path d="M62.207 150.854L69.7677 144.16L80.2393 156.52H62.207V151.792" fill="#EBEBEB"/>
<path d="M71.9923 22.8566C71.1939 22.265 70.4429 21.612 69.7461 20.9037V20.7331L69.773 20.7061L69.827 20.6522L69.9393 20.549L70.1549 20.3514L70.5637 19.9743L71.269 19.3458C71.4728 19.1355 71.7058 18.9556 71.9608 18.8115C71.8113 19.0439 71.6332 19.2565 71.4307 19.4446L70.7569 20.109L70.3571 20.4951L70.1414 20.6971L70.0336 20.8004L69.9797 20.8543L69.9482 20.8812V20.7106C70.6843 21.3718 71.3678 22.0893 71.9923 22.8566Z" fill="#2B3085"/>
<path d="M134.087 19.4312C134.087 19.5271 134.059 19.6208 134.005 19.7005C133.952 19.7803 133.876 19.8424 133.788 19.8791C133.699 19.9158 133.602 19.9254 133.507 19.9067C133.413 19.888 133.327 19.8418 133.259 19.774C133.191 19.7062 133.145 19.6198 133.127 19.5258C133.108 19.4317 133.117 19.3342 133.154 19.2456C133.191 19.157 133.253 19.0813 133.333 19.028C133.412 18.9747 133.506 18.9463 133.602 18.9463C133.731 18.9463 133.854 18.9974 133.945 19.0883C134.036 19.1792 134.087 19.3026 134.087 19.4312Z" fill="#2B3085"/>
<path d="M133.944 20.7593C134.013 20.8277 134.06 20.9149 134.079 21.0099C134.098 21.1048 134.088 21.2033 134.051 21.2928C134.014 21.3822 133.951 21.4587 133.871 21.5125C133.79 21.5663 133.696 21.5951 133.599 21.5951C133.502 21.5951 133.407 21.5663 133.327 21.5125C133.246 21.4587 133.184 21.3822 133.147 21.2928C133.11 21.2033 133.1 21.1048 133.119 21.0099C133.138 20.9149 133.185 20.8277 133.253 20.7593C133.345 20.6688 133.469 20.6182 133.599 20.6182C133.728 20.6182 133.852 20.6688 133.944 20.7593Z" fill="#2B3085"/>
<path d="M134.087 22.7798C134.087 22.8757 134.059 22.9694 134.005 23.0492C133.952 23.1289 133.876 23.1911 133.788 23.2278C133.699 23.2645 133.602 23.2741 133.507 23.2554C133.413 23.2366 133.327 23.1905 133.259 23.1227C133.191 23.0548 133.145 22.9684 133.127 22.8744C133.108 22.7803 133.117 22.6828 133.154 22.5942C133.191 22.5056 133.253 22.4299 133.333 22.3766C133.412 22.3234 133.506 22.2949 133.602 22.2949C133.731 22.2949 133.854 22.346 133.945 22.4369C134.036 22.5279 134.087 22.6512 134.087 22.7798Z" fill="#2B3085"/>
<path d="M113.035 21.4199H92.0195V23.1709H113.035V21.4199Z" fill="#2B3085"/>
<path d="M110.755 52.8507C110.755 44.6707 102.152 39.4853 93.3829 43.5887C91.4003 44.5136 89.7786 46.0664 88.7693 48.0065C86.559 52.276 87.5339 57.1562 89.5375 61.2058L96.3614 78.4951C96.5797 79.045 96.9589 79.5163 97.4494 79.8474C97.9399 80.1785 98.5189 80.3541 99.1109 80.3512C99.7028 80.3483 100.28 80.167 100.767 79.8311C101.255 79.4952 101.629 79.0202 101.842 78.4682L108.531 61.0936C110.849 55.8004 110.755 52.8507 110.755 52.8507ZM102.516 59.9712C96.6174 63.3967 90.6426 57.0619 93.8771 50.8124C94.3015 49.9889 94.9491 49.3013 95.7459 48.8281C101.644 45.4025 107.619 51.7373 104.385 57.9868C103.96 58.8103 103.313 59.498 102.516 59.9712Z" fill="#E8505B"/>
<path d="M289.44 115.288H40.1953V151.838H289.44V115.288Z" fill="#E8505B"/>
<g opacity="0.5">
<path opacity="0.5" d="M289.44 115.288H40.1953V151.838H289.44V115.288Z" fill="#2B3085"/>
</g>
<path d="M75.2972 175.557C88.5409 174.667 98.5545 163.215 97.6633 149.98C96.772 136.744 85.3134 126.737 72.0697 127.627C58.826 128.518 48.8123 139.97 49.7036 153.205C50.5949 166.441 62.0535 176.448 75.2972 175.557Z" fill="#2B3085"/>
<path d="M49.6626 151.187C49.6626 151.209 49.6626 151.227 49.6626 151.249C49.5709 157.62 52.0151 163.765 56.4575 168.335C60.8999 172.904 66.9766 175.523 73.3508 175.614C79.725 175.706 85.8746 173.263 90.4468 168.824C95.0189 164.384 97.639 158.311 97.7308 151.941C97.7308 151.918 97.7308 151.9 97.7308 151.878L49.6626 151.187Z" fill="#2B3085"/>
<path d="M56.8183 151.352C56.7688 154.687 57.7102 157.962 59.5232 160.763C61.3362 163.563 63.9395 165.763 67.0037 167.085C70.068 168.406 73.4556 168.79 76.7381 168.187C80.0206 167.585 83.0506 166.023 85.4449 163.699C87.8391 161.376 89.49 158.394 90.1889 155.133C90.8877 151.872 90.6031 148.476 89.3709 145.377C88.1388 142.277 86.0145 139.612 83.2668 137.719C80.519 135.826 77.2712 134.789 73.9341 134.741C69.4604 134.676 65.1442 136.39 61.9345 139.505C58.7248 142.62 56.8845 146.882 56.8183 151.352Z" fill="#FAFAFA"/>
<path d="M73.9323 134.731C69.4586 134.666 65.1423 136.38 61.9326 139.495C58.7229 142.61 56.8826 146.872 56.8164 151.343L90.5584 151.828C90.6208 147.357 88.9045 143.045 85.7868 139.84C82.6691 136.634 78.4051 134.796 73.9323 134.731Z" fill="#E0E0E0"/>
<path d="M63.4112 151.446C63.3821 153.478 63.9564 155.472 65.0616 157.178C66.1668 158.883 67.7532 160.222 69.6202 161.027C71.4871 161.831 73.5508 162.064 75.5502 161.696C77.5496 161.328 79.3949 160.375 80.8527 158.959C82.3105 157.543 83.3154 155.727 83.7402 153.74C84.1651 151.753 83.9908 149.685 83.2394 147.797C82.4881 145.909 81.1934 144.286 79.5192 143.134C77.8449 141.981 75.8663 141.351 73.8335 141.322C71.1081 141.284 68.4791 142.329 66.5246 144.227C64.5702 146.126 63.4503 148.723 63.4112 151.446Z" fill="#2B3085"/>
<path d="M258.871 175.552C272.123 174.784 282.242 163.425 281.473 150.182C280.704 136.939 269.339 126.826 256.087 127.594C242.836 128.363 232.717 139.721 233.486 152.964C234.254 166.207 245.62 176.32 258.871 175.552Z" fill="#2B3085"/>
<path d="M233.444 151.187C233.444 151.209 233.444 151.227 233.444 151.249C233.398 154.404 233.975 157.536 235.141 160.467C236.307 163.399 238.039 166.072 240.239 168.335C244.681 172.904 250.758 175.523 257.132 175.614C263.506 175.706 269.656 173.263 274.228 168.824C278.8 164.384 281.42 158.311 281.512 151.941C281.512 151.918 281.512 151.9 281.512 151.878L233.444 151.187Z" fill="#2B3085"/>
<path d="M240.6 151.352C240.55 154.687 241.491 157.962 243.304 160.763C245.117 163.563 247.721 165.763 250.785 167.085C253.849 168.406 257.237 168.79 260.519 168.187C263.802 167.585 266.832 166.023 269.226 163.699C271.62 161.376 273.271 158.394 273.97 155.133C274.669 151.872 274.384 148.476 273.152 145.377C271.92 142.277 269.796 139.612 267.048 137.719C264.3 135.826 261.052 134.789 257.715 134.741C253.242 134.676 248.925 136.39 245.716 139.505C242.506 142.62 240.666 146.882 240.6 151.352Z" fill="#FAFAFA"/>
<path d="M257.713 134.731C253.24 134.666 248.924 136.38 245.714 139.495C242.504 142.61 240.664 146.872 240.598 151.343L274.34 151.828C274.402 147.357 272.686 143.045 269.568 139.84C266.45 136.634 262.186 134.796 257.713 134.731Z" fill="#E0E0E0"/>
<path d="M247.192 151.447C247.163 153.479 247.738 155.473 248.843 157.179C249.948 158.884 251.534 160.223 253.401 161.028C255.268 161.832 257.332 162.065 259.331 161.697C261.331 161.329 263.176 160.376 264.634 158.96C266.092 157.544 267.097 155.728 267.521 153.741C267.946 151.754 267.772 149.686 267.021 147.798C266.269 145.91 264.975 144.287 263.3 143.135C261.626 141.982 259.648 141.352 257.615 141.323C254.89 141.286 252.261 142.331 250.307 144.23C248.353 146.128 247.233 148.724 247.192 151.447Z" fill="#2B3085"/>
<path d="M105.192 94.7297C105.192 94.7297 69.8014 97.3382 56.6747 100.279C47.4385 102.362 29.6128 105.922 29.8284 117.133L31.2435 125.165C31.2435 125.165 24.6263 128.186 24.6263 135.886C24.6263 143.585 23.0136 155.536 38.4493 156.012C40.9919 156.093 45.8257 156.012 45.8257 156.012C45.8257 156.012 42.8608 123.162 73.0628 122.201C103.781 121.223 101.742 155.712 101.742 155.712H229.967C229.967 155.712 224.702 122.116 257.775 122.062C290.847 122.008 285.816 155.932 285.816 155.932C285.816 155.932 297.981 156.982 303.646 146.764C309.311 136.546 307.833 129.255 307.833 129.255L307.644 122.794C307.609 121.738 307.174 120.734 306.429 119.984C305.683 119.234 304.681 118.795 303.624 118.753C303.624 118.753 305.834 102.488 302.442 99.6728C299.05 96.8578 280.466 79.8783 280.466 79.8783L281.364 79.3215C281.697 79.1111 281.964 78.8107 282.133 78.455C282.302 78.0994 282.367 77.7031 282.32 77.3121C282.273 76.9211 282.116 76.5515 281.867 76.246C281.618 75.9405 281.288 75.7118 280.915 75.5862C273.857 73.1619 259.904 68.367 256.625 67.2177C256.133 67.0468 255.621 66.9397 255.102 66.8989C253.143 66.7463 247.6 66.3961 237.429 66.2883C225.03 66.1581 175.821 66.2883 175.821 66.2883C175.821 66.2883 158.885 67.6801 149.451 71.833C139.536 76.2013 105.192 94.7297 105.192 94.7297Z" fill="#E8505B"/>
<g opacity="0.4">
<path opacity="0.4" d="M33.6026 134.996C32.3177 134.736 30.3501 134.709 29.3708 135.58C28.643 136.227 28.4723 137.268 28.342 138.233C28.1357 139.556 28.1661 140.904 28.4319 142.216C28.5661 142.871 28.835 143.492 29.2217 144.038C29.6083 144.585 30.1042 145.045 30.678 145.39C31.8505 146.027 33.4588 145.924 34.3707 144.941C35.2063 144.043 35.3007 142.696 35.2692 141.493C35.2378 139.76 35.377 138.292 35.0581 136.59C34.9855 136.231 34.8319 135.893 34.6088 135.603C34.4969 135.428 34.3463 135.282 34.1686 135.175C33.991 135.069 33.7911 135.004 33.5846 134.987" fill="#2B3085"/>
</g>
<path d="M31.2432 125.165C34.9988 125.165 38.6421 124.959 42.3932 124.716C42.6189 124.757 42.8513 124.739 43.0682 124.665C43.2851 124.59 43.4794 124.462 43.6328 124.291C43.7862 124.121 43.8935 123.914 43.9447 123.691C43.9958 123.468 43.9891 123.235 43.9251 123.015C43.9251 121.003 43.8443 118.718 42.3169 117.407C41.3825 116.604 40.1021 116.357 38.8802 116.24C35.8332 115.914 32.7515 116.219 29.8281 117.138L31.2432 125.165Z" fill="#FAFAFA"/>
<path d="M109.254 154.684C109.254 154.684 109.254 154.576 109.223 154.365C109.192 154.154 109.187 153.831 109.16 153.422C109.115 152.587 109.048 151.366 108.962 149.799C108.877 148.232 108.769 146.302 108.545 144.075C108.305 141.553 107.854 139.055 107.197 136.609C106.384 133.652 105.175 130.819 103.603 128.186C101.815 125.15 99.4385 122.5 96.613 120.393C90.5483 116.087 82.3587 113.658 73.7918 113.546C65.2249 113.434 57.0444 116.154 51.1369 120.675C48.3018 122.769 45.818 125.3 43.7784 128.173C42.0008 130.67 40.5542 133.386 39.4748 136.254C38.5863 138.626 37.9757 141.092 37.6554 143.604C37.4048 145.499 37.3311 147.414 37.4352 149.323C37.5084 150.529 37.6585 151.729 37.8845 152.915C37.9564 153.319 38.0148 153.629 38.0507 153.844C38.0866 154.06 38.1001 154.163 38.1001 154.163C38.1001 154.163 38.0732 154.055 38.0282 153.849C37.9833 153.642 37.9204 153.324 37.8396 152.924C37.5948 151.739 37.4327 150.539 37.3544 149.332C37.2322 147.417 37.2924 145.494 37.5341 143.59C37.8464 141.066 38.4493 138.586 39.331 136.2C40.4066 133.309 41.8533 130.57 43.6347 128.052C45.6772 125.154 48.1705 122.602 51.0201 120.491C56.959 115.934 65.171 113.196 73.8098 113.308C82.4486 113.42 90.6426 115.863 96.7522 120.217C99.5957 122.345 101.983 125.022 103.774 128.088C105.35 130.738 106.559 133.589 107.368 136.564C108.01 139.022 108.443 141.53 108.661 144.062C108.877 146.306 108.967 148.219 109.039 149.795C109.111 151.371 109.16 152.583 109.196 153.418C109.196 153.831 109.223 154.141 109.232 154.361C109.241 154.581 109.254 154.684 109.254 154.684Z" fill="white"/>
<path d="M110.62 155.245C110.62 155.245 110.62 155.151 110.62 154.976L110.593 154.177C110.593 153.472 110.539 152.43 110.494 151.075C110.418 148.354 110.305 144.367 110.162 139.303C110.018 134.239 109.852 128.079 109.658 121.03C109.613 119.265 109.564 117.445 109.51 115.571C109.479 114.619 109.521 113.666 109.636 112.72C109.703 112.244 109.771 111.759 109.838 111.275C109.905 110.79 110.036 110.314 110.139 109.829C111.104 105.762 112.904 101.939 115.427 98.6051L137.632 84.6245L143.625 80.8488C145.647 79.5088 147.769 78.3261 149.973 77.311C152.219 76.2514 154.524 75.322 156.877 74.5275C158.054 74.1145 159.263 73.7733 160.471 73.4141C161.68 73.0549 162.911 72.7586 164.16 72.5162C168.87 71.5073 173.659 70.9064 178.472 70.7204C183.088 70.4985 187.712 70.5149 192.327 70.7697H192.457L192.43 70.8999C190.301 80.4043 188.297 89.361 186.46 97.5769C185.363 99.384 184.467 101.305 183.787 103.306C183.106 105.206 182.8 107.22 182.888 109.236C183.041 111.207 183.095 113.133 183.144 115.005C183.194 116.878 183.216 118.696 183.252 120.456C183.355 127.504 183.382 133.655 183.4 138.719C183.418 143.784 183.4 147.761 183.4 150.482C183.4 151.829 183.4 152.879 183.4 153.584C183.4 153.934 183.4 154.199 183.4 154.379C183.4 154.559 183.4 154.648 183.4 154.648C183.4 154.648 183.4 154.559 183.4 154.379C183.4 154.199 183.4 153.93 183.4 153.584C183.4 152.879 183.4 151.838 183.4 150.482C183.4 147.761 183.36 143.784 183.333 138.719C183.306 133.655 183.252 127.495 183.135 120.46C183.093 118.7 183.054 116.884 183.018 115.01C182.965 113.138 182.906 111.216 182.749 109.25C182.658 107.208 182.963 105.168 183.647 103.243C184.331 101.225 185.235 99.2892 186.343 97.4692V97.5006C188.171 89.2847 190.17 80.3235 192.286 70.8191L192.39 70.9583C187.784 70.7088 183.169 70.6953 178.562 70.9179C173.762 71.108 168.987 71.7088 164.29 72.7137C163.05 72.9651 161.833 73.3108 160.615 73.6116C159.398 73.9124 158.207 74.3075 157.021 74.7206C154.682 75.5026 152.388 76.417 150.152 77.4592C147.932 78.4815 145.795 79.6748 143.76 81.0284L137.758 84.7996L115.543 98.7712H115.566C114.287 100.442 113.196 102.249 112.313 104.159C111.451 105.988 110.783 107.902 110.319 109.869C109.308 113.717 109.82 117.502 109.825 121.03C110 128.079 110.153 134.23 110.274 139.298C110.395 144.367 110.489 148.349 110.552 151.075C110.584 152.421 110.606 153.472 110.62 154.177C110.62 154.527 110.62 154.792 110.62 154.972V155.245Z" fill="#2B3085"/>
<path d="M192.172 71.5277H192.383H192.998L195.384 71.4693L204.229 71.2942L234.054 70.751H234.112L234.148 70.7914L238.326 75.905L250.258 90.5275L251.606 92.1932C252.897 93.8058 253.606 95.8069 253.618 97.8724C253.629 99.1315 253.383 100.38 252.895 101.54L251.547 104.683C249.809 108.724 248.403 111.956 247.423 114.219C246.934 115.332 246.552 116.203 246.291 116.805L245.99 117.474C245.923 117.627 245.882 117.698 245.882 117.698C245.882 117.698 245.909 117.618 245.968 117.465C246.026 117.312 246.129 117.079 246.246 116.787C246.502 116.181 246.866 115.305 247.338 114.183C248.299 111.938 249.683 108.647 251.381 104.62C252.154 102.586 253.515 100.454 253.421 97.85C253.401 96.5266 253.094 95.2232 252.522 94.0294C252.222 93.4088 251.854 92.8231 251.426 92.2829L250.078 90.6218C246.404 86.1322 242.369 81.1937 238.133 76.0127L233.964 70.9351L234.054 70.9755L204.234 71.4244L195.384 71.5322H192.998H192.172V71.5277Z" fill="#2B3085"/>
<path d="M177.118 111.157C177.118 111.157 177.243 111.157 177.472 111.103C177.811 111.045 178.133 110.918 178.42 110.73C178.87 110.43 179.206 109.99 179.377 109.478C179.48 109.159 179.523 108.824 179.503 108.49C179.492 108.117 179.397 107.752 179.224 107.422C179.023 107.047 178.724 106.732 178.36 106.511C177.996 106.29 177.579 106.171 177.153 106.164H174.126H167.185C166.608 106.165 166.052 106.378 165.622 106.762C165.192 107.146 164.918 107.675 164.853 108.248C164.779 108.793 164.88 109.348 165.141 109.832C165.398 110.291 165.801 110.652 166.286 110.856C166.767 111.019 167.277 111.08 167.782 111.036H169.251H171.893L175.716 111.072H176.754C176.875 111.069 176.997 111.077 177.118 111.094C176.997 111.107 176.875 111.107 176.754 111.094L175.716 111.116L171.893 111.152H169.251H167.782C167.526 111.152 167.279 111.152 167.005 111.152C166.581 111.124 166.171 110.992 165.811 110.766C165.451 110.54 165.153 110.229 164.943 109.859C164.661 109.333 164.549 108.732 164.624 108.14C164.695 107.51 164.995 106.928 165.467 106.505C165.939 106.082 166.551 105.847 167.185 105.846H174.126H177.158C177.616 105.855 178.063 105.988 178.452 106.23C178.84 106.472 179.157 106.813 179.368 107.22C179.549 107.575 179.646 107.966 179.651 108.364C179.665 108.715 179.615 109.065 179.503 109.397C179.315 109.93 178.95 110.383 178.47 110.681C178.169 110.866 177.832 110.984 177.481 111.027C177.367 111.087 177.244 111.13 177.118 111.157Z" fill="#2B3085"/>
<path d="M243.575 111.157C243.575 111.157 243.7 111.157 243.929 111.103C244.268 111.045 244.59 110.918 244.877 110.73C245.327 110.43 245.663 109.99 245.834 109.478C245.937 109.159 245.98 108.824 245.96 108.49C245.949 108.117 245.854 107.752 245.682 107.422C245.48 107.047 245.181 106.732 244.817 106.511C244.453 106.29 244.037 106.171 243.611 106.164H240.583H233.642C233.065 106.165 232.509 106.378 232.079 106.762C231.649 107.146 231.376 107.675 231.31 108.248C231.236 108.793 231.337 109.348 231.598 109.832C231.855 110.291 232.258 110.652 232.744 110.856C233.224 111.019 233.734 111.08 234.239 111.036H235.708H238.35L242.173 111.072H243.211C243.332 111.069 243.454 111.077 243.575 111.094C243.454 111.107 243.332 111.107 243.211 111.094L242.173 111.116L238.35 111.152H235.708H234.239C233.983 111.152 233.736 111.152 233.462 111.152C233.038 111.124 232.628 110.992 232.268 110.766C231.908 110.54 231.61 110.229 231.4 109.859C231.118 109.333 231.006 108.732 231.081 108.14C231.152 107.51 231.452 106.928 231.924 106.505C232.396 106.082 233.008 105.847 233.642 105.846H240.583H243.615C244.073 105.855 244.52 105.988 244.909 106.23C245.297 106.472 245.614 106.813 245.825 107.22C246.006 107.575 246.103 107.966 246.108 108.364C246.123 108.715 246.072 109.065 245.96 109.397C245.772 109.93 245.407 110.383 244.927 110.681C244.626 110.866 244.289 110.984 243.938 111.027C243.824 111.087 243.701 111.13 243.575 111.157Z" fill="#2B3085"/>
<path d="M301.849 100.319H288.552C287.658 100.319 286.781 100.564 286.016 101.026C285.251 101.488 284.628 102.15 284.212 102.941C283.869 103.595 283.677 104.317 283.651 105.055C283.626 105.792 283.767 106.526 284.064 107.202L289.28 119.036L302.59 118.906C302.59 118.906 305.425 103.902 301.849 100.319Z" fill="#FAFAFA"/>
<path d="M117.172 98.6456L185.784 97.384L230.437 96.5624L245.163 88.0682C245.444 87.9056 245.687 87.6852 245.876 87.4217C246.066 87.1581 246.196 86.8575 246.261 86.5395C246.325 86.2216 246.321 85.8937 246.248 85.5775C246.176 85.2613 246.038 84.9641 245.842 84.7055L236.673 72.6689C236.202 72.0498 235.594 71.5469 234.898 71.199C234.202 70.8511 233.435 70.6674 232.657 70.6621L182.711 70.2536C182.711 70.2536 163.906 69.1626 149.09 77.4369C133.493 86.2005 117.172 98.6456 117.172 98.6456Z" fill="#2B3085"/>
<path d="M148.62 71.4971C148.62 71.4971 152.056 73.0639 149.819 74.5185C147.582 75.9732 112.82 97.8643 112.82 97.8643L104.828 94.2816C118.984 86.3755 133.278 78.7208 148.62 71.4971Z" fill="#2B3085"/>
<path d="M113.94 98.4199C113.94 98.4199 113.868 98.4424 113.725 98.4738L113.091 98.6085L110.652 99.1158C108.532 99.5378 105.459 100.126 101.667 100.781C94.0302 102.092 83.4642 103.619 71.7077 104.638C68.7653 104.894 65.8946 105.087 63.1184 105.284C60.3421 105.482 57.6647 105.635 55.122 105.868C50.0322 106.317 45.4769 107.049 41.7752 108.153C38.8389 108.978 36.0136 110.155 33.361 111.66C32.4042 112.162 31.7258 112.656 31.2407 112.953L30.6926 113.303L30.5039 113.415C30.5597 113.367 30.6182 113.322 30.6791 113.28L31.2137 112.917C31.8915 112.433 32.5932 111.983 33.3161 111.57C35.9606 110.028 38.7871 108.821 41.7303 107.978C45.4365 106.856 50.0097 106.097 55.0995 105.639C57.6467 105.401 60.3286 105.226 63.1004 105.042C65.8722 104.858 68.7473 104.647 71.6853 104.391C83.4373 103.376 94.0168 101.872 101.64 100.606C105.454 99.9733 108.527 99.4076 110.656 99.0125L113.1 98.5636L113.738 98.4469C113.864 98.4244 113.94 98.4199 113.94 98.4199Z" fill="#2B3085"/>
<path d="M307.161 129.125C307.161 129.187 302.588 129.241 296.95 129.241C291.312 129.241 286.734 129.187 286.734 129.125C286.734 129.062 291.308 129.008 296.95 129.008C302.592 129.008 307.161 129.062 307.161 129.125Z" fill="#2B3085"/>
<path d="M223.5 140.789C223.5 140.851 197.687 140.905 165.85 140.905C134.013 140.905 108.195 140.851 108.195 140.789C108.195 140.726 134.004 140.672 165.85 140.672C197.696 140.672 223.5 140.721 223.5 140.789Z" fill="#2B3085"/>
<path d="M42.7559 129.51C42.7559 129.573 39.1036 129.627 34.6022 129.627C30.1009 129.627 26.4531 129.573 26.4531 129.51C26.4531 129.447 30.1009 129.394 34.6022 129.394C39.1036 129.394 42.7559 129.447 42.7559 129.51Z" fill="#2B3085"/>
<path d="M280.097 79.4111C280.097 79.4111 277.033 82.8412 278.237 85.3553C279.441 87.8695 291.89 96.6735 291.89 96.6735L300.924 98.3706L280.097 79.4111Z" fill="#2B3085"/>
<path d="M194.202 73.2793L192.172 95.2019L228.524 94.1648L243.174 85.657L233.69 73.2793H194.202Z" fill="#2B3085"/>
<path d="M125.789 96.3241C125.789 96.3241 147.721 80.4939 156.373 77.3512C164.724 74.3118 169.077 73.553 176.921 73.3106C184.419 73.0996 188.987 73.3106 188.987 73.3106L183.183 95.6282L125.789 96.3241Z" fill="#2B3085"/>
<path d="M122.57 96.3955C122.571 95.7145 122.752 95.0457 123.096 94.458C123.44 93.8702 123.935 93.3845 124.529 93.0508L129.569 90.2223C131.005 89.4146 132.625 88.9909 134.273 88.9922C135.289 88.9917 136.299 89.1523 137.265 89.4681C138.314 89.8311 139.227 90.5052 139.883 91.4004C140.539 92.2956 140.906 93.3694 140.935 94.4784C140.964 95.2245 140.842 95.9687 140.576 96.6665C140.31 97.3643 139.906 98.0012 139.388 98.5391C138.87 99.077 138.249 99.5048 137.561 99.7969C136.874 100.089 136.134 100.239 135.387 100.239H126.402C125.384 100.236 124.409 99.8301 123.691 99.1095C122.972 98.3889 122.569 97.4128 122.57 96.3955Z" fill="#E8505B"/>
<path d="M122.57 96.395C122.57 96.395 122.57 96.5656 122.629 96.8843C122.697 97.3465 122.849 97.7923 123.078 98.1998C123.441 98.8397 123.977 99.3653 124.623 99.7173C125.027 99.9299 125.465 100.068 125.917 100.126C126.393 100.18 126.923 100.126 127.467 100.153L135.153 100.13C135.882 100.148 136.607 100.029 137.292 99.7801C138.014 99.5093 138.671 99.0894 139.219 98.5479C139.768 98.0064 140.197 97.3555 140.477 96.6374C140.758 95.8792 140.872 95.0688 140.809 94.2624C140.753 93.4634 140.52 92.6867 140.128 91.9881C139.736 91.2895 139.194 90.6863 138.541 90.2218C137.912 89.7962 137.205 89.4987 136.461 89.3464C135.749 89.1758 135.019 89.0899 134.286 89.0905C132.926 89.0843 131.581 89.3723 130.342 89.9345C129.763 90.1904 129.232 90.5181 128.707 90.801L127.206 91.636L124.623 93.0682C123.975 93.4174 123.443 93.9478 123.091 94.5947C122.864 95.0027 122.712 95.4483 122.642 95.9101C122.597 96.2289 122.602 96.395 122.588 96.395C122.571 96.2323 122.571 96.0683 122.588 95.9056C122.638 95.4342 122.778 94.9768 123.002 94.5587C123.354 93.8868 123.896 93.3328 124.56 92.965L127.126 91.5058L128.617 90.6573C129.138 90.37 129.668 90.0378 130.261 89.7594C131.528 89.1713 132.907 88.865 134.304 88.8615C135.061 88.8571 135.815 88.943 136.551 89.1174C137.324 89.2733 138.059 89.5783 138.716 90.0153C139.393 90.498 139.956 91.1233 140.365 91.847C140.774 92.5708 141.019 93.3753 141.083 94.2041C141.149 95.0458 141.029 95.8917 140.733 96.6823C140.443 97.4329 139.997 98.1133 139.423 98.6783C138.85 99.2434 138.163 99.6801 137.409 99.9597C136.7 100.219 135.948 100.341 135.194 100.319L127.507 100.292C126.984 100.305 126.461 100.29 125.94 100.247C125.467 100.181 125.01 100.029 124.592 99.7981C123.931 99.424 123.39 98.8717 123.029 98.2043C122.808 97.7851 122.67 97.3281 122.62 96.8574C122.591 96.7048 122.575 96.5502 122.57 96.395Z" fill="#2B3085"/>
<path d="M291.556 154.89C291.556 154.89 291.556 154.783 291.556 154.576C291.556 154.37 291.588 154.06 291.615 153.678C291.642 153.297 291.687 152.78 291.714 152.197C291.741 151.613 291.759 150.935 291.786 150.172C291.812 149.409 291.786 148.565 291.786 147.635C291.786 146.706 291.718 145.7 291.592 144.627C291.384 142.176 290.943 139.75 290.276 137.381C289.89 136.012 289.412 134.669 288.848 133.363C288.243 131.943 287.517 130.577 286.678 129.282C284.805 126.43 282.424 123.946 279.652 121.955C276.6 119.742 273.195 118.065 269.58 116.994C265.833 115.845 261.754 115.427 257.603 115.4C253.554 115.359 249.523 115.945 245.654 117.138C243.823 117.718 242.047 118.455 240.344 119.342C238.716 120.205 237.171 121.213 235.726 122.355C233.041 124.46 230.648 126.911 228.61 129.646C227.718 130.904 226.928 132.231 226.247 133.614C225.633 134.899 225.09 136.217 224.62 137.561C223.182 141.621 222.31 145.86 222.028 150.158C221.956 151.68 221.961 152.852 222.001 153.665C222.024 154.06 222.042 154.365 222.055 154.563C222.069 154.76 222.055 154.877 222.055 154.877C222.055 154.877 222.055 154.769 222.019 154.567C221.983 154.365 221.979 154.051 221.943 153.669C221.884 152.498 221.884 151.325 221.943 150.154C222.191 145.841 223.042 141.584 224.472 137.507C224.943 136.155 225.487 134.83 226.103 133.538C226.781 132.14 227.572 130.801 228.47 129.533C230.513 126.778 232.914 124.307 235.609 122.184C237.065 121.033 238.621 120.014 240.258 119.14C241.975 118.25 243.765 117.509 245.609 116.927C249.501 115.726 253.557 115.135 257.63 115.176C261.799 115.203 265.896 115.625 269.674 116.783C273.314 117.864 276.741 119.558 279.809 121.793C281.231 122.836 282.56 124 283.78 125.273C284.941 126.468 285.975 127.78 286.866 129.188C287.709 130.492 288.435 131.868 289.036 133.3C289.601 134.614 290.078 135.964 290.465 137.341C291.117 139.713 291.541 142.143 291.732 144.596C291.853 145.678 291.853 146.688 291.907 147.617C291.961 148.547 291.907 149.413 291.907 150.158C291.907 150.904 291.844 151.595 291.817 152.183C291.79 152.771 291.727 153.265 291.696 153.665C291.664 154.064 291.628 154.361 291.61 154.563C291.592 154.765 291.556 154.89 291.556 154.89Z" fill="white"/>
<path d="M182.219 98.6448C182.219 98.6448 182.187 98.6448 182.116 98.6448H181.81L180.642 98.6673L176.329 98.7481C172.695 98.8154 167.668 98.9501 162.116 99.0983C156.563 99.2464 151.536 99.3587 147.897 99.3856C146.078 99.3856 144.604 99.3856 143.585 99.3856H142.417H142.111C142.039 99.3856 142.008 99.3856 142.008 99.3856C142.008 99.3856 142.039 99.3856 142.111 99.3856H142.417L143.585 99.3587L147.893 99.2823C151.532 99.215 156.559 99.0803 162.111 98.9277C167.664 98.775 172.691 98.6718 176.329 98.6448C178.149 98.6448 179.622 98.6448 180.642 98.6448H181.81H182.116C182.187 98.6359 182.219 98.6403 182.219 98.6448Z" fill="white"/>
<path d="M176.265 105.397C174.957 105.513 173.643 105.551 172.33 105.514C171.017 105.551 169.703 105.513 168.395 105.397C169.703 105.279 171.017 105.24 172.33 105.28C173.643 105.24 174.957 105.279 176.265 105.397Z" fill="white"/>
<path d="M177.711 81.3695C177.733 81.4323 172.85 83.4661 166.799 85.9129C160.748 88.3597 155.824 90.2947 155.797 90.2363C155.77 90.178 160.658 88.1442 166.713 85.6929C172.769 83.2416 177.688 81.3111 177.711 81.3695Z" fill="white"/>
<path d="M167.809 82.9046C167.836 82.963 163.182 85.0102 157.423 87.4795C151.664 89.9487 146.965 91.8972 146.938 91.8388C146.911 91.7805 151.565 89.7287 157.328 87.264C163.092 84.7992 167.787 82.8462 167.809 82.9046Z" fill="white"/>
<path d="M230.597 80.5208C230.624 80.5837 225.736 82.613 219.685 85.0643C213.634 87.5156 208.71 89.4461 208.688 89.3877C208.665 89.3293 213.548 87.2956 219.599 84.8443C225.651 82.393 230.574 80.4625 230.597 80.5208Z" fill="white"/>
<path d="M220.696 82.056C220.719 82.1143 216.069 84.1616 210.306 86.6308C204.542 89.1001 199.847 91.0486 199.82 90.9902C199.793 90.9318 204.448 88.8801 210.211 86.4153C215.975 83.9506 220.669 81.9976 220.696 82.056Z" fill="white"/>
<path d="M231.55 98.6404C231.55 98.7077 221.833 98.8155 209.847 98.8873C197.861 98.9592 188.145 98.9636 188.145 98.8873C188.145 98.811 197.857 98.7122 209.847 98.6404C221.837 98.5686 231.55 98.5776 231.55 98.6404Z" fill="white"/>
<path d="M242.311 105.02C242.311 105.087 239.589 105.163 236.224 105.195C232.859 105.226 230.137 105.195 230.137 105.132C230.137 105.069 232.859 104.993 236.224 104.961C239.589 104.93 242.311 104.957 242.311 105.02Z" fill="white"/>
<path d="M56.2583 101.702C56.1726 101.73 56.0834 101.747 55.9932 101.751L55.234 101.85C54.9016 101.89 54.4973 101.94 54.0301 102.016C53.5629 102.092 53.0283 102.16 52.4443 102.276C51.2718 102.478 49.8881 102.788 48.3652 103.174C46.8423 103.56 45.2206 104.122 43.509 104.777C41.9231 105.408 40.3698 106.119 38.8549 106.905C37.4623 107.641 36.2359 108.355 35.2611 109.002C34.7534 109.312 34.3132 109.626 33.9133 109.9C33.5135 110.174 33.1856 110.398 32.916 110.596L32.2916 111.044C32.2224 111.102 32.1452 111.149 32.0625 111.184C32.1231 111.117 32.1909 111.056 32.2647 111.004L32.8621 110.528C33.1227 110.317 33.4461 110.079 33.837 109.796C34.2278 109.514 34.6591 109.199 35.1622 108.898C36.1505 108.234 37.3725 107.498 38.7561 106.748C41.7866 105.134 44.9947 103.877 48.3158 103.004C49.8432 102.609 51.2403 102.317 52.4218 102.133C53.0103 102.025 53.5449 101.967 54.0166 101.904C54.4883 101.841 54.9151 101.805 55.2296 101.778L55.9932 101.724C56.0801 101.704 56.1693 101.697 56.2583 101.702Z" fill="white"/>
<path d="M136.482 91.1114C136.339 90.9643 136.19 90.8249 136.032 90.6938C135.603 90.3607 135.09 90.1525 134.55 90.0922C133.743 90.0286 132.93 90.1169 132.156 90.3526C131.187 90.594 130.241 90.9153 129.325 91.3134C127.66 92.0351 126.109 92.9988 124.725 94.1732C123.656 95.0712 123.09 95.7311 123.059 95.6997C123.166 95.5262 123.293 95.3651 123.436 95.2193C123.808 94.8076 124.203 94.4164 124.617 94.0475C125.987 92.8233 127.545 91.8274 129.231 91.0979C130.159 90.6975 131.119 90.3775 132.102 90.1416C132.903 89.9101 133.743 89.8384 134.572 89.9306C135.135 90.0086 135.663 90.2488 136.091 90.622C136.205 90.7249 136.306 90.841 136.392 90.9677C136.468 91.0575 136.491 91.1069 136.482 91.1114Z" fill="white"/>
<path d="M281.117 79.2549C280.491 79.4028 279.847 79.4677 279.204 79.448C278.447 79.4299 277.695 79.3366 276.957 79.1696C275.984 78.9435 275.028 78.6433 274.1 78.2717C273.063 77.8811 271.953 77.3738 270.758 76.8754L268.894 76.1212C268.251 75.8653 267.577 75.6453 266.89 75.3984C263.892 74.3794 260.835 73.5457 257.735 72.9022C252.099 71.7264 246.376 71.0146 240.623 70.7741C239.518 70.7158 238.521 70.7113 237.645 70.6888H235.399L233.979 70.7202H233.606H233.48C233.522 70.7158 233.564 70.7158 233.606 70.7202H233.975L235.399 70.6439L237.645 70.6035C238.543 70.6035 239.523 70.6035 240.628 70.6529C246.395 70.8455 252.136 71.5365 257.784 72.7181C260.893 73.3673 263.958 74.2085 266.962 75.2368C267.649 75.4927 268.31 75.7171 268.97 75.9775L270.834 76.7408C272.029 77.2615 273.13 77.7644 274.159 78.164C275.078 78.5291 276.023 78.8291 276.984 79.0619C277.713 79.234 278.456 79.3392 279.204 79.3761C279.676 79.3937 280.149 79.3757 280.619 79.3223L280.987 79.2774C281.029 79.2625 281.073 79.2549 281.117 79.2549Z" fill="#2B3085"/>
<path d="M64.9752 79.8699C63.1783 70.0467 61.9743 68.5382 60.9545 65.1576C59.9348 61.7769 58.3265 59.5815 56.3184 58.8093C54.9707 58.2885 48.2053 55.8507 45.8468 56.6588C43.5429 57.4753 41.3501 58.5763 39.3194 59.9362C37.7432 60.9799 36.5484 62.5064 35.9142 64.2866L32.3203 74.4195L38.6366 80.7274L41.8082 73.993L45.2493 82.0518L44.7417 90.2004L64.481 95.507C66.2645 92.6382 65.995 85.4459 64.9752 79.8699Z" fill="#E8505B"/>
<g opacity="0.2">
<path opacity="0.2" d="M59.8361 69.1396C58.9646 74.2533 58.8253 74.9761 57.9538 80.0717C57.6528 81.8272 56.7813 84.5613 55.5279 85.8319C54.6025 86.7702 53.695 87.6771 52.4102 87.9824C51.2108 88.2652 49.3959 88.2966 48.2683 87.7983C47.1407 87.2999 46.1838 85.1045 46.6465 83.9822C48.3222 84.3368 48.8388 84.8801 50.2809 83.9822C51.5432 83.183 53.3267 81.4141 54.0095 80.0897C56.8936 74.5181 57.6843 74.3206 59.8496 69.1396" fill="#2B3085"/>
</g>
<path d="M45.5492 79.0612C45.231 78.6307 44.94 78.1809 44.6777 77.7143L42.6472 74.3965C41.8475 73.1439 41.1288 72.008 40.5627 71.1146C40.2527 70.6741 39.9721 70.2137 39.7227 69.7363C39.8337 69.8317 39.9292 69.9438 40.0057 70.0686C40.1764 70.2885 40.4145 70.6163 40.6975 71.0248C41.2725 71.8374 42.0452 72.9823 42.8448 74.2753C43.6445 75.5683 44.3408 76.758 44.8215 77.629C45.0641 78.0779 45.2707 78.4236 45.3785 78.6706C45.4863 78.9175 45.5672 79.0522 45.5492 79.0612Z" fill="#2B3085"/>
<path d="M59.3226 88.2336C59.1807 88.3103 59.0298 88.3691 58.8734 88.4087C58.6896 88.4725 58.5021 88.525 58.3119 88.5658C58.0917 88.6152 57.8402 88.6826 57.5571 88.723C56.8982 88.8362 56.2312 88.8962 55.5625 88.9026C53.9146 88.9141 52.2797 88.6093 50.7467 88.0046C50.1251 87.7618 49.5242 87.469 48.9498 87.1292C48.7272 87.0027 48.5113 86.8648 48.3029 86.7161C48.1472 86.6105 47.9972 86.4966 47.8537 86.3749C47.6066 86.1729 47.4718 86.0607 47.4853 86.0472C47.4988 86.0337 48.0648 86.4468 49.0531 86.9855C49.6324 87.2993 50.2328 87.5723 50.8501 87.8026C51.609 88.077 52.3886 88.2902 53.1816 88.4401C53.9766 88.5816 54.782 88.6566 55.5895 88.6646C56.249 88.6691 56.908 88.6271 57.5616 88.5389C58.6353 88.4042 59.3002 88.1932 59.3226 88.2336Z" fill="#2B3085"/>
<path d="M51.405 72.9284C51.3735 73.108 49.2486 77.3282 49.2486 77.3282L39.2397 72.0574L38.2199 67.7474C38.0526 67.0545 37.6173 66.4561 37.0093 66.0833C36.4014 65.7105 35.6704 65.5937 34.9764 65.7586L32.025 66.9663C31.9032 67.0138 31.7952 67.0908 31.7105 67.1903C31.6259 67.2898 31.5672 67.4087 31.5398 67.5364C31.4994 67.7564 31.5398 67.9854 31.9306 67.936C32.6629 67.8821 34.1768 67.716 34.1768 67.716L33.4805 70.1718C33.2967 70.8154 33.3675 71.5049 33.6781 72.0978L34.1274 72.9508L35.1112 74.5267C35.1112 74.5267 44.8371 84.5115 50.2998 85.1625C53.5837 85.5531 57.3034 76.3539 57.3034 76.3539L51.405 72.9284Z" fill="#B78876"/>
<path d="M34.1016 67.8825C34.1016 67.8825 34.1779 67.7793 34.3441 67.6671C34.568 67.5148 34.8326 67.4334 35.1034 67.4336C35.2447 67.4425 35.3812 67.4887 35.4988 67.5676C35.6164 67.6465 35.7109 67.7552 35.7727 67.8825C35.8671 68.0846 35.8042 68.2238 35.7727 68.2148C35.7413 68.2058 35.7727 68.0846 35.6649 67.9319C35.5989 67.8351 35.5115 67.7548 35.4094 67.6972C35.3074 67.6396 35.1934 67.6062 35.0764 67.5997C34.8334 67.5996 34.5941 67.6598 34.3801 67.7748C34.2229 67.8421 34.115 67.9005 34.1016 67.8825Z" fill="#AA6550"/>
<path d="M35.3644 69.4138C35.3644 69.4138 35.2971 69.3329 35.2028 69.2162C35.0847 69.0649 34.9303 68.946 34.7538 68.8705C34.5708 68.8008 34.3733 68.7776 34.1792 68.8032C34.0265 68.8256 33.9367 68.8615 33.9233 68.8391C33.9098 68.8166 33.9951 68.7538 34.1567 68.7044C34.3709 68.6426 34.5994 68.652 34.8077 68.7313C35.0159 68.8135 35.19 68.9638 35.3016 69.1578C35.3734 69.306 35.3824 69.4093 35.3644 69.4138Z" fill="#AA6550"/>
<path d="M53.461 59.6081L50.7656 72.4438L57.9534 76.7718L60.7117 68.8836C60.7117 68.8836 59.5706 59.2939 53.461 59.6081Z" fill="#E8505B"/>
<path d="M57.3521 59.8369C57.2971 59.8817 57.2367 59.9194 57.1724 59.9492L56.6243 60.2365C56.1481 60.4834 55.4518 60.8201 54.5713 61.2107C52.2947 62.2531 49.8967 63.0072 47.433 63.4555C44.9606 63.8991 42.4222 63.815 39.9847 63.2086C39.2489 63.0171 38.5317 62.7601 37.8418 62.4409C37.5947 62.3331 37.3926 62.2254 37.2892 62.1625C37.1859 62.0997 37.1051 62.0548 37.1096 62.0458C37.3709 62.1353 37.6274 62.2387 37.8777 62.3556C38.5744 62.6415 39.2924 62.8727 40.0251 63.047C42.4495 63.6034 44.9613 63.666 47.4105 63.231C49.8513 62.7783 52.2326 62.0493 54.5084 61.0581C55.4069 60.6899 56.0942 60.3757 56.5839 60.1602C56.8309 60.0321 57.0878 59.924 57.3521 59.8369Z" fill="#EBEBEB"/>
<path d="M59.2426 61.251C59.2426 61.251 59.1797 61.3093 59.045 61.3991C58.9102 61.4889 58.6856 61.6281 58.4475 61.7807C58.1339 61.9843 57.81 62.1716 57.4771 62.3419C57.0908 62.5485 56.6595 62.7909 56.1564 63.0154L55.3702 63.379C55.0962 63.5003 54.7997 63.6035 54.4987 63.7247C53.9012 63.9761 53.2409 64.1737 52.5445 64.4027C49.5114 65.3177 46.3411 65.693 43.178 65.5116C42.4502 65.4532 41.7584 65.4128 41.1205 65.3051C40.797 65.2602 40.4871 65.2287 40.1906 65.1704L39.346 65.0043C38.8024 64.91 38.3218 64.7663 37.8995 64.6586C37.5409 64.5686 37.1871 64.4607 36.8393 64.3353L36.1699 64.1063C36.0906 64.0846 36.0149 64.0514 35.9453 64.0076C36.0274 64.0192 36.1086 64.0372 36.1879 64.0614L36.8662 64.25C37.1582 64.3398 37.5221 64.4386 37.9444 64.5329C38.3667 64.6271 38.8429 64.7573 39.3909 64.8426L40.2355 64.9953C40.5275 65.0447 40.8375 65.0716 41.134 65.1165C41.7719 65.2108 42.4817 65.2422 43.178 65.2961C46.3174 65.4496 49.4604 65.0778 52.4772 64.1961C53.1645 63.9761 53.8249 63.7831 54.4223 63.5451C54.7233 63.4284 55.0153 63.3296 55.2894 63.2084L56.0755 62.8672C56.5832 62.6607 57.0189 62.4183 57.4232 62.2297C57.8275 62.0411 58.142 61.8571 58.4071 61.6999L59.0225 61.3587C59.0922 61.3157 59.1659 61.2796 59.2426 61.251Z" fill="#EBEBEB"/>
<path d="M57.9556 76.7711C57.752 76.6909 57.5564 76.5917 57.3715 76.4748L55.7902 75.5769L50.3994 72.4656L50.332 72.4252V72.3489C50.5252 71.3881 50.7319 70.36 50.9475 69.296C51.2754 67.7022 51.5854 66.1802 51.846 64.8064C51.9942 64.115 52.1155 63.4595 52.2503 62.84C52.3723 62.2611 52.567 61.7 52.8298 61.1699C53.2035 60.3843 53.8692 59.7755 54.6851 59.4728C54.9068 59.3984 55.1387 59.359 55.3724 59.3561C55.4527 59.3529 55.533 59.362 55.6105 59.383C55.0378 59.4056 54.4839 59.5936 54.0159 59.9243C53.5479 60.255 53.1859 60.7141 52.9735 61.2462C52.7313 61.7679 52.5519 62.3164 52.4389 62.8804C52.3221 63.4999 52.1919 64.1554 52.0571 64.8468C51.7786 66.2341 51.4731 67.7561 51.1586 69.3364C50.943 70.3959 50.7094 71.424 50.5387 72.3848L50.4848 72.2636C52.6231 73.5386 54.483 74.6431 55.8441 75.4467L57.394 76.394C57.5905 76.5052 57.7783 76.6313 57.9556 76.7711Z" fill="#2B3085"/>
<path d="M60.1557 68.4922C60.1897 68.8903 60.1777 69.291 60.1198 69.6864C59.924 71.6103 59.4284 73.4917 58.6508 75.2625C58.5077 75.635 58.3207 75.9892 58.0938 76.3175C58.1977 75.9344 58.3329 75.5605 58.4981 75.1996C59.1785 73.4128 59.6664 71.5586 59.9536 69.6685C59.9904 69.2717 60.058 68.8785 60.1557 68.4922Z" fill="#2B3085"/>
<path d="M21.1772 139.886L21.1143 146.741C21.1143 146.741 14.1197 148.959 13.9805 150.225L27.2554 150.849L27.8169 140.173L21.1772 139.886Z" fill="#2B3085"/>
<path d="M25.2348 146.36C25.3608 146.405 25.4658 146.495 25.5296 146.613C25.5934 146.731 25.6115 146.868 25.5805 146.998C25.54 147.125 25.4522 147.232 25.3352 147.296C25.2182 147.36 25.081 147.377 24.9519 147.343C24.8182 147.297 24.7068 147.202 24.6402 147.077C24.5736 146.952 24.5567 146.807 24.5928 146.67C24.6483 146.542 24.7512 146.44 24.88 146.386C25.0087 146.331 25.1535 146.329 25.2842 146.378" fill="#E0E0E0"/>
<path d="M27.2584 150.85V149.772L14.5091 149.57C14.5091 149.57 13.9027 149.799 13.9521 150.217L27.2584 150.85Z" fill="#E0E0E0"/>
<path d="M20.8871 146.661C20.8871 146.728 21.2103 146.773 21.5201 146.998C21.8299 147.222 21.969 147.5 22.0454 147.478C22.1217 147.456 22.0454 147.074 21.6503 146.809C21.2552 146.544 20.8736 146.603 20.8871 146.661Z" fill="#2B3085"/>
<path d="M19.4688 147.173C19.4688 147.236 19.7247 147.357 19.9177 147.645C20.1108 147.932 20.1736 148.224 20.241 148.224C20.3083 148.224 20.3622 147.856 20.0973 147.51C19.8324 147.164 19.4732 147.11 19.4688 147.173Z" fill="#2B3085"/>
<path d="M18.5959 148.802C18.6542 148.802 18.7575 148.497 18.5959 148.138C18.4342 147.778 18.1469 147.617 18.12 147.689C18.093 147.76 18.2681 147.94 18.3848 148.241C18.5016 148.542 18.5285 148.793 18.5959 148.802Z" fill="#2B3085"/>
<path d="M21.0803 145.103C21.0803 145.161 21.4035 145.103 21.7717 145.13C22.1398 145.157 22.4182 145.3 22.4541 145.246C22.49 145.193 22.2251 144.95 21.7941 144.905C21.3631 144.86 21.0489 145.049 21.0803 145.103Z" fill="#2B3085"/>
<g opacity="0.3">
<path opacity="0.3" d="M21.1664 141.241L21.1484 142.462L27.6848 142.714L27.7477 141.618L21.1664 141.241Z" fill="#2B3085"/>
</g>
<path d="M21.1172 143.72C21.3319 143.791 21.5623 143.8 21.7821 143.747C22.0239 143.717 22.2609 143.657 22.4874 143.567C22.6229 143.514 22.7549 143.453 22.8827 143.383C22.9592 143.345 23.029 143.295 23.0893 143.235C23.1347 143.192 23.1639 143.134 23.1721 143.072C23.1803 143.01 23.1669 142.947 23.1343 142.894C23.1051 142.847 23.065 142.807 23.0172 142.779C22.9695 142.751 22.9156 142.735 22.8602 142.732C22.7757 142.725 22.6906 142.733 22.6086 142.755C22.4639 142.779 22.3223 142.82 22.1864 142.876C21.9569 142.966 21.7431 143.092 21.5529 143.248C21.2295 143.518 21.1037 143.756 21.1352 143.769C21.1666 143.783 21.3238 143.599 21.6473 143.374C21.838 143.248 22.0431 143.146 22.2582 143.069C22.3843 143.026 22.5134 142.993 22.6446 142.97C22.7883 142.939 22.9096 142.943 22.9411 143.01C22.9725 143.078 22.9411 143.042 22.9411 143.082C22.8957 143.126 22.8443 143.162 22.7883 143.19C22.6718 143.258 22.5518 143.319 22.429 143.374C22.2173 143.466 21.9978 143.538 21.7731 143.59C21.5516 143.617 21.3324 143.661 21.1172 143.72Z" fill="#2B3085"/>
<path d="M21.201 143.819C21.3355 143.634 21.4079 143.41 21.4075 143.181C21.4283 142.936 21.4086 142.689 21.3491 142.45C21.3111 142.308 21.2615 142.17 21.201 142.036C21.1686 141.948 21.1142 141.868 21.0427 141.806C20.9712 141.744 20.8851 141.701 20.7924 141.682C20.7332 141.68 20.6747 141.695 20.6238 141.725C20.5729 141.755 20.5317 141.799 20.5051 141.852C20.4661 141.929 20.4389 142.01 20.4243 142.095C20.3947 142.243 20.3871 142.394 20.4018 142.544C20.4271 142.794 20.5134 143.035 20.6532 143.244C20.8957 143.599 21.1651 143.693 21.1695 143.671C21.174 143.648 20.972 143.5 20.7924 143.159C20.6856 142.964 20.6227 142.748 20.6083 142.526C20.6032 142.398 20.6137 142.27 20.6398 142.144C20.6667 142.001 20.7251 141.888 20.779 141.906C20.8328 141.924 20.954 142.023 20.9989 142.135C21.0591 142.253 21.1087 142.377 21.1471 142.503C21.2116 142.722 21.2448 142.949 21.2459 143.177C21.2459 143.567 21.1651 143.805 21.201 143.819Z" fill="#2B3085"/>
<path d="M48.268 90.2716C48.268 90.2716 27.5088 81.5708 21.0803 81.1982C17.0372 80.9647 14.0004 83.5552 14.5484 87.7215C14.8225 89.8047 20.5592 114.21 20.5592 114.21L29.3103 110.219L25.1099 93.3424L42.1809 101.626L48.268 90.2716Z" fill="#2B3085"/>
<path d="M22.4889 89.0738C22.4215 89.1322 23.1134 90.0211 23.8366 91.1929C24.5599 92.3647 25.0496 93.3748 25.1304 93.3389C25.2113 93.303 24.8384 92.2255 24.0972 91.0313C23.356 89.837 22.5473 89.0199 22.4889 89.0738Z" fill="#2B3085"/>
<path d="M20.7866 90.0426C20.7416 90.119 21.7883 90.7834 23.0327 91.6903C24.2771 92.5972 25.2115 93.3919 25.2789 93.329C25.3463 93.2661 24.4703 92.3593 23.2214 91.4434C21.9725 90.5275 20.8225 89.9753 20.7866 90.0426Z" fill="#2B3085"/>
<path d="M64.4686 95.5063C64.4686 95.5063 61.8541 98.869 59.3653 99.7894C56.2207 100.943 33.103 111.853 33.103 111.853C33.103 111.853 28.9072 143.001 29.2396 141.704L19.5586 141.47L20.6098 112.778C20.7401 109.101 23.6826 104.885 26.8497 103.008L48.2692 90.2715L64.4686 95.5063Z" fill="#2B3085"/>
<path d="M20.4238 118.027C20.4544 117.899 20.468 117.768 20.4643 117.636C20.4643 117.344 20.5002 116.972 20.5227 116.505C20.5779 115.125 20.7069 113.749 20.909 112.383C21.188 110.359 21.9005 108.419 22.9979 106.695C23.6787 105.707 24.5198 104.839 25.4867 104.127C26.5282 103.363 27.6192 102.669 28.7526 102.048C33.4112 99.3817 37.4364 96.661 40.4058 94.7978C41.8883 93.855 43.1012 93.1008 43.9278 92.589L44.8937 91.9964C45.0085 91.9339 45.1169 91.8602 45.2171 91.7764C45.0928 91.8179 44.9737 91.8737 44.8622 91.9425C44.6331 92.0637 44.2962 92.2433 43.8694 92.4902C43.0114 92.9706 41.7894 93.6934 40.2755 94.6138C37.2701 96.4096 33.227 99.1033 28.5954 101.797C27.4432 102.422 26.3355 103.126 25.2801 103.903C24.2899 104.637 23.4303 105.532 22.7374 106.552C21.6293 108.313 20.9223 110.296 20.6664 112.361C20.4812 113.739 20.3852 115.128 20.3789 116.518V117.627C20.3826 117.762 20.3976 117.895 20.4238 118.027Z" fill="#2B3085"/>
<path d="M55.9237 98.793C55.7414 98.5156 55.5434 98.2488 55.3308 97.9939C54.8823 97.3464 54.5713 96.6141 54.4168 95.842C54.2623 95.0699 54.2675 94.2743 54.4323 93.5043C54.5321 93.1883 54.6101 92.8658 54.6659 92.5391C54.4465 92.7982 54.2924 93.1061 54.2166 93.437C53.9876 94.2331 53.9537 95.0726 54.1179 95.8845C54.2821 96.6965 54.6396 97.4569 55.16 98.1016C55.3548 98.3905 55.6169 98.6278 55.9237 98.793Z" fill="#2B3085"/>
<path d="M23.1168 141.471C23.1315 141.418 23.1406 141.364 23.1438 141.31C23.1438 141.188 23.1797 141.031 23.2022 140.861C23.2516 140.412 23.3145 139.814 23.3953 139.065C23.5571 137.462 23.7772 135.19 24.0557 132.389C24.1905 130.975 24.3342 129.43 24.505 127.773C24.6757 126.117 24.8329 124.343 24.9542 122.48C25.0755 120.617 25.2731 118.66 25.6146 116.644C25.948 114.577 26.5521 112.564 27.4115 110.655C28.2997 108.767 29.4774 107.03 30.9021 105.505C32.2413 104.086 33.709 102.793 35.2866 101.644C37.9954 99.7291 40.809 97.9665 43.7142 96.3645C46.1716 94.9547 48.1302 93.7515 49.433 92.8446C50.0844 92.3957 50.583 92.032 50.911 91.7761L51.2839 91.4798C51.3677 91.414 51.4081 91.3781 51.4051 91.3721C51.3558 91.3954 51.3091 91.424 51.2659 91.4574L50.875 91.7267C50.5336 91.9647 50.026 92.3149 49.3656 92.7459C48.0449 93.6213 46.0772 94.7886 43.6064 96.1759C40.6794 97.7497 37.8459 99.4916 35.1204 101.393C33.5245 102.546 32.04 103.846 30.6864 105.276C29.2222 106.82 28.0095 108.583 27.0925 110.502C26.2294 112.438 25.6252 114.479 25.2956 116.572C24.9542 118.588 24.7835 120.554 24.6442 122.408C24.505 124.263 24.3657 126.049 24.2174 127.706C24.0692 129.363 23.9389 130.907 23.8176 132.317C23.584 135.123 23.3684 137.399 23.2561 139.002C23.1977 139.774 23.1528 140.385 23.1213 140.82C23.1213 141.013 23.1213 141.17 23.0899 141.296C23.0894 141.355 23.0985 141.415 23.1168 141.471Z" fill="#2B3085"/>
<path d="M45.912 40.8545C45.5867 40.0151 44.972 39.3195 44.1787 38.8931C43.3855 38.4667 42.466 38.3375 41.5859 38.5289C41.1977 38.6681 40.7929 38.7557 40.3819 38.7893C39.8838 38.7018 39.3939 38.5726 38.9174 38.4032C38.3787 38.3146 37.8263 38.4297 37.3678 38.726C36.9094 39.0223 36.5778 39.4786 36.4376 40.0059C36.0156 39.9035 35.5764 39.8941 35.1504 39.9787C34.7245 40.0632 34.3221 40.2395 33.9713 40.4953C33.6286 40.7625 33.3853 41.1367 33.2803 41.5582C33.1753 41.9797 33.2145 42.4243 33.3918 42.8209C33.567 43.1486 33.841 43.409 34.0162 43.7457C34.2813 44.298 34.16 44.9624 34.3442 45.5416C34.5173 45.963 34.8053 46.3273 35.1754 46.5932C35.5455 46.8591 35.9828 47.0158 36.4376 47.0456C37.3526 47.091 38.2677 46.9599 39.133 46.6595" fill="#2B3085"/>
<path d="M41.7435 58.6154C41.6267 57.7489 41.5549 57.1384 41.5549 57.1384C41.5549 57.1384 38.6573 57.1384 37.5118 53.5467C36.9322 51.7509 36.5459 48.7519 36.3123 46.2781C36.2599 45.7521 36.3142 45.2209 36.4719 44.7164C36.6296 44.2118 36.8874 43.7442 37.23 43.3414C37.5726 42.9387 37.993 42.6091 38.4659 42.3724C38.9388 42.1357 39.4546 41.9966 39.9825 41.9636L47.6735 41.5596L47.8397 42.7538L49.8657 57.529C49.9396 58.0646 49.9068 58.6095 49.769 59.1324C49.6313 59.6552 49.3914 60.1457 49.0632 60.5755C48.735 61.0053 48.325 61.366 47.8567 61.6368C47.3884 61.9076 46.8712 62.0831 46.3347 62.1532C45.2566 62.292 44.1674 61.9973 43.3065 61.3339C42.4456 60.6706 41.8835 59.6928 41.7435 58.6154Z" fill="#B78876"/>
<path d="M37.3783 48.3839C37.3972 48.5067 37.463 48.6174 37.5618 48.6927C37.6606 48.7681 37.7847 48.8022 37.9081 48.788C37.9696 48.7847 38.0297 48.7689 38.0848 48.7414C38.1399 48.7139 38.1888 48.6754 38.2284 48.6283C38.2679 48.5811 38.2974 48.5263 38.3149 48.4673C38.3324 48.4083 38.3376 48.3463 38.3301 48.2852C38.3112 48.1624 38.2454 48.0517 38.1467 47.9763C38.0479 47.901 37.9238 47.8669 37.8003 47.8811C37.7389 47.8843 37.6787 47.9002 37.6236 47.9277C37.5685 47.9551 37.5196 47.9936 37.4801 48.0408C37.4405 48.088 37.411 48.1428 37.3935 48.2018C37.376 48.2608 37.3708 48.3228 37.3783 48.3839Z" fill="#2B3085"/>
<path d="M37.1926 47.7201C37.26 47.774 37.5744 47.4508 38.0911 47.3744C38.6077 47.2981 38.9895 47.4867 39.0569 47.4148C39.1243 47.343 39.003 47.2846 38.8233 47.1904C38.5785 47.0749 38.3045 47.0358 38.0372 47.0781C37.7736 47.1206 37.5301 47.2447 37.3408 47.4328C37.1926 47.5899 37.1567 47.6977 37.1926 47.7201Z" fill="#2B3085"/>
<path d="M42.2025 47.589C42.2215 47.7127 42.2879 47.8241 42.3876 47.8995C42.4874 47.975 42.6127 48.0085 42.7368 47.9931C42.7979 47.9892 42.8576 47.973 42.9121 47.9452C42.9667 47.9175 43.015 47.8789 43.0541 47.8318C43.0932 47.7847 43.1223 47.7301 43.1395 47.6714C43.1568 47.6126 43.1618 47.551 43.1543 47.4902C43.1354 47.3674 43.0697 47.2568 42.9709 47.1814C42.8721 47.1061 42.748 47.0719 42.6246 47.0862C42.5631 47.0894 42.5029 47.1053 42.4478 47.1327C42.3927 47.1602 42.3439 47.1987 42.3043 47.2459C42.2647 47.293 42.2352 47.3478 42.2177 47.4069C42.2002 47.4659 42.1951 47.5279 42.2025 47.589Z" fill="#2B3085"/>
<path d="M42.1942 47.0245C42.2616 47.0739 42.5805 46.7551 43.0927 46.6743C43.6048 46.5935 43.9911 46.791 44.0585 46.7192C44.1259 46.6474 44.0001 46.5845 43.8204 46.4947C43.5769 46.375 43.3016 46.3357 43.0343 46.3825C42.7701 46.4229 42.5259 46.5473 42.3379 46.7372C42.1987 46.8808 42.1627 47.002 42.1942 47.0245Z" fill="#2B3085"/>
<path d="M40.9513 51.0782C40.6695 51.0428 40.3845 51.0428 40.1027 51.0782C39.9725 51.0782 39.8468 51.0782 39.8109 50.9929C39.772 50.8641 39.772 50.7266 39.8109 50.5978L40.0399 49.5473C40.2638 48.6633 40.414 47.7623 40.4888 46.8535C40.1953 47.7324 39.9717 48.6331 39.8199 49.5473C39.7481 49.9154 39.6807 50.2656 39.6134 50.5978C39.5507 50.7658 39.5507 50.9507 39.6134 51.1186C39.6396 51.1607 39.675 51.1964 39.717 51.2228C39.759 51.2493 39.8065 51.2658 39.8558 51.2712C39.9302 51.2827 40.0059 51.2827 40.0803 51.2712C40.3782 51.2479 40.6714 51.1829 40.9513 51.0782Z" fill="#2B3085"/>
<path d="M41.5547 57.1396C43.2909 56.8906 44.9238 56.1647 46.2717 55.043C46.2717 55.043 45.4765 57.7592 41.7389 57.9971L41.5547 57.1396Z" fill="#AA6550"/>
<path d="M42.4985 51.1816C42.4177 51.1816 42.4985 51.7428 42.0944 52.2098C41.6904 52.6767 41.0888 52.7081 41.0978 52.7844C41.1067 52.8607 41.2459 52.8697 41.4928 52.8383C41.815 52.7906 42.1104 52.6318 42.3279 52.3893C42.5373 52.1559 42.6469 51.8496 42.6332 51.5363C42.6197 51.3073 42.5344 51.1816 42.4985 51.1816Z" fill="#2B3085"/>
<path d="M41.7442 45.0535C41.8206 45.1837 42.3148 45.0535 42.9212 45.0176C43.5277 44.9817 44.0353 45.0805 44.0982 44.9413C44.0982 44.8784 44.0174 44.7617 43.8017 44.6584C43.5196 44.5333 43.2114 44.4778 42.9033 44.4968C42.5883 44.5062 42.2802 44.5909 42.0048 44.7437C41.8071 44.8694 41.7128 44.9952 41.7442 45.0535Z" fill="#2B3085"/>
<path d="M37.1413 46.2424C37.2491 46.3456 37.5905 46.1706 37.9993 46.0987C38.4081 46.0269 38.79 46.0538 38.8529 45.9191C38.8798 45.8563 38.8034 45.7485 38.6327 45.6632C38.4023 45.5665 38.1485 45.5401 37.9031 45.5872C37.6577 45.6343 37.4317 45.753 37.2536 45.9281C37.1233 46.0448 37.0964 46.1706 37.1413 46.2424Z" fill="#2B3085"/>
<path d="M35.9084 44.6537C35.9084 44.6537 37.9434 45.3361 40.2795 43.7782C41.8158 42.7546 43.6712 42.1126 44.1339 42.3865C44.5966 42.6603 44.9021 44.3394 46.5867 44.6312C46.5867 44.6312 46.8832 47.8637 48.1501 47.5854C49.0485 47.3878 48.5274 43.8231 48.1501 41.7893C48.0768 41.3939 47.8709 41.0352 47.5663 40.7724C47.2617 40.5096 46.8766 40.3584 46.4744 40.3437L44.1025 40.2539L41.1465 41.0755L37.9749 41.942L35.5625 42.9432L35.9084 44.6537Z" fill="#2B3085"/>
<path d="M47.8672 46.2742C47.9166 46.2383 49.8753 45.2057 50.2392 47.3473C50.603 49.4888 48.3793 49.4125 48.3658 49.3496C48.3524 49.2867 47.8672 46.2742 47.8672 46.2742Z" fill="#B78876"/>
<path d="M48.8845 48.4285C48.8845 48.4285 48.9249 48.4285 48.9923 48.4644C49.039 48.4767 49.0877 48.4795 49.1356 48.4726C49.1834 48.4656 49.2293 48.4491 49.2706 48.424C49.3942 48.3135 49.4861 48.172 49.5366 48.0142C49.5871 47.8563 49.5945 47.6877 49.5579 47.5261C49.5336 47.3415 49.4676 47.165 49.3649 47.0098C49.3328 46.9458 49.286 46.8904 49.2282 46.8483C49.1704 46.8061 49.1034 46.7783 49.0327 46.7673C48.9876 46.7646 48.9431 46.7774 48.9063 46.8035C48.8696 46.8297 48.8429 46.8676 48.8306 46.911C48.8306 46.9738 48.8306 47.0142 48.8306 47.0187C48.8306 47.0232 48.7812 46.9918 48.7812 46.902C48.7851 46.847 48.8072 46.7948 48.8441 46.7539C48.8692 46.7262 48.8996 46.704 48.9336 46.6886C48.9676 46.6731 49.0043 46.6648 49.0416 46.6641C49.1332 46.6649 49.2228 46.6898 49.3016 46.7363C49.3805 46.7828 49.4456 46.8492 49.4906 46.9289C49.6155 47.0978 49.6958 47.2955 49.7241 47.5036C49.7666 47.6924 49.7521 47.8896 49.6826 48.0702C49.6131 48.2508 49.4916 48.4067 49.3335 48.5183C49.2787 48.5442 49.2189 48.5577 49.1584 48.5577C49.0978 48.5577 49.038 48.5442 48.9833 48.5183C48.8935 48.4868 48.8755 48.433 48.8845 48.4285Z" fill="#AA6550"/>
<path d="M36.9375 39.2259C36.9375 39.2259 37.0094 39.3382 37.1621 39.5133C37.384 39.7536 37.664 39.933 37.9752 40.034C38.4357 40.1823 38.9276 40.204 39.3993 40.0969C39.9887 39.9557 40.5668 39.7711 41.1289 39.5447C41.7135 39.3147 42.3381 39.2033 42.9662 39.2169C43.4952 39.2349 43.9957 39.4607 44.3589 39.8455C44.6165 40.0942 44.776 40.4273 44.8081 40.7838C44.8259 40.9115 44.8039 41.0416 44.7452 41.1564C44.7452 41.1564 44.7452 41.0218 44.7182 40.7928C44.6619 40.4748 44.5043 40.1835 44.269 39.9622C43.9212 39.6299 43.4608 39.4408 42.9797 39.4324C42.3811 39.4324 41.7879 39.5467 41.2322 39.7692C40.6588 39.9948 40.0684 40.175 39.4667 40.3079C38.9579 40.4136 38.4294 40.3715 37.9438 40.1867C37.6135 40.0655 37.3261 39.8501 37.1172 39.5671C37.0251 39.4735 36.9626 39.3548 36.9375 39.2259Z" fill="#2B3085"/>
<path d="M44.1744 41.2773C44.1744 41.2773 44.0666 41.1606 43.8419 41.0079C43.5212 40.7991 43.1465 40.6884 42.7638 40.6892C42.1943 40.687 41.6329 40.8242 41.1286 41.0887C40.4983 41.4289 39.8471 41.7288 39.1789 41.9866C38.5445 42.1818 37.8768 42.2451 37.217 42.1725C36.5571 42.0999 35.9192 41.893 35.3424 41.5646C34.9947 41.3739 34.6756 41.1351 34.3945 40.8553C34.2868 40.7569 34.1958 40.6416 34.125 40.5141C34.5266 40.8605 34.9597 41.1686 35.4188 41.4344C36.5561 42.0264 37.8803 42.1489 39.107 41.7756C39.7666 41.5112 40.4114 41.2115 41.0387 40.8777C41.5757 40.6087 42.1728 40.4819 42.7728 40.5096C43.1813 40.5256 43.5744 40.6701 43.8959 40.9226C44.021 41.0115 44.1178 41.1347 44.1744 41.2773Z" fill="#2B3085"/>
<path d="M37.5208 77.7595L27.0896 68.8701L23.6484 69.6468C23.6484 69.6468 27.2738 77.1803 29.8973 79.9414C29.8973 79.9414 32.4894 83.4118 36.7661 81.9123C41.0428 80.4128 37.5208 77.7595 37.5208 77.7595Z" fill="#B78876"/>
<path d="M26.3052 59.0869H21.8712C21.7041 59.0953 21.541 59.141 21.3938 59.2205C21.2465 59.3 21.119 59.4114 21.0204 59.5465C20.9218 59.6816 20.8546 59.8371 20.8238 60.0015C20.7931 60.1658 20.7994 60.335 20.8425 60.4966L25.2989 69.1795C25.3843 69.3441 25.5132 69.4822 25.6716 69.5788C25.83 69.6753 26.0118 69.7267 26.1974 69.7272H31.5882C31.7148 69.7138 31.8361 69.6692 31.9412 69.5974C32.0463 69.5255 32.1318 69.4287 32.1902 69.3156C32.2485 69.2025 32.2779 69.0767 32.2755 68.9495C32.2731 68.8223 32.2392 68.6977 32.1767 68.5868L27.8775 60.0881C27.735 59.7912 27.5122 59.5401 27.2344 59.3632C26.9565 59.1862 26.6346 59.0906 26.3052 59.0869Z" fill="#2B3085"/>
<path d="M26.0041 59.6084H21.5656C21.4382 59.6085 21.313 59.6412 21.2018 59.7033C21.0906 59.7655 20.9972 59.8552 20.9306 59.9637C20.8639 60.0722 20.8262 60.1959 20.8209 60.3231C20.8157 60.4504 20.8432 60.5768 20.9008 60.6904L25.2539 69.1802C25.3392 69.3448 25.4681 69.4829 25.6265 69.5794C25.7849 69.676 25.9668 69.7273 26.1523 69.7279H31.4982C31.5724 69.7262 31.645 69.7063 31.7096 69.6698C31.7741 69.6333 31.8286 69.5814 31.8682 69.5187C31.9078 69.456 31.9313 69.3845 31.9365 69.3105C31.9417 69.2366 31.9285 69.1625 31.898 69.0948L27.5899 60.6096C27.4459 60.311 27.221 60.0588 26.9406 59.8818C26.6602 59.7048 26.3357 59.61 26.0041 59.6084Z" fill="#2B3085"/>
<path d="M25.607 63.1641L22.9115 64.2416L22.332 66.4145L23.6303 69.647L28.4012 70.3429L27.0041 68.9152L27.1838 67.6761C27.1838 67.6761 28.5315 67.2586 28.5315 67.052C28.5315 66.8455 28.3653 66.1541 28.1631 66.1541C27.6179 66.2727 27.0831 66.4349 26.5638 66.639C26.5638 66.639 28.217 65.3325 28.1676 65.1215C28.1182 64.9105 27.9475 64.3762 27.615 64.3179C27.2826 64.2595 24.6231 65.5121 24.6231 65.5121L24.1739 66.4998L23.7965 64.924C23.7965 64.924 26.2089 64.2416 25.607 63.1641Z" fill="#B78876"/>
<path d="M25.9695 68.2412C25.9695 68.2412 25.9021 68.1469 25.8752 67.9718C25.8457 67.7431 25.8711 67.5106 25.9491 67.2936C26.0272 67.0766 26.1557 66.8813 26.3242 66.7237C26.4588 66.607 26.5621 66.5621 26.5711 66.5756C26.3704 66.8056 26.2027 67.0625 26.0727 67.3388C25.9927 67.6326 25.9579 67.9369 25.9695 68.2412Z" fill="#AA6550"/>
<path d="M24.6836 67.7926C24.7352 67.5603 24.7712 67.3248 24.7914 67.0878C24.8049 66.8214 24.8501 66.5577 24.9262 66.3021C24.9804 66.1471 25.0661 66.005 25.1778 65.8846C25.3049 65.7606 25.4585 65.6669 25.627 65.6107C26.2694 65.3727 26.8534 65.1842 27.2757 65.0495C27.5027 64.9632 27.7373 64.8986 27.9765 64.8564C27.7641 64.9711 27.5415 65.0658 27.3116 65.1393C26.8938 65.3009 26.3098 65.5074 25.6764 65.7364C25.5301 65.7907 25.3958 65.8731 25.2811 65.9788C25.1823 66.0853 25.106 66.2105 25.0565 66.347C24.9763 66.5903 24.9236 66.8418 24.8992 67.0967C24.8882 67.3433 24.8139 67.5829 24.6836 67.7926Z" fill="#AA6550"/>
<path d="M24.0631 67.2981C24.0206 67.124 24.0206 66.9424 24.0631 66.7683C24.1125 66.481 24.1798 66.252 24.2202 66.261C24.2627 66.435 24.2627 66.6167 24.2202 66.7908C24.1708 67.0781 24.1035 67.3071 24.0631 67.2981Z" fill="#AA6550"/>
<path d="M23.9922 61.2463C23.9922 61.3582 24.0254 61.4676 24.0875 61.5606C24.1497 61.6537 24.238 61.7262 24.3414 61.769C24.4448 61.8118 24.5585 61.823 24.6682 61.8012C24.778 61.7793 24.8788 61.7255 24.9579 61.6463C25.037 61.5672 25.0909 61.4664 25.1127 61.3567C25.1345 61.247 25.1233 61.1332 25.0805 61.0299C25.0377 60.9265 24.9652 60.8382 24.8722 60.776C24.7791 60.7138 24.6698 60.6807 24.5579 60.6807C24.4078 60.6807 24.264 60.7403 24.1579 60.8464C24.0518 60.9524 23.9922 61.0963 23.9922 61.2463Z" fill="#FAFAFA"/>
<path d="M8.45556 146.809C9.15937 147.028 9.81176 147.387 10.3737 147.864C10.9356 148.34 11.3956 148.925 11.726 149.584C12.3815 150.906 12.7243 152.36 12.7278 153.836C12.8176 156.677 11.6406 159.73 10.2525 162.213C7.59752 160.503 6.53733 156.996 6.10606 155.182C5.43221 152.323 5.94883 146.733 8.45556 146.809Z" fill="#E8505B"/>
<path d="M13.6623 166.442C13.3852 165.666 13.3186 164.831 13.4693 164.021C13.62 163.211 13.9826 162.456 14.5203 161.831C15.0668 161.216 15.7304 160.716 16.4724 160.36C17.2144 160.004 18.0199 159.799 18.8419 159.757C19.6011 159.708 20.4412 159.807 20.9578 160.359C21.1848 160.634 21.3345 160.964 21.3913 161.316C21.4482 161.668 21.4102 162.029 21.2813 162.361C21.0143 163.023 20.5754 163.601 20.01 164.036C18.1546 165.612 16.0702 166.797 13.6623 166.442Z" fill="#E8505B"/>
<path d="M11.892 175.453C11.8746 175.257 11.8746 175.06 11.892 174.865C11.892 174.452 11.9279 173.913 11.9504 173.271C11.968 171.504 12.2714 169.751 12.8488 168.081C13.4516 166.405 14.4905 164.921 15.8587 163.78C16.2729 163.444 16.7253 163.157 17.2064 162.927C17.3364 162.864 17.4699 162.808 17.6062 162.761C17.653 162.738 17.703 162.723 17.7545 162.716C17.1179 163.047 16.516 163.441 15.9575 163.892C14.6376 165.043 13.6301 166.509 13.0285 168.153C12.4627 169.812 12.1478 171.546 12.0941 173.298C12.0492 173.971 12.0088 174.514 11.9728 174.887C11.9638 175.078 11.9367 175.267 11.892 175.453Z" fill="#2B3085"/>
<path d="M8.43739 151.114C8.4719 151.193 8.4946 151.276 8.50478 151.361C8.54071 151.545 8.59013 151.779 8.64853 152.075C8.77432 152.695 8.94503 153.597 9.14269 154.71C9.54251 156.955 10.0412 160.026 10.5353 163.447C11.0295 166.868 11.3844 169.979 11.618 172.233C11.7348 173.356 11.8201 174.271 11.874 174.9C11.8965 175.201 11.9145 175.439 11.9279 175.627C11.9359 175.712 11.9359 175.798 11.9279 175.883C11.9023 175.801 11.8857 175.717 11.8785 175.632C11.8561 175.443 11.8246 175.205 11.7842 174.909C11.7078 174.253 11.5955 173.351 11.4652 172.247C11.1912 170.002 10.8049 166.9 10.3197 163.479C9.83451 160.057 9.35383 156.969 8.97198 154.733C8.79678 153.637 8.64853 152.739 8.52274 152.089C8.47782 151.792 8.44188 151.554 8.41044 151.366C8.4084 151.281 8.41746 151.197 8.43739 151.114Z" fill="#2B3085"/>
<path d="M9.83581 168.736C9.30518 167.083 8.38827 165.58 7.16098 164.352C5.9337 163.124 4.43135 162.206 2.77833 161.674C1.93377 161.413 0.873573 161.314 0.31203 161.997C-0.249514 162.679 0.0469811 163.707 0.482739 164.475C1.42136 166.06 2.80809 167.332 4.4684 168.131C6.12871 168.93 7.98838 169.22 9.81335 168.965" fill="#E8505B"/>
<path d="M3.54719 164.27C3.72825 164.302 3.90577 164.351 4.07728 164.418C4.28506 164.477 4.48908 164.549 4.68824 164.633C4.95458 164.737 5.21547 164.853 5.46991 164.983C5.77867 165.132 6.07865 165.299 6.36838 165.482C6.71152 165.684 7.04298 165.906 7.36119 166.146C8.08796 166.701 8.74955 167.337 9.33334 168.041C9.90854 168.754 10.3985 169.531 10.7933 170.357C10.9628 170.719 11.1127 171.089 11.2426 171.466C11.3573 171.794 11.4533 172.129 11.5301 172.467C11.5969 172.741 11.6479 173.018 11.6828 173.298C11.7216 173.51 11.7471 173.725 11.7592 173.94C11.7751 174.124 11.7751 174.309 11.7592 174.492C11.7143 174.492 11.6783 173.711 11.3639 172.494C11.2773 172.163 11.1738 171.836 11.0539 171.516C10.9224 171.146 10.7725 170.784 10.6047 170.429C10.2061 169.623 9.72103 168.863 9.15813 168.162C8.58307 167.471 7.93546 166.843 7.22642 166.29C6.91619 166.049 6.59381 165.824 6.26057 165.616C5.95509 165.41 5.64961 165.253 5.3621 165.1C4.28843 164.534 3.52922 164.319 3.54719 164.27Z" fill="#2B3085"/>
</g>
<defs>
<clipPath id="clip0_154_4187">
<rect width="308" height="176" fill="white"/>
</clipPath>
</defs>
</svg>
