<svg width="320" height="320" viewBox="0 0 320 320" fill="none" xmlns="http://www.w3.org/2000/svg">
<g clip-path="url(#clip0_185_3146)">
<mask id="mask0_185_3146" style="mask-type:luminance" maskUnits="userSpaceOnUse" x="0" y="0" width="320" height="320">
<path d="M320 0H0V320H320V0Z" fill="white"/>
</mask>
<g mask="url(#mask0_185_3146)">
<path d="M152.987 210.566L149.363 254.469L170.101 254.034L165.317 210.566H152.987Z" fill="#3C3839"/>
<path d="M156.412 111.632L150.98 155.1H167.586L161.093 111.632H156.412Z" fill="#3C3839"/>
<path d="M48.69 179.468H68.7007C72.5872 179.468 75.7377 182.619 75.7377 186.505V245.011C75.7377 248.897 72.5872 252.048 68.7007 252.048H48.69C44.8034 252.048 41.6523 248.897 41.6523 245.011V186.505C41.6523 182.619 44.8034 179.468 48.69 179.468Z" fill="#161616"/>
<path d="M254.206 178.457H274.217C278.103 178.457 281.254 181.608 281.254 185.495V244C281.254 247.886 278.103 251.037 274.217 251.037H254.206C250.32 251.037 247.168 247.886 247.168 244V185.495C247.168 181.608 250.32 178.457 254.206 178.457Z" fill="#161616"/>
<path d="M269.626 230.434C268.751 231.964 267.77 233.138 266.666 233.863C254.927 241.57 231.076 237.533 231.076 237.533C231.076 237.533 227.407 237.287 223.167 232.722C223.167 232.722 172.746 241.202 94.9644 233.5C94.9644 233.5 90.5217 238.267 82.4897 238.588C82.4897 238.588 59.5084 240.69 53.6791 231.874C53.4764 231.57 53.3004 231.255 53.1404 230.93C48.3724 221.026 40.6657 163.058 49.4711 159.388L53.7537 156.903C53.7537 156.903 54.4044 143.287 67.4497 132.242C67.4497 132.242 69.5991 126.604 72.9537 119.282C79.2145 105.634 89.6737 86.1404 98.2657 86.3804C98.2657 86.3804 164.303 80.1404 224.841 86.3751C224.841 86.3751 235.636 81.4737 251.663 126.946C252.612 129.628 253.578 132.492 254.559 135.543C254.559 135.543 265.199 140.679 268.132 156.455C268.132 156.455 276.938 156.818 276.57 167.458C276.57 167.458 278.074 215.655 269.626 230.434Z" fill="#F04752"/>
<path d="M72.9537 119.281C69.3591 137.271 64.5964 161.42 64.1484 165.26C63.4124 171.495 57.1991 159.02 57.1991 159.02C57.1991 159.02 52.7724 168.353 53.8764 180.012C54.6124 187.847 52.8897 213.591 53.6791 231.873C53.4764 231.569 53.3004 231.255 53.1404 230.929C48.3724 221.026 40.6657 163.057 49.4711 159.388L53.7537 156.903C53.7537 156.903 54.4044 143.287 67.4497 132.241C67.4497 132.241 69.5991 126.604 72.9537 119.281Z" fill="#EA2E3A"/>
<path d="M269.627 230.433C270.166 204.401 267.765 168.801 267.765 168.801C259.611 162.572 254.571 143.292 251.664 126.945C252.614 129.628 253.579 132.492 254.561 135.543C254.561 135.543 265.2 140.679 268.133 156.455C268.133 156.455 276.939 156.817 276.571 167.457C276.571 167.457 278.075 215.655 269.627 230.433Z" fill="#EA2E3A"/>
<path d="M72.5848 123.067C72.5848 123.067 70.0574 123.149 68.8344 121.927C67.6115 120.704 66.9587 118.339 65.491 118.257C64.0238 118.176 48.3705 118.013 46.9027 120.663C45.435 123.312 40.7065 128.203 45.1091 130.16C49.5118 132.117 68.6707 132.606 70.7091 132.117C72.7475 131.628 72.5848 123.067 72.5848 123.067Z" fill="#E74F5B"/>
<path d="M248.277 122.171C248.277 122.171 251.131 123.23 252.68 122.171C254.229 121.111 255.819 118.583 256.226 118.583C256.634 118.583 272.002 118.239 274.692 120.49C277.383 122.741 279.013 129.148 277.138 129.41C277.138 129.41 262.993 135.997 249.908 129.41L248.277 122.171Z" fill="#E74F5B"/>
<path d="M88.8898 226.626C78.0045 224.86 67.5725 222.434 57.9352 219.191C57.9352 219.191 54.2392 210.017 63.4125 200.477C63.4125 200.477 71.6045 202.039 85.0712 203.938C85.1458 211.57 85.9085 221.153 88.8898 226.626Z" fill="#E22C38"/>
<path d="M263.113 219.191C262.425 219.303 250.846 221.597 232.91 224.109C234.809 219.01 235.811 211.869 236.345 205.805C244.302 204.402 252.009 202.647 259.326 200.477C259.326 200.477 265.433 218.824 263.113 219.191Z" fill="#DF2430"/>
<path d="M236.345 205.804C235.812 211.868 234.809 219.01 232.911 224.108C197.913 229.01 138.697 234.726 88.889 226.626C85.9076 221.153 85.145 211.569 85.0703 203.938C90.5423 204.711 96.889 205.533 103.913 206.333C133.353 209.677 174.676 212.545 213.481 208.855C221.241 208.119 228.905 207.116 236.345 205.804Z" fill="#E93340"/>
<path d="M213.482 208.855C204.981 226.673 192.282 225.223 190.719 226.162C188.884 227.26 176.41 227.996 138.255 226.162C116.724 225.127 107.695 214.978 103.914 206.333C133.354 209.676 174.677 212.545 213.482 208.855Z" fill="#3C3839"/>
<path d="M102.301 165.258C102.301 165.258 155.131 179.933 220.802 165.258C220.802 165.258 216.767 182.868 210.897 183.602C205.027 184.336 143.758 196.076 114.774 183.602C114.774 183.602 108.171 186.17 102.301 165.258Z" fill="#3C3839"/>
<path d="M83.1021 152.05C77.4968 151.357 68.8355 150.695 66.1048 152.786C62.9741 155.181 58.3181 166.439 61.2141 175.618C51.3368 167.202 57.0701 154.653 59.7208 150.018C60.4141 148.818 61.5981 147.986 62.9581 147.714C71.0808 146.072 77.7315 148.167 83.1021 152.05Z" fill="#C3C0C0"/>
<path d="M62.6789 176.753C62.1568 176.385 61.6656 176.007 61.2123 175.617C58.3163 166.439 62.9723 155.18 66.1029 152.785C68.8336 150.695 77.4949 151.356 83.1003 152.049C97.0096 162.107 102.3 184.171 102.3 184.171C103.399 187.953 77.3509 187.105 62.6789 176.753Z" fill="#F4F4F4"/>
<path d="M238.141 151.765C243.746 151.071 252.407 150.41 255.138 152.501C258.268 154.895 262.925 166.154 260.029 175.333C269.906 166.917 264.173 154.368 261.522 149.733C260.829 148.533 259.644 147.702 258.285 147.429C250.162 145.787 243.511 147.882 238.141 151.765Z" fill="#C3C0C0"/>
<path d="M258.562 176.469C259.084 176.101 259.575 175.723 260.028 175.333C262.924 166.155 258.267 154.895 255.137 152.501C252.407 150.411 243.745 151.071 238.14 151.765C224.231 161.823 218.94 183.887 218.94 183.887C217.841 187.669 243.889 186.821 258.562 176.469Z" fill="#F4F4F4"/>
<path d="M75.1537 132.337C75.1537 132.337 208.616 140.505 248.28 132.337C248.28 132.337 237.681 93.7167 225.941 90.4148C214.201 87.1129 105.972 88.9476 99.7345 90.4148C93.4977 91.882 68.55 130.233 75.1537 132.337Z" fill="#3C3839"/>
<path d="M71.331 206.974C74.4952 206.974 77.0643 209.543 77.0643 212.707C77.0643 215.871 74.4952 218.44 71.331 218.44C68.1668 218.44 65.5977 215.871 65.5977 212.707C65.5977 209.543 68.1668 206.974 71.331 206.974Z" fill="#E2DEDE"/>
<path d="M249.466 206.44C252.464 206.44 254.897 208.89 254.897 211.907C254.897 214.924 252.464 217.374 249.466 217.374C246.469 217.374 244.035 214.924 244.035 211.907C244.035 208.89 246.469 206.44 249.466 206.44Z" fill="#E2DEDE"/>
</g>
</g>
<defs>
<clipPath id="clip0_185_3146">
<rect width="320" height="320" fill="white"/>
</clipPath>
</defs>
</svg>
