<svg width="18" height="18" viewBox="0 0 18 18" fill="none" xmlns="http://www.w3.org/2000/svg">
<path fill-rule="evenodd" clip-rule="evenodd" d="M9 2.625C5.48475 2.625 2.625 5.48475 2.625 9C2.625 12.5153 5.48475 15.375 9 15.375C12.5153 15.375 15.375 12.5153 15.375 9C15.375 5.48475 12.5153 2.625 9 2.625ZM9 16.5C4.8645 16.5 1.5 13.1355 1.5 9C1.5 4.8645 4.8645 1.5 9 1.5C13.1355 1.5 16.5 4.8645 16.5 9C16.5 13.1355 13.1355 16.5 9 16.5Z" fill="#2B3085"/>
<path fill-rule="evenodd" clip-rule="evenodd" d="M11.5736 11.769C11.4753 11.769 11.3763 11.7435 11.2856 11.6903L8.45809 10.0035C8.28859 9.90154 8.18359 9.71779 8.18359 9.51979V5.88379C8.18359 5.57329 8.43559 5.32129 8.74609 5.32129C9.05734 5.32129 9.30859 5.57329 9.30859 5.88379V9.20029L11.8623 10.7228C12.1286 10.8825 12.2163 11.2275 12.0573 11.4945C11.9516 11.6708 11.7648 11.769 11.5736 11.769Z" fill="#2B3085"/>
</svg>
