<svg width="17" height="17" viewBox="0 0 17 17" fill="none" xmlns="http://www.w3.org/2000/svg">
<path d="M8.5 4.25V12.75M10.625 6.72917C10.625 5.75167 9.67371 4.95833 8.5 4.95833C7.32629 4.95833 6.375 5.75167 6.375 6.72917C6.375 7.70667 7.32629 8.5 8.5 8.5C9.67371 8.5 10.625 9.29333 10.625 10.2708C10.625 11.2483 9.67371 12.0417 8.5 12.0417C7.32629 12.0417 6.375 11.2483 6.375 10.2708" stroke="#2B3085" stroke-width="0.5" stroke-linecap="round"/>
<path d="M4.95964 2.36475C6.03591 1.74193 7.25781 1.41495 8.5013 1.417C12.4134 1.417 15.5846 4.58821 15.5846 8.50034C15.5846 12.4125 12.4134 15.5837 8.5013 15.5837C4.58918 15.5837 1.41797 12.4125 1.41797 8.50034C1.41797 7.21046 1.76293 5.99992 2.36572 4.95867" stroke="#2B3085" stroke-width="0.5" stroke-linecap="round"/>
</svg>
