<svg width="18" height="18" viewBox="0 0 18 18" fill="none" xmlns="http://www.w3.org/2000/svg">
<path fill-rule="evenodd" clip-rule="evenodd" d="M9.18726 6.375C8.46351 6.375 7.87476 6.96375 7.87476 7.68825C7.87476 8.412 8.46351 9 9.18726 9C9.91101 9 10.4998 8.412 10.4998 7.68825C10.4998 6.96375 9.91101 6.375 9.18726 6.375ZM9.1875 10.125C7.8435 10.125 6.75 9.03225 6.75 7.68825C6.75 6.3435 7.8435 5.25 9.1875 5.25C10.5315 5.25 11.625 6.3435 11.625 7.68825C11.625 9.03225 10.5315 10.125 9.1875 10.125Z" fill="#2B3085"/>
<mask id="mask0_251_3140" style="mask-type:luminance" maskUnits="userSpaceOnUse" x="3" y="1" width="13" height="16">
<path fill-rule="evenodd" clip-rule="evenodd" d="M3 1.5H15.3746V16.125H3V1.5Z" fill="white"/>
</mask>
<g mask="url(#mask0_251_3140)">
<path fill-rule="evenodd" clip-rule="evenodd" d="M9.18774 2.625C6.39624 2.625 4.12524 4.91775 4.12524 7.73475C4.12524 11.319 8.34324 14.811 9.18774 14.997C10.0322 14.8103 14.2502 11.3182 14.2502 7.73475C14.2502 4.91775 11.9792 2.625 9.18774 2.625ZM9.1875 16.125C7.842 16.125 3 11.961 3 7.73475C3 4.29675 5.77575 1.5 9.1875 1.5C12.5992 1.5 15.375 4.29675 15.375 7.73475C15.375 11.961 10.533 16.125 9.1875 16.125Z" fill="#2B3085"/>
</g>
</svg>
