<svg width="24" height="24" viewBox="0 0 24 24" fill="none" xmlns="http://www.w3.org/2000/svg">
<path d="M3 6.52381C3 6.12932 3.32671 5.80952 3.72973 5.80952H8.51787C8.52437 4.9683 8.61554 3.81504 9.45037 3.01668C10.1074 2.38839 11.0081 2 12 2C12.9919 2 13.8926 2.38839 14.5496 3.01668C15.3844 3.81504 15.4756 4.9683 15.4821 5.80952H20.2703C20.6733 5.80952 21 6.12932 21 6.52381C21 6.9183 20.6733 7.2381 20.2703 7.2381H3.72973C3.32671 7.2381 3 6.9183 3 6.52381Z" fill="#FF1212"/>
<path opacity="0.5" d="M11.5956 21.9967H12.4044C15.1871 21.9967 16.5785 21.9967 17.4831 21.1108C18.3878 20.2249 18.4803 18.7716 18.6654 15.8652L18.9321 11.6773C19.0326 10.1003 19.0828 9.31182 18.6289 8.81216C18.1751 8.3125 17.4087 8.3125 15.876 8.3125H8.12405C6.59127 8.3125 5.82488 8.3125 5.37105 8.81216C4.91722 9.31182 4.96744 10.1003 5.06788 11.6773L5.33459 15.8652C5.5197 18.7716 5.61225 20.2249 6.51689 21.1108C7.42153 21.9967 8.81289 21.9967 11.5956 21.9967Z" fill="#FF1212"/>
<path fill-rule="evenodd" clip-rule="evenodd" d="M9.42543 11.4805C9.83759 11.4372 10.2051 11.7537 10.2463 12.1875L10.7463 17.4507C10.7875 17.8845 10.4868 18.2714 10.0747 18.3148C9.66253 18.3582 9.29499 18.0417 9.25378 17.6078L8.75378 12.3447C8.71256 11.9108 9.01327 11.5239 9.42543 11.4805Z" fill="#FF1212"/>
<path fill-rule="evenodd" clip-rule="evenodd" d="M14.5747 11.4805C14.9868 11.5239 15.2875 11.9108 15.2463 12.3447L14.7463 17.6078C14.7051 18.0417 14.3376 18.3582 13.9254 18.3148C13.5133 18.2714 13.2126 17.8845 13.2538 17.4507L13.7538 12.1875C13.795 11.7537 14.1625 11.4372 14.5747 11.4805Z" fill="#FF1212"/>
</svg>
