<svg width="22" height="22" viewBox="0 0 22 22" fill="none" xmlns="http://www.w3.org/2000/svg">
<path fill-rule="evenodd" clip-rule="evenodd" d="M19.0713 6.98797L18.5008 5.99788C18.0181 5.16012 16.9484 4.87111 16.1095 5.35181V5.35181C15.7101 5.58705 15.2336 5.65379 14.785 5.53732C14.3364 5.42084 13.9526 5.13071 13.7182 4.73091C13.5673 4.47679 13.4863 4.18735 13.4832 3.89186V3.89186C13.4968 3.41811 13.3181 2.95902 12.9877 2.61918C12.6574 2.27935 12.2035 2.0877 11.7296 2.08789H10.5801C10.1158 2.08789 9.67059 2.27291 9.34306 2.60202C9.01552 2.93113 8.83263 3.3772 8.83486 3.84151V3.84151C8.8211 4.80017 8.03999 5.57006 7.08124 5.56997C6.78575 5.5669 6.49631 5.48585 6.24219 5.33503V5.33503C5.40328 4.85433 4.33358 5.14334 3.85088 5.9811L3.23837 6.98797C2.75626 7.82468 3.04134 8.89371 3.87605 9.37927V9.37927C4.41863 9.69252 4.75288 10.2714 4.75288 10.898C4.75288 11.5245 4.41863 12.1034 3.87605 12.4166V12.4166C3.0424 12.8989 2.75701 13.9654 3.23837 14.7996V14.7996L3.81732 15.798C4.04348 16.2061 4.42294 16.5073 4.87173 16.6348C5.32052 16.7624 5.80164 16.7058 6.20862 16.4777V16.4777C6.60871 16.2442 7.08548 16.1803 7.53295 16.3C7.98042 16.4197 8.36152 16.7133 8.59154 17.1154C8.74236 17.3695 8.8234 17.6589 8.82647 17.9544V17.9544C8.82647 18.9229 9.6116 19.708 10.5801 19.708H11.7296C12.6948 19.708 13.4786 18.928 13.4832 17.9628V17.9628C13.481 17.497 13.665 17.0497 13.9944 16.7203C14.3237 16.391 14.7711 16.2069 15.2368 16.2092C15.5316 16.2171 15.8199 16.2978 16.0759 16.4441V16.4441C16.9126 16.9262 17.9816 16.6411 18.4672 15.8064V15.8064L19.0713 14.7996C19.3052 14.3982 19.3693 13.9202 19.2497 13.4713C19.13 13.0225 18.8363 12.6399 18.4336 12.4083V12.4083C18.031 12.1766 17.7373 11.794 17.6176 11.3452C17.4979 10.8964 17.5621 10.4183 17.796 10.017C17.948 9.75146 18.1682 9.53133 18.4336 9.37927V9.37927C19.2634 8.89397 19.5478 7.83119 19.0713 6.99636V6.99636V6.98797Z" stroke="#2B3085" stroke-width="1.375" stroke-linecap="round" stroke-linejoin="round"/>
<circle cx="11.1587" cy="10.8979" r="2.41648" stroke="#2B3085" stroke-width="1.375" stroke-linecap="round" stroke-linejoin="round"/>
</svg>
