<svg width="146" height="54" viewBox="0 0 146 54" fill="none" xmlns="http://www.w3.org/2000/svg">
<g clip-path="url(#clip0_154_4008)">
<path d="M146.001 43.4238H0.695312V54.0004H146.001V43.4238Z" fill="white"/>
<path d="M7.21484 46.583H8.20058V51.4668H7.21484V46.583Z" fill="#2B3085"/>
<path d="M33.5861 49.2815V46.574H34.5749V51.5647L31.63 48.7626V51.47H30.6289V46.4824L33.5861 49.2815Z" fill="#2B3085"/>
<path d="M59.0196 51.5859L56.8086 46.583H57.8527L59.0196 49.2569L60.1896 46.583H61.246L59.0196 51.5859Z" fill="#2B3085"/>
<path d="M86.4369 46.5742V47.551H84.4654V48.5339H85.9455V49.5137H84.4654V50.4965H86.4369V51.4703H83.4766V46.5864L86.4369 46.5742Z" fill="#2B3085"/>
<path d="M110.047 50.505C110.187 50.5062 110.323 50.4562 110.429 50.3645C110.535 50.2728 110.603 50.1458 110.621 50.0075C110.621 49.5618 110.007 49.5008 109.678 49.3817C109.372 49.3014 109.098 49.1274 108.896 48.8843C108.693 48.6412 108.573 48.3412 108.551 48.0265C108.553 47.6506 108.698 47.2893 108.957 47.0152C109.216 46.7411 109.569 46.5743 109.947 46.5485C110.324 46.5226 110.697 46.6395 110.991 46.8757C111.286 47.1118 111.479 47.4499 111.533 47.822L110.554 48.0265C110.554 47.8953 110.501 47.7695 110.408 47.6768C110.315 47.5841 110.188 47.532 110.056 47.532C109.924 47.532 109.798 47.5841 109.704 47.6768C109.611 47.7695 109.559 47.8953 109.559 48.0265C109.559 48.466 110.118 48.5851 110.458 48.6858C111.073 48.8628 111.625 49.3298 111.625 50.0105C111.609 50.4124 111.437 50.7923 111.144 51.0698C110.851 51.3473 110.461 51.5005 110.056 51.4971C109.687 51.4991 109.328 51.3722 109.043 51.1385C108.758 50.9048 108.564 50.5791 108.496 50.2181L109.476 50.0105C109.494 50.1491 109.563 50.2762 109.669 50.3675C109.776 50.4587 109.912 50.5077 110.053 50.505H110.047Z" fill="#2B3085"/>
<path d="M137.078 46.583V47.5567H135.875V51.4638H134.883V47.5567H133.676V46.583H137.078Z" fill="#2B3085"/>
<path d="M39.4756 37.8137C39.4756 38.1189 39.0979 38.2716 38.3425 38.2716H24.8523C24.0969 38.2716 23.7192 38.1098 23.7192 37.7862C23.7192 37.4291 24.2412 37.246 25.2884 37.246C27.1309 37.246 28.2497 37.0486 28.6448 36.6538C28.827 36.4727 28.9181 35.269 28.9181 33.0428V5.11335C28.9181 5.14998 28.7011 5.77877 28.2671 6.99973C26.8238 11.3382 24.7203 17.8653 21.9565 26.5809L19.4415 35.149C18.9379 36.838 18.5765 37.6814 18.3575 37.6794C18.1057 37.6794 17.8324 37.249 17.5468 36.3882C16.5027 33.1323 13.5547 24.9814 8.70276 11.9355L6.55317 6.19085C6.55317 6.87153 6.55317 7.80557 6.55317 8.9899V26.4832C6.55317 33.052 6.60742 36.3709 6.71593 36.4401C6.96774 36.9082 7.83371 37.1422 9.31386 37.1422C10.5053 37.1422 11.1011 37.3202 11.1011 37.6763C11.1011 38.0732 10.7234 38.2716 9.96488 38.2716C9.52957 38.274 9.0949 38.2382 8.66591 38.1647C8.21771 38.0961 7.76514 38.0594 7.31167 38.0548L1.08401 38.2716C0.432988 38.2716 0.107479 38.1098 0.107479 37.7862C0.107479 37.4281 1.13723 37.2307 3.19674 37.1941C4.06272 37.1941 4.56736 37.0506 4.71067 36.7637C4.855 36.4768 4.9287 35.5427 4.9287 33.9585V8.13828C4.9287 5.1571 4.89185 3.54035 4.81815 3.28802C4.76047 3.05531 4.64635 2.84017 4.48577 2.6614C4.32518 2.48262 4.123 2.34564 3.8969 2.26241C3.43013 2.08232 2.41675 1.93886 0.865977 1.83202C0.288659 1.79539 0 1.63362 0 1.34669C0 0.953948 0.529208 0.75656 1.58762 0.754525H5.36783C7.51946 0.754525 9.03441 0.741298 9.91267 0.714844C10.0908 1.18288 11.1379 4.00635 13.0541 9.18525C13.873 11.3423 16.1843 17.6363 19.9881 28.0674C20.6821 25.7252 21.3986 23.4206 22.1377 21.1537L27.917 3.35822C28.2763 2.33567 28.5957 1.48405 28.8659 0.806416L36.8501 0.754525C38.019 0.754525 38.6936 0.808451 38.8738 0.916302C38.9589 0.964991 39.0288 1.03604 39.0759 1.12166C39.1231 1.20728 39.1455 1.30415 39.1409 1.40163C39.1409 1.76182 38.8338 1.94191 38.2197 1.94191C37.532 1.92147 36.8438 1.95823 36.1622 2.05179C35.2962 2.19627 34.7005 2.4832 34.375 2.91257C34.1928 3.16694 34.1027 5.27309 34.1047 9.23104V34.334C34.1047 35.7717 34.246 36.6202 34.5377 36.8705C35.0045 37.1941 36.1806 37.3558 38.0569 37.3558H38.3855C39.1071 37.3558 39.4664 37.5085 39.4664 37.8137" fill="white"/>
<path d="M79.5513 1.2888C79.5513 1.59404 79.2258 1.72224 78.5748 1.72224H76.7323C75.8295 1.72224 75.286 1.95727 75.1078 2.42124C75.0197 2.82716 74.9836 3.24253 75.0004 3.65746V23.8094C75.0004 29.0392 74.0156 32.8455 72.0462 35.2284C70.0768 37.6113 66.9097 38.8028 62.545 38.8028C57.3082 38.8028 53.6232 37.3315 51.49 34.389C50.0836 32.4172 49.3793 29.1704 49.3773 24.6488V3.06835C49.2698 2.42429 48.8307 2.02748 48.063 1.88401C47.848 1.84942 47.1745 1.83212 46.0423 1.83212C45.4282 1.75887 45.1211 1.58183 45.1211 1.29185C45.1211 1.00187 45.3729 0.80957 45.8796 0.80957H58.0401C58.6543 0.80957 58.9614 1.00492 58.9614 1.39868C58.9775 1.49651 58.9543 1.59672 58.8969 1.67777C58.8395 1.75882 58.7524 1.81424 58.6543 1.83212C58.4373 1.86468 57.7208 1.90029 56.5047 1.93896C56.1572 1.92014 55.809 1.9562 55.4729 2.04579C55.3104 2.09852 55.1673 2.19805 55.0618 2.33173C54.9563 2.46542 54.8931 2.62724 54.8802 2.79668C54.8434 2.93913 54.8249 3.95659 54.8249 5.84908V25.0792C54.8249 29.8023 55.5824 33.0226 57.0974 34.74C58.6123 36.4575 60.8643 37.3163 63.8532 37.3163C69.3418 37.3163 72.4464 34.2252 73.1671 28.0431C73.2735 27.1151 73.3278 23.1857 73.3298 16.2547V3.43463C73.3604 3.09473 73.2596 2.75601 73.048 2.48727C72.8364 2.21854 72.5298 2.03996 72.1905 1.9878C71.4553 1.88507 70.7121 1.84931 69.9703 1.88096C69.2487 1.88096 68.8894 1.68256 68.8894 1.2888C68.8894 0.983557 69.1412 0.80957 69.651 0.80957H78.3077C79.1429 0.80957 79.5606 0.968295 79.5606 1.2888" fill="white"/>
<path d="M109.494 27.6673C109.494 30.7543 108.311 33.3824 105.947 35.5516C103.641 37.7016 100.58 38.8704 97.4192 38.8085C95.4682 38.8085 93.1394 38.2164 90.433 37.032C89.9269 36.7712 89.3757 36.6075 88.8085 36.5498C88.3766 36.5498 88.1053 37.0463 87.9948 38.0393C87.9579 38.5521 87.7245 38.8085 87.2916 38.8085C86.9292 38.8085 86.7511 38.5949 86.7511 38.1645C86.7453 37.9475 86.7628 37.7306 86.8033 37.5174C87.0806 35.5031 87.2263 33.4731 87.2393 31.44C87.2393 31.0799 87.2025 30.0746 87.1288 28.4243C87.0872 28.1393 87.0687 27.8514 87.0735 27.5635C87.0735 27.0263 87.2916 26.7546 87.7245 26.7546C88.0838 26.7546 88.3387 27.1911 88.483 28.061C89.4227 34.5097 92.4731 37.7351 97.6341 37.7371C99.837 37.7371 101.543 37.1175 102.753 35.8782C103.963 34.639 104.567 32.8899 104.565 30.6312C104.614 28.764 103.99 26.9409 102.805 25.4909C101.632 24.0665 99.6199 22.6583 96.7682 21.2664C93.3391 19.5774 90.9561 17.9495 89.6192 16.3826C88.2824 14.8157 87.615 12.8601 87.6171 10.5158C87.6171 7.53671 88.5823 5.07851 90.5129 3.14125C92.4434 1.20399 94.8898 0.22926 97.8522 0.217051C99.0805 0.217051 100.777 0.629125 102.941 1.45327C103.473 1.68621 104.041 1.83156 104.62 1.88366C104.759 1.90157 104.9 1.8919 105.035 1.85522C105.17 1.81854 105.296 1.75558 105.406 1.66999C105.602 1.32137 105.722 0.935393 105.757 0.537553C105.766 0.388575 105.834 0.24914 105.945 0.14884C106.056 0.048539 106.202 -0.00473257 106.352 0.000330512C106.715 0.000330512 106.896 0.217051 106.896 0.647439C106.902 0.863527 106.884 1.07966 106.841 1.2915C106.723 2.32814 106.669 3.37092 106.678 4.4141C106.652 5.78263 106.742 7.15089 106.948 8.50432L107.003 9.36509C107.037 9.7619 106.877 9.95726 106.515 9.95726C106.153 9.95726 105.849 9.54518 105.704 8.7363C105.358 6.7158 104.372 4.85812 102.888 3.43428C101.408 2.00983 99.7469 1.2976 97.9044 1.2976C96.0987 1.2976 94.6657 1.87247 93.6052 3.02221C92.5447 4.17194 92.0125 5.73274 92.0084 7.70459C92.0084 9.99999 92.7853 11.8477 94.3391 13.2477C95.2051 14.0373 97.0814 15.1494 99.968 16.584C103.362 18.273 105.799 19.9874 107.28 21.7273C108.725 23.3735 109.515 25.4884 109.5 27.6734" fill="white"/>
<path d="M145.831 10.3781C145.831 10.8451 145.613 11.0802 145.18 11.0802C144.747 11.0802 144.44 10.6132 144.259 9.67912C144.188 9.03507 144.114 8.38796 144.044 7.74085C143.837 6.58196 143.413 5.47199 142.794 4.46868C142.036 3.28435 140.791 2.5304 139.057 2.20685C138.166 2.01132 137.256 1.92116 136.345 1.93824C134.647 1.98708 133.618 2.02065 133.256 2.04507V34.5531C133.256 35.8473 133.6 36.6613 134.288 36.995C134.648 37.1741 135.658 37.282 137.318 37.3186C137.751 37.3522 137.969 37.5048 137.969 37.7734C137.969 38.042 137.678 38.2313 137.1 38.2313C136.847 38.2252 136.594 38.1997 136.345 38.155C134.177 38.0817 132.642 38.0451 131.739 38.0451C130.547 38.0451 129.427 38.0725 128.379 38.1275C127.331 38.1824 125.995 38.2089 124.372 38.2068C123.543 38.2068 123.128 38.0634 123.128 37.7765C123.128 37.4529 123.902 37.2728 125.456 37.2362C126.574 37.2362 127.298 37.0042 127.621 36.5372C127.802 36.2503 127.894 35.5116 127.894 34.3272V2.04507C124.32 2.0817 122.099 2.26077 121.233 2.58229C118.959 3.40848 117.623 5.61536 117.226 9.20295C117.115 10.2815 116.863 10.8197 116.467 10.8177C116.034 10.8177 115.816 10.4422 115.816 9.68828C115.816 9.29452 115.835 8.90076 115.872 8.50395L115.979 7.26773C116.086 5.6174 116.248 3.44612 116.467 0.753906H118.903L129.958 0.915683C131.256 0.952312 133.277 0.952312 136.023 0.915683L145.011 0.753906C145.085 2.76239 145.319 5.74051 145.714 9.68828C145.718 9.82418 145.736 9.95929 145.769 10.0912C145.795 10.1915 145.814 10.2935 145.825 10.3964" fill="white"/>
</g>
<defs>
<clipPath id="clip0_154_4008">
<rect width="146" height="54" fill="white"/>
</clipPath>
</defs>
</svg>
