<svg width="287" height="371" viewBox="0 0 287 371" fill="none" xmlns="http://www.w3.org/2000/svg">
<path d="M125.15 220.566C122.334 220.357 119.974 219.443 118.305 217.821C115.263 214.859 115.095 209.964 117.846 204.394L147.663 143.986C151.747 135.716 161.499 127.659 171.378 124.392C176.988 122.535 181.979 122.492 185.439 124.268L228.371 146.263C231.308 147.772 232.847 150.368 232.891 153.776C232.942 161.749 224.534 172.243 213.348 178.148L140.595 216.539C134.955 219.52 129.509 220.89 125.15 220.566ZM180.545 124.632C177.601 124.503 174.66 124.947 171.885 125.939C162.381 129.079 153.015 136.803 149.113 144.716L119.298 205.092C116.841 210.068 116.886 214.172 119.427 216.651C123.168 220.286 131.181 219.686 139.846 215.113L212.577 176.72C224.743 170.287 231.3 160.102 231.281 153.784C231.266 150.978 230.049 148.911 227.642 147.702L184.705 125.701C183.405 125.067 181.991 124.698 180.547 124.616L180.545 124.632Z" fill="white" fill-opacity="0.3"/>
<path d="M123.028 228.043C120.606 227.948 118.279 227.081 116.385 225.568C112.963 222.657 112.423 217.762 114.854 211.791L141.726 145.83C147.943 130.573 169.814 117.354 181.389 121.859L231.101 141.191C232.704 141.744 234.105 142.763 235.125 144.118C236.145 145.472 236.738 147.101 236.826 148.794C237.566 157.147 229.332 168.801 217.68 175.899L141.091 222.532C134.504 226.531 128.089 228.419 123.028 228.043ZM177.355 122.6C166.097 121.764 148.472 133.544 143.223 146.42L116.347 212.422C114.197 217.697 114.578 221.933 117.431 224.36C121.818 228.096 130.987 226.817 140.246 221.178L216.837 174.524C229.562 166.779 235.808 155.561 235.206 148.939C235.146 147.544 234.666 146.199 233.829 145.082C232.991 143.964 231.835 143.126 230.513 142.678L180.801 123.345C179.695 122.93 178.534 122.679 177.355 122.6Z" fill="white" fill-opacity="0.3"/>
<path d="M121.341 236.039C119.075 235.937 116.884 235.192 115.025 233.891C111.243 231.092 110.291 226.102 112.292 219.834L135.349 148.235C140.672 131.711 163.46 115.947 176.679 119.643L233.63 135.561C237.606 136.675 240.055 139.327 240.715 143.238C242.185 152.055 234.436 164.616 222.246 173.098L142.232 228.778C134.821 233.933 127.206 236.475 121.341 236.039ZM173.657 120.774C161.088 119.84 141.551 134.251 136.884 148.742L113.827 220.341C112.033 225.897 112.804 230.252 115.981 232.608C120.306 235.809 129.815 235.463 141.331 227.468L221.322 171.802C234.441 162.683 240.287 150.426 239.12 143.534C238.569 140.306 236.524 138.082 233.193 137.149L176.242 121.231C175.398 120.993 174.532 120.84 173.657 120.774Z" fill="white" fill-opacity="0.3"/>
<path d="M120.347 244.646C118.217 244.534 116.148 243.891 114.329 242.775C110.154 240.117 108.714 235.054 110.262 228.512L128.529 151.378C132.74 133.597 156.295 115.08 171.249 117.801L235.858 129.538C240.455 130.374 243.434 133.039 244.482 137.244C246.753 146.359 239.402 160.072 226.998 169.86L144.122 235.256C135.828 241.78 127.052 245.144 120.347 244.646ZM169.424 119.2C155.36 118.155 133.924 135.608 130.1 151.761L111.833 228.895C110.449 234.715 111.649 239.166 115.194 241.427C120.266 244.672 130.902 243.656 143.121 233.992L226.006 168.559C239.374 158.014 244.701 144.735 242.92 137.601C242.036 134.056 239.499 131.806 235.573 131.095L170.963 119.373C170.454 119.286 169.94 119.228 169.424 119.2Z" fill="white" fill-opacity="0.3"/>
<path d="M120.102 253.729C118.129 253.617 116.202 253.088 114.448 252.177C109.85 249.711 107.878 244.576 108.898 237.783L121.31 155.231C124.167 136.222 148.255 114.685 165.077 116.291L237.728 122.957C243.004 123.445 246.611 126.098 248.107 130.634C251.193 140.006 244.394 154.87 231.934 165.983L146.868 241.836C137.736 249.992 127.737 254.296 120.102 253.729ZM164.642 117.852C148.887 116.682 125.589 137.603 122.909 155.45L110.497 238.002C109.584 244.076 111.261 248.599 115.219 250.736C122.272 254.554 134.847 250.404 145.799 240.641L230.86 164.777C244.458 152.649 249.055 138.674 246.571 131.137C245.266 127.257 242.185 124.967 237.582 124.567L164.925 117.9L164.642 117.852Z" fill="white" fill-opacity="0.3"/>
<path d="M120.699 263.298C118.917 263.181 117.169 262.755 115.534 262.038C110.454 259.758 107.897 254.633 108.329 247.605L113.712 159.914C114.95 139.74 139.426 115.118 158.104 115.268L239.145 115.906L239.144 116.714L239.145 115.906C245.124 115.952 249.519 118.643 251.509 123.471C255.518 133.214 249.554 148.857 236.996 161.497L150.573 248.544C140.684 258.509 129.38 263.943 120.699 263.298ZM240.345 117.563C239.954 117.534 239.558 117.504 239.148 117.516L158.091 116.876C140.48 116.737 116.493 140.927 115.325 160.013L109.942 247.704C109.546 254.108 111.712 258.556 116.196 260.562C124.422 264.249 138.078 258.841 149.43 247.407L235.854 160.361C249.359 146.76 253.199 131.82 250.018 124.088C248.397 120.158 245.063 117.913 240.345 117.563Z" fill="white" fill-opacity="0.3"/>
<path d="M122.085 273.239C120.605 273.139 119.146 272.837 117.748 272.343C112.138 270.333 108.921 265.233 108.694 257.986L105.779 165.498C105.112 144.231 129.66 116.273 150.297 114.799L240.022 108.385C246.848 107.894 252.041 110.505 254.633 115.729C259.569 125.658 254.434 142.366 242.159 156.356L155.343 255.257C144.937 267.112 131.949 273.972 122.085 273.239ZM240.069 109.186L240.131 109.992L150.406 116.406C130.875 117.803 106.748 145.303 107.382 165.447L110.297 257.93C110.506 264.564 113.266 269.025 118.285 270.827C127.791 274.237 142.531 267.395 154.121 254.189L240.926 155.292C252.783 141.776 257.816 125.804 253.167 116.443C250.857 111.777 246.336 109.561 240.121 109.992L240.069 109.186Z" fill="white" fill-opacity="0.3"/>
<path d="M124.706 283.582C123.552 283.499 122.408 283.305 121.291 283.004C115.073 281.325 111.117 276.293 110.125 268.84L97.5527 172.049C94.6631 149.804 118.957 118.337 141.608 114.988L240.201 100.409C247.957 99.2644 254.047 101.741 257.356 107.389C263.259 117.465 259.126 135.199 247.295 150.507L161.301 261.879C150.427 275.962 135.918 284.414 124.706 283.582ZM240.338 101.211L240.459 102.006L141.867 116.585C120.38 119.77 96.4311 150.748 99.1718 171.85L111.744 268.642C112.637 275.497 116.085 279.929 121.709 281.452C132.647 284.389 148.392 275.959 160.023 260.923L246.04 149.521C257.478 134.72 261.565 117.737 255.989 108.207C252.99 103.091 247.619 100.95 240.459 102.006L240.338 101.211Z" fill="white" fill-opacity="0.3"/>
<path d="M128.531 294.193C127.806 294.14 127.084 294.048 126.369 293.915C119.455 292.653 114.657 287.733 112.854 280.108L89.1547 179.643C86.7305 169.369 89.964 156.164 98.0025 143.353C106.915 129.14 119.967 118.64 132.067 115.948L239.658 92.0125L239.833 92.8012L239.658 92.0125C248.419 90.0656 255.533 92.3472 259.686 98.4462C266.727 108.781 263.819 127.053 252.452 143.909L168.586 268.317C157.42 284.827 141.296 295.141 128.531 294.193ZM246.951 93.0218C244.619 92.8757 242.278 93.0705 240.002 93.6L132.418 117.514C120.723 120.115 108.059 130.335 99.3687 144.198C91.6734 156.466 88.4526 169.572 90.7291 179.261L114.423 279.726C116.096 286.809 120.326 291.161 126.657 292.322C139.116 294.597 155.787 284.35 167.22 267.402L251.11 143.023C261.945 126.961 264.92 109.014 258.348 99.3668C255.742 95.5448 251.806 93.3825 246.951 93.0218Z" fill="white" fill-opacity="0.3"/>
<path d="M133.672 304.987L133.207 304.952C125.495 304.22 119.735 299.511 116.985 291.694L80.6121 188.342C77.0457 178.212 79.0053 164.562 85.992 150.891C94.3645 134.513 108.01 121.81 121.595 117.789L238.185 83.2757C248.022 80.3622 256.277 82.3726 261.431 88.9338C269.59 99.3201 267.987 118.464 257.452 136.567L177.23 274.431C166.086 293.583 148.248 306.07 133.672 304.987ZM238.414 84.0524L238.644 84.8238L122.054 119.337C108.877 123.235 95.6116 135.605 87.425 151.624C80.6425 164.906 78.7137 178.071 82.134 187.807L118.507 291.158C121.073 298.452 126.21 302.669 133.358 303.343C147.43 304.649 164.879 292.452 175.835 273.615L256.057 135.757C266.268 118.219 267.913 99.8011 260.162 89.9339C255.45 83.9261 247.807 82.1099 238.644 84.8238L238.414 84.0524Z" fill="white" fill-opacity="0.3"/>
<path d="M140.36 315.864C132.53 315.283 126.308 310.937 122.723 303.483L72.0372 198.219C67.2326 188.236 67.835 174.192 73.6879 159.693C81.1742 141.157 95.1682 126.195 110.202 120.629L235.686 74.2183L235.964 74.9774L235.686 74.2183C246.66 70.1621 256.191 71.7945 262.527 78.826C272.019 89.3591 271.907 108.821 262.249 128.413L187.444 280.103C176.999 301.283 158.341 316.026 142.064 315.948C141.486 315.932 140.92 315.906 140.36 315.864ZM248.552 73.7238C244.791 73.4444 240.646 74.1033 236.248 75.7316L110.764 122.142C96.1657 127.571 82.5067 142.169 75.1892 160.294C69.5001 174.374 68.8852 187.944 73.4863 197.519L124.178 302.784C127.79 310.293 133.949 314.267 142.073 314.318C157.755 314.394 175.818 300.022 186 279.374L260.8 127.683C270.025 108.978 270.235 89.7737 261.326 79.9108C258.055 76.2388 253.461 74.0139 248.552 73.7238Z" fill="white" fill-opacity="0.3"/>
<path d="M148.711 326.689C141.013 326.117 134.569 322.191 130.264 315.353L63.5325 209.327C57.3554 199.513 56.4936 185.084 61.1606 169.743C67.3175 149.508 81.7285 131.794 97.8757 124.605L232.038 64.9315C244.02 59.606 255.254 60.7753 262.867 68.1407C273.656 78.5895 275.183 98.7202 266.754 119.429L199.323 285.134C190.016 308.009 171.058 325.082 153.209 326.646C151.713 326.784 150.209 326.799 148.711 326.689ZM232.343 65.6872L232.671 66.4235L98.5521 126.085C82.8119 133.086 68.7542 150.407 62.7303 170.21C58.197 185.109 58.9937 199.055 64.9191 208.468L131.629 314.493C136.481 322.2 143.897 325.848 153.073 325.042C170.334 323.525 188.741 306.867 197.827 284.529L265.221 118.826C273.398 98.7151 272.021 79.2862 261.708 69.2977C254.486 62.312 244.172 61.2801 232.662 66.4068L232.343 65.6872Z" fill="white" fill-opacity="0.3"/>
<path d="M158.817 337.311C151.299 336.752 144.715 333.272 139.799 327.143L55.283 221.751C47.5815 212.147 45.1238 197.318 48.5301 181.071C53.1528 159.033 67.3471 138.944 84.6905 129.884L227.016 55.5062L227.388 56.2191L227.016 55.5062C240.175 48.632 252.989 49.1376 262.224 56.9051C274.412 67.1764 277.768 87.8731 270.772 109.602L212.961 289.393C205.12 313.779 186.189 333.277 166.938 336.83C164.263 337.339 161.533 337.5 158.817 337.311ZM227.76 56.9373L85.4362 131.289C68.5078 140.125 54.6302 159.812 50.1119 181.375C46.8152 197.147 49.1445 211.488 56.5447 220.713L141.059 326.132C147.287 333.899 156.365 337.134 166.626 335.245C185.337 331.795 203.758 312.738 211.426 288.897L269.234 109.132C276.031 88.0044 272.872 67.965 261.186 58.1402C252.497 50.817 240.311 50.3793 227.76 56.9373Z" fill="white" fill-opacity="0.3"/>
<path d="M170.805 347.562C163.518 347.042 156.67 343.89 151.537 338.693L47.3855 235.444C37.9546 226.095 33.7274 210.843 35.7894 193.598C38.606 169.986 52.2818 147.579 70.6188 136.516L220.536 46.0473L220.952 46.7423L220.536 46.0473C234.868 37.4009 249.443 37.0758 260.525 45.1558C274.439 55.3003 279.701 75.9209 274.254 98.9759L228.485 292.667C222.327 318.708 204.235 340.202 183.446 346.164C179.348 347.375 175.068 347.848 170.805 347.562ZM244.772 41.0266C237.375 40.4771 229.343 42.6164 221.368 47.4319L71.4513 137.895C53.5257 148.713 40.157 170.632 37.3893 193.801C35.3857 210.546 39.4482 225.298 48.5215 234.312L152.67 337.524C160.626 345.414 171.398 347.946 183.004 344.601C203.245 338.805 220.887 317.788 226.914 292.295L272.683 98.6042C277.981 76.1969 272.958 56.2155 259.557 46.4546C255.239 43.2874 250.114 41.4057 244.772 41.0266Z" fill="white" fill-opacity="0.3"/>
<path d="M184.818 357.278C177.838 356.752 171.181 354.126 165.721 349.745L40.0315 250.532C28.6104 241.513 22.3983 225.805 22.9926 207.437C23.7829 182.495 36.6502 157.888 55.7268 144.733L212.416 36.6892C227.864 26.0379 244.312 24.6674 257.548 32.9233C273.15 42.6619 280.612 63.5734 277.028 87.4946L245.982 294.747C241.935 321.768 224.667 345.677 203.036 354.244C197.272 356.622 191.042 357.659 184.818 357.278ZM212.897 37.3625L213.318 37.994L56.6429 146.06C37.9698 158.931 25.3939 183.05 24.6038 207.487C24.0265 225.342 30.0142 240.566 41.0289 249.262L166.675 348.493C176.712 356.41 189.402 357.927 202.441 352.744C223.568 344.384 240.421 320.981 244.385 294.506L275.431 87.2591C278.919 63.9789 271.762 43.685 256.692 34.2941C244.03 26.3889 228.226 27.7488 213.332 38.0163L212.897 37.3625Z" fill="white" fill-opacity="0.3"/>
<path d="M200.916 366.23C194.347 365.732 188 363.63 182.432 360.108L33.4139 266.998C19.7072 258.425 11.2355 242.241 10.1983 222.593C8.82463 196.604 20.5593 169.936 40.0915 154.653L202.498 27.5745C218.961 14.6983 237.396 12.0357 253.083 20.2771C270.533 29.4464 280.444 50.4974 278.943 75.2108L265.555 295.399C263.844 323.513 248.282 349.142 225.878 360.679C217.52 364.988 209.032 366.833 200.916 366.23ZM202.993 28.1957L203.477 28.8319L41.0863 155.922C21.9547 170.889 10.4612 197.028 11.8091 222.506C12.8166 241.625 21.0042 257.342 34.2713 265.611L183.287 358.758C195.766 366.554 210.633 366.734 225.138 359.258C247.035 347.976 262.266 322.875 263.941 295.316L277.328 75.1281C278.793 51.0547 269.215 30.5917 252.331 21.7406C237.228 13.8081 219.429 16.4118 203.489 28.8859L202.993 28.1957Z" fill="white" fill-opacity="0.3"/>
</svg>
